<svg width="2386" height="175" viewBox="0 0 2386 175" fill="none" xmlns="http://www.w3.org/2000/svg">
<rect x="87" width="2299" height="175" fill="#E9E3DF"/>
<path fill-rule="evenodd" clip-rule="evenodd" d="M87.4999 147.283C54.5395 147.283 27.7173 120.46 27.7173 87.5C27.7173 54.5397 54.5395 27.7174 87.4999 27.7174C120.46 27.7174 147.282 54.5397 147.282 87.5C147.282 120.46 120.46 147.283 87.4999 147.283ZM87.4999 29.0281C55.2748 29.0281 29.0281 55.2749 29.0281 87.5C29.0281 119.757 55.2748 146.004 87.4999 146.004C119.757 146.004 145.972 119.757 145.972 87.5C145.972 55.2749 119.757 29.0281 87.4999 29.0281Z" fill="#06202B" fill-opacity="0.3"/>
<path d="M87.4995 28.2174C120.184 28.2174 146.783 54.8156 146.783 87.4996C146.783 120.184 120.184 146.783 87.4995 146.783C54.8155 146.783 28.2173 120.184 28.2173 87.4996C28.2175 54.8157 54.8156 28.2176 87.4995 28.2174ZM87.4995 28.528C54.9986 28.5282 28.528 54.9987 28.5278 87.4996C28.5278 120.033 54.9983 146.503 87.4995 146.504C120.033 146.504 146.472 120.032 146.472 87.4996C146.472 54.9988 120.033 28.528 87.4995 28.528Z" stroke="#06202B" stroke-opacity="0.3"/>
<path fill-rule="evenodd" clip-rule="evenodd" d="M87.4999 153.037C51.3746 153.037 21.9949 123.625 21.9949 87.5C21.9949 51.3747 51.3746 21.9949 87.4999 21.9949C123.625 21.9949 153.037 51.3747 153.037 87.5C153.037 123.625 123.625 153.037 87.4999 153.037ZM87.4999 23.4335C52.1739 23.4335 23.4335 52.1739 23.4335 87.5C23.4335 122.858 52.1739 151.598 87.4999 151.598C122.858 151.598 151.598 122.858 151.598 87.5C151.598 52.1739 122.858 23.4335 87.4999 23.4335Z" fill="#06202B" fill-opacity="0.3"/>
<path d="M87.4998 22.4949C123.349 22.4949 152.537 51.651 152.537 87.4998C152.537 123.349 123.349 152.537 87.4998 152.537C51.651 152.537 22.4949 123.349 22.4949 87.4998C22.495 51.6508 51.6507 22.495 87.4998 22.4949ZM87.4998 22.9334C51.8977 22.9335 22.9335 51.8977 22.9333 87.4998C22.9333 123.134 51.8975 152.098 87.4998 152.098C123.134 152.098 152.098 123.134 152.098 87.4998C152.098 51.8975 123.134 22.9334 87.4998 22.9334Z" stroke="#06202B" stroke-opacity="0.3"/>
<path fill-rule="evenodd" clip-rule="evenodd" d="M87.5 157.577C68.798 157.577 51.2149 150.288 37.9796 137.052C24.7443 123.817 17.4553 106.234 17.4553 87.5C17.4553 68.798 24.7443 51.2148 37.9796 37.9795C51.2149 24.7443 68.798 17.4552 87.5 17.4552C106.234 17.4552 123.817 24.7443 137.052 37.9795C150.288 51.2148 157.577 68.798 157.577 87.5C157.577 106.234 150.288 123.817 137.052 137.052C123.817 150.288 106.234 157.577 87.5 157.577ZM87.5 18.9578C49.7123 18.9578 18.9579 49.7123 18.9579 87.5C18.9579 125.288 49.7123 156.042 87.5 156.042C125.288 156.042 156.042 125.288 156.042 87.5C156.042 49.7123 125.288 18.9578 87.5 18.9578Z" fill="#06202B" fill-opacity="0.3"/>
<path d="M87.5002 17.9552C106.101 17.9553 123.557 25.1918 136.698 38.3332C149.84 51.4748 157.076 68.9309 157.076 87.5002C157.076 106.101 149.84 123.557 136.698 136.698C123.557 149.84 106.102 157.076 87.5002 157.076C68.931 157.076 51.4749 149.84 38.3333 136.698C25.1918 123.557 17.9554 106.101 17.9553 87.5002C17.9553 68.9309 25.1916 51.4748 38.3333 38.3332C51.4749 25.1915 68.931 17.9552 87.5002 17.9552ZM87.5002 18.4582C49.4364 18.4582 18.4583 49.4363 18.4583 87.5002C18.4583 125.564 49.4364 156.542 87.5002 156.542C125.564 156.542 156.542 125.564 156.542 87.5002C156.542 49.4364 125.564 18.4583 87.5002 18.4582Z" stroke="#06202B" stroke-opacity="0.3"/>
<path fill-rule="evenodd" clip-rule="evenodd" d="M87.5001 162.308C67.5192 162.308 48.7213 154.54 34.5909 140.409C20.4604 126.279 12.6919 107.481 12.6919 87.5C12.6919 67.5192 20.4604 48.7212 34.5909 34.5908C48.7213 20.4604 67.5192 12.6918 87.5001 12.6918C107.481 12.6918 126.279 20.4604 140.409 34.5908C154.54 48.7212 162.308 67.5192 162.308 87.5C162.308 107.481 154.54 126.279 140.409 140.409C126.279 154.54 107.481 162.308 87.5001 162.308ZM87.5001 14.3223C47.1548 14.3223 14.3224 47.1547 14.3224 87.5C14.3224 127.877 47.1548 160.71 87.5001 160.71C127.877 160.71 160.678 127.877 160.678 87.5C160.678 47.1547 127.877 14.3223 87.5001 14.3223Z" fill="#06202B" fill-opacity="0.3"/>
<path d="M87.5005 13.1918C107.349 13.1919 126.02 20.9084 140.056 34.9448C154.092 48.9812 161.808 67.6521 161.808 87.5004C161.808 107.349 154.093 126.02 140.056 140.056C126.02 154.092 107.349 161.808 87.5005 161.808C67.6522 161.808 48.9812 154.092 34.9448 140.056C20.9085 126.02 13.192 107.349 13.1919 87.5004C13.1919 67.6519 20.9084 48.9812 34.9448 34.9448C48.9813 20.9083 67.652 13.1918 87.5005 13.1918ZM87.5005 13.8227C46.8791 13.8227 13.8228 46.879 13.8228 87.5004C13.823 128.153 46.8791 161.209 87.5005 161.209C128.154 161.209 161.178 128.153 161.178 87.5004C161.178 46.8793 128.154 13.8229 87.5005 13.8227Z" stroke="#06202B" stroke-opacity="0.3"/>
<path fill-rule="evenodd" clip-rule="evenodd" d="M87.4999 167.519C66.1444 167.519 46.0357 159.207 30.9462 144.086C15.8247 128.964 7.5127 108.887 7.5127 87.5C7.5127 66.1445 15.8247 46.0358 30.9462 30.9463C46.0357 15.8248 66.1444 7.51279 87.4999 7.51279C108.887 7.51279 128.964 15.8248 144.086 30.9463C159.207 46.0358 167.519 66.1445 167.519 87.5C167.519 108.887 159.207 128.964 144.086 144.086C128.964 159.207 108.887 167.519 87.4999 167.519ZM87.4999 9.23914C44.3413 9.23914 9.23908 44.3414 9.23908 87.5C9.23908 130.659 44.3413 165.761 87.4999 165.761C130.658 165.761 165.761 130.659 165.761 87.5C165.761 44.3414 130.658 9.23914 87.4999 9.23914Z" fill="#06202B" fill-opacity="0.3"/>
<path d="M87.5 8.01279C108.423 8.01282 128.081 16.0162 143.024 30.6007L143.732 31.2999C158.76 46.2953 167.02 66.2769 167.02 87.5001C167.02 108.755 158.76 128.705 143.732 143.733C128.705 158.76 108.755 167.02 87.5 167.02C66.6084 167.02 46.9204 159.016 32.0068 144.432L31.2998 143.733L30.6006 143.025C16.0161 128.081 8.01272 108.423 8.0127 87.5001C8.0127 66.6087 16.0159 46.9205 30.5996 32.0069L31.2998 31.2999C46.2952 16.2727 66.2768 8.01279 87.5 8.01279ZM87.5 8.73935C44.0653 8.73935 8.73926 44.0654 8.73926 87.5001C8.73931 130.935 44.0653 166.261 87.5 166.261C130.935 166.261 166.261 130.935 166.261 87.5001C166.261 44.0654 130.935 8.73942 87.5 8.73935Z" stroke="#06202B" stroke-opacity="0.3"/>
<path fill-rule="evenodd" clip-rule="evenodd" d="M87.5 171.292C65.1215 171.292 44.0857 162.596 28.2609 146.771C12.4361 130.946 3.7085 109.879 3.7085 87.5C3.7085 65.1215 12.4361 44.0857 28.2609 28.2609C44.0857 12.4361 65.1215 3.70844 87.5 3.70844C109.879 3.70844 130.946 12.4361 146.771 28.2609C162.596 44.0857 171.292 65.1215 171.292 87.5C171.292 109.879 162.596 130.946 146.771 146.771C130.946 162.596 109.879 171.292 87.5 171.292ZM87.5 5.53071C42.2954 5.53071 5.53073 42.2954 5.53073 87.5C5.53073 132.705 42.2954 169.469 87.5 169.469C132.705 169.469 169.469 132.705 169.469 87.5C169.469 42.2954 132.705 5.53071 87.5 5.53071Z" fill="#06202B" fill-opacity="0.3"/>
<path d="M87.4995 4.20844C109.745 4.20844 130.686 12.8836 146.417 28.6147C162.148 44.3455 170.792 65.2543 170.792 87.5004C170.791 109.747 162.148 130.687 146.417 146.417C130.687 162.148 109.746 170.791 87.4995 170.791C65.2536 170.791 44.3455 162.148 28.6147 146.417C12.8838 130.686 4.2086 109.746 4.2085 87.5004C4.2085 65.2547 12.8836 44.3459 28.6147 28.6147C44.3458 12.8836 65.254 4.20856 87.4995 4.20844ZM87.4995 5.0307C42.019 5.03096 5.03076 42.0199 5.03076 87.5004C5.03099 132.981 42.0191 169.969 87.4995 169.969C132.98 169.969 169.969 132.981 169.969 87.5004C169.969 42.0197 132.98 5.0307 87.4995 5.0307Z" stroke="#06202B" stroke-opacity="0.3"/>
<path fill-rule="evenodd" clip-rule="evenodd" d="M87.5 175C64.1304 175 42.1675 165.921 25.6394 149.393C9.11123 132.864 0 110.87 0 87.5C0 64.1304 9.11123 42.1675 25.6394 25.6394C42.1675 9.11127 64.1304 0 87.5 0C110.87 0 132.864 9.11127 149.393 25.6394C165.921 42.1675 175 64.1304 175 87.5C175 110.87 165.921 132.864 149.393 149.393C132.864 165.921 110.87 175 87.5 175ZM87.5 1.91816C40.3133 1.91816 1.91816 40.3133 1.91816 87.5C1.91816 134.719 40.3133 173.114 87.5 173.114C134.719 173.114 173.114 134.719 173.114 87.5C173.114 40.3133 134.719 1.91816 87.5 1.91816Z" fill="#06202B" fill-opacity="0.3"/>
<path d="M87.5 0.5C110.737 0.500011 132.605 9.5588 149.039 25.9932C165.473 42.4273 174.5 64.2629 174.5 87.5C174.5 110.737 165.473 132.605 149.039 149.039C132.605 165.473 110.737 174.5 87.5 174.5C64.2629 174.5 42.4273 165.473 25.9932 149.039C9.55879 132.605 0.500001 110.737 0.5 87.5C0.5 64.2633 9.55865 42.4277 25.9932 25.9932C42.4277 9.55866 64.2633 0.5 87.5 0.5ZM87.5 1.41797C40.0372 1.41797 1.41797 40.0372 1.41797 87.5C1.41797 134.995 40.037 173.614 87.5 173.614C134.995 173.614 173.614 134.995 173.614 87.5C173.614 40.0371 134.995 1.41799 87.5 1.41797Z" stroke="#06202B" stroke-opacity="0.3"/>
<path fill-rule="evenodd" clip-rule="evenodd" d="M87.5 175C64.1304 175 42.1675 165.921 25.6394 149.393C9.11123 132.864 0 110.87 0 87.5C0 64.1304 9.11123 42.1675 25.6394 25.6394C42.1675 9.11127 64.1304 0 87.5 0C110.87 0 132.864 9.11127 149.393 25.6394C165.921 42.1675 175 64.1304 175 87.5C175 110.87 165.921 132.864 149.393 149.393C132.864 165.921 110.87 175 87.5 175ZM87.5 1.91816C40.3133 1.91816 1.91816 40.3133 1.91816 87.5C1.91816 134.719 40.3133 173.114 87.5 173.114C134.719 173.114 173.114 134.719 173.114 87.5C173.114 40.3133 134.719 1.91816 87.5 1.91816Z" fill="#06202B" fill-opacity="0.3"/>
<path d="M87.5 0.5C110.737 0.500011 132.605 9.5588 149.039 25.9932C165.473 42.4273 174.5 64.2629 174.5 87.5C174.5 110.737 165.473 132.605 149.039 149.039C132.605 165.473 110.737 174.5 87.5 174.5C64.2629 174.5 42.4273 165.473 25.9932 149.039C9.55879 132.605 0.500001 110.737 0.5 87.5C0.5 64.2633 9.55865 42.4277 25.9932 25.9932C42.4277 9.55866 64.2633 0.5 87.5 0.5ZM87.5 1.41797C40.0372 1.41797 1.41797 40.0372 1.41797 87.5C1.41797 134.995 40.037 173.614 87.5 173.614C134.995 173.614 173.614 134.995 173.614 87.5C173.614 40.0371 134.995 1.41799 87.5 1.41797Z" stroke="#06202B" stroke-opacity="0.3"/>
<mask id="path-18-inside-1_144_611" fill="white">
<path fill-rule="evenodd" clip-rule="evenodd" d="M87.5 119.086C70.1087 119.086 55.9463 104.923 55.9463 87.5C55.9463 70.1087 70.1087 55.9463 87.5 55.9463C104.923 55.9463 119.086 70.1087 119.086 87.5C119.086 104.923 104.923 119.086 87.5 119.086ZM87.5 56.6176C70.4603 56.6176 56.6177 70.4604 56.6177 87.5C56.6177 104.54 70.4603 118.382 87.5 118.382C104.54 118.382 118.382 104.54 118.382 87.5C118.382 70.4604 104.54 56.6176 87.5 56.6176Z"/>
</mask>
<path fill-rule="evenodd" clip-rule="evenodd" d="M87.5 119.086C70.1087 119.086 55.9463 104.923 55.9463 87.5C55.9463 70.1087 70.1087 55.9463 87.5 55.9463C104.923 55.9463 119.086 70.1087 119.086 87.5C119.086 104.923 104.923 119.086 87.5 119.086ZM87.5 56.6176C70.4603 56.6176 56.6177 70.4604 56.6177 87.5C56.6177 104.54 70.4603 118.382 87.5 118.382C104.54 118.382 118.382 104.54 118.382 87.5C118.382 70.4604 104.54 56.6176 87.5 56.6176Z" fill="#06202B" fill-opacity="0.3"/>
<path d="M87.5 119.086V118.086C70.6616 118.086 56.9463 104.372 56.9463 87.5H55.9463H54.9463C54.9463 105.475 69.5557 120.086 87.5 120.086V119.086ZM55.9463 87.5H56.9463C56.9463 70.661 70.661 56.9463 87.5 56.9463V55.9463V54.9463C69.5564 54.9463 54.9463 69.5564 54.9463 87.5H55.9463ZM87.5 55.9463V56.9463C104.372 56.9463 118.086 70.6616 118.086 87.5H119.086H120.086C120.086 69.5558 105.475 54.9463 87.5 54.9463V55.9463ZM119.086 87.5H118.086C118.086 104.371 104.371 118.086 87.5 118.086V119.086V120.086C105.476 120.086 120.086 105.476 120.086 87.5H119.086ZM87.5 56.6176V55.6176C69.908 55.6176 55.6177 69.9081 55.6177 87.5H56.6177H57.6177C57.6177 71.0126 71.0126 57.6176 87.5 57.6176V56.6176ZM56.6177 87.5H55.6177C55.6177 105.092 69.908 119.382 87.5 119.382V118.382V117.382C71.0126 117.382 57.6177 103.987 57.6177 87.5H56.6177ZM87.5 118.382V119.382C105.092 119.382 119.382 105.092 119.382 87.5H118.382H117.382C117.382 103.987 103.987 117.382 87.5 117.382V118.382ZM118.382 87.5H119.382C119.382 69.9081 105.092 55.6176 87.5 55.6176V56.6176V57.6176C103.987 57.6176 117.382 71.0126 117.382 87.5H118.382Z" fill="#06202B" fill-opacity="0.3" mask="url(#path-18-inside-1_144_611)"/>
<mask id="path-20-inside-2_144_611" fill="white">
<path fill-rule="evenodd" clip-rule="evenodd" d="M87.4999 123.881C67.4551 123.881 51.1189 107.577 51.1189 87.5C51.1189 67.4552 67.4551 51.1189 87.4999 51.1189C107.577 51.1189 123.881 67.4552 123.881 87.5C123.881 107.577 107.577 123.881 87.4999 123.881ZM87.4999 51.9181C67.8707 51.9181 51.9181 67.8708 51.9181 87.5C51.9181 107.129 67.8707 123.114 87.4999 123.114C107.129 123.114 123.114 107.129 123.114 87.5C123.114 67.8708 107.129 51.9181 87.4999 51.9181Z"/>
</mask>
<path fill-rule="evenodd" clip-rule="evenodd" d="M87.4999 123.881C67.4551 123.881 51.1189 107.577 51.1189 87.5C51.1189 67.4552 67.4551 51.1189 87.4999 51.1189C107.577 51.1189 123.881 67.4552 123.881 87.5C123.881 107.577 107.577 123.881 87.4999 123.881ZM87.4999 51.9181C67.8707 51.9181 51.9181 67.8708 51.9181 87.5C51.9181 107.129 67.8707 123.114 87.4999 123.114C107.129 123.114 123.114 107.129 123.114 87.5C123.114 67.8708 107.129 51.9181 87.4999 51.9181Z" fill="#06202B" fill-opacity="0.3"/>
<path d="M87.4999 123.881V122.881C68.0069 122.881 52.1189 107.024 52.1189 87.5H51.1189H50.1189C50.1189 108.13 66.9034 124.881 87.4999 124.881V123.881ZM51.1189 87.5H52.1189C52.1189 68.0075 68.0074 52.1189 87.4999 52.1189V51.1189V50.1189C66.9029 50.1189 50.1189 66.903 50.1189 87.5H51.1189ZM87.4999 51.1189V52.1189C107.024 52.1189 122.881 68.007 122.881 87.5H123.881H124.881C124.881 66.9035 108.129 50.1189 87.4999 50.1189V51.1189ZM123.881 87.5H122.881C122.881 107.024 107.024 122.881 87.4999 122.881V123.881V124.881C108.129 124.881 124.881 108.129 124.881 87.5H123.881ZM87.4999 51.9181V50.9181C67.3185 50.9181 50.9181 67.3186 50.9181 87.5H51.9181H52.9181C52.9181 68.4231 68.423 52.9181 87.4999 52.9181V51.9181ZM51.9181 87.5H50.9181C50.9181 107.68 67.3173 124.114 87.4999 124.114V123.114V122.114C68.4242 122.114 52.9181 106.578 52.9181 87.5H51.9181ZM87.4999 123.114V124.114C107.681 124.114 124.114 107.681 124.114 87.5H123.114H122.114C122.114 106.577 106.577 122.114 87.4999 122.114V123.114ZM123.114 87.5H124.114C124.114 67.3174 107.68 50.9181 87.4999 50.9181V51.9181V52.9181C106.578 52.9181 122.114 68.4243 122.114 87.5H123.114Z" fill="#06202B" fill-opacity="0.3" mask="url(#path-20-inside-2_144_611)"/>
<mask id="path-22-inside-3_144_611" fill="white">
<path fill-rule="evenodd" clip-rule="evenodd" d="M87.5 129.092C64.578 129.092 45.908 110.454 45.908 87.5C45.908 64.578 64.578 45.9079 87.5 45.9079C110.454 45.9079 129.092 64.578 129.092 87.5C129.092 110.454 110.454 129.092 87.5 129.092ZM87.5 46.835C65.0575 46.835 46.835 65.0575 46.835 87.5C46.835 109.942 65.0575 128.197 87.5 128.197C109.942 128.197 128.197 109.942 128.197 87.5C128.197 65.0575 109.942 46.835 87.5 46.835Z"/>
</mask>
<path fill-rule="evenodd" clip-rule="evenodd" d="M87.5 129.092C64.578 129.092 45.908 110.454 45.908 87.5C45.908 64.578 64.578 45.9079 87.5 45.9079C110.454 45.9079 129.092 64.578 129.092 87.5C129.092 110.454 110.454 129.092 87.5 129.092ZM87.5 46.835C65.0575 46.835 46.835 65.0575 46.835 87.5C46.835 109.942 65.0575 128.197 87.5 128.197C109.942 128.197 128.197 109.942 128.197 87.5C128.197 65.0575 109.942 46.835 87.5 46.835Z" fill="#06202B" fill-opacity="0.3"/>
<path d="M87.5 129.092V128.092C65.1298 128.092 46.908 109.901 46.908 87.5H45.908H44.908C44.908 111.007 64.0262 130.092 87.5 130.092V129.092ZM45.908 87.5H46.908C46.908 65.1303 65.1303 46.9079 87.5 46.9079V45.9079V44.9079C64.0257 44.9079 44.908 64.0257 44.908 87.5H45.908ZM87.5 45.9079V46.9079C109.901 46.9079 128.092 65.1298 128.092 87.5H129.092H130.092C130.092 64.0262 111.007 44.9079 87.5 44.9079V45.9079ZM129.092 87.5H128.092C128.092 109.902 109.902 128.092 87.5 128.092V129.092V130.092C111.006 130.092 130.092 111.006 130.092 87.5H129.092ZM87.5 46.835V45.835C64.5052 45.835 45.835 64.5053 45.835 87.5H46.835H47.835C47.835 65.6098 65.6098 47.835 87.5 47.835V46.835ZM46.835 87.5H45.835C45.835 110.494 64.5042 129.197 87.5 129.197V128.197V127.197C65.6108 127.197 47.835 109.391 47.835 87.5H46.835ZM87.5 128.197V129.197C110.495 129.197 129.197 110.495 129.197 87.5H128.197H127.197C127.197 109.39 109.39 127.197 87.5 127.197V128.197ZM128.197 87.5H129.197C129.197 64.5042 110.494 45.835 87.5 45.835V46.835V47.835C109.391 47.835 127.197 65.6108 127.197 87.5H128.197Z" fill="#06202B" fill-opacity="0.3" mask="url(#path-22-inside-3_144_611)"/>
<mask id="path-24-inside-4_144_611" fill="white">
<path fill-rule="evenodd" clip-rule="evenodd" d="M87.5 114.194C72.7942 114.194 60.8057 102.238 60.8057 87.5C60.8057 72.7941 72.7942 60.8056 87.5 60.8056C102.238 60.8056 114.194 72.7941 114.194 87.5C114.194 102.238 102.238 114.194 87.5 114.194ZM87.5 61.3811C73.1138 61.3811 61.3811 73.1138 61.3811 87.5C61.3811 101.918 73.1138 113.619 87.5 113.619C101.918 113.619 113.619 101.918 113.619 87.5C113.619 73.1138 101.918 61.3811 87.5 61.3811Z"/>
</mask>
<path fill-rule="evenodd" clip-rule="evenodd" d="M87.5 114.194C72.7942 114.194 60.8057 102.238 60.8057 87.5C60.8057 72.7941 72.7942 60.8056 87.5 60.8056C102.238 60.8056 114.194 72.7941 114.194 87.5C114.194 102.238 102.238 114.194 87.5 114.194ZM87.5 61.3811C73.1138 61.3811 61.3811 73.1138 61.3811 87.5C61.3811 101.918 73.1138 113.619 87.5 113.619C101.918 113.619 113.619 101.918 113.619 87.5C113.619 73.1138 101.918 61.3811 87.5 61.3811Z" fill="#06202B" fill-opacity="0.3"/>
<path d="M87.5 114.194V113.194C73.3457 113.194 61.8057 101.685 61.8057 87.5H60.8057H59.8057C59.8057 102.791 72.2426 115.194 87.5 115.194V114.194ZM60.8057 87.5H61.8057C61.8057 73.3464 73.3464 61.8056 87.5 61.8056V60.8056V59.8056C72.2419 59.8056 59.8057 72.2418 59.8057 87.5H60.8057ZM87.5 60.8056V61.8056C101.685 61.8056 113.194 73.3456 113.194 87.5H114.194H115.194C115.194 72.2426 102.791 59.8056 87.5 59.8056V60.8056ZM114.194 87.5H113.194C113.194 101.686 101.686 113.194 87.5 113.194V114.194V115.194C102.79 115.194 115.194 102.79 115.194 87.5H114.194ZM87.5 61.3811V60.3811C72.5616 60.3811 60.3811 72.5615 60.3811 87.5H61.3811H62.3811C62.3811 73.6661 73.6661 62.3811 87.5 62.3811V61.3811ZM61.3811 87.5H60.3811C60.3811 102.471 72.5624 114.619 87.5 114.619V113.619V112.619C73.6653 112.619 62.3811 101.365 62.3811 87.5H61.3811ZM87.5 113.619V114.619C102.47 114.619 114.619 102.47 114.619 87.5H113.619H112.619C112.619 101.366 101.366 112.619 87.5 112.619V113.619ZM113.619 87.5H114.619C114.619 72.5623 102.471 60.3811 87.5 60.3811V61.3811V62.3811C101.365 62.3811 112.619 73.6653 112.619 87.5H113.619Z" fill="#06202B" fill-opacity="0.3" mask="url(#path-24-inside-4_144_611)"/>
<mask id="path-26-inside-5_144_611" fill="white">
<path fill-rule="evenodd" clip-rule="evenodd" d="M87.4999 109.143C75.5753 109.143 65.8887 99.4246 65.8887 87.5C65.8887 75.5755 75.5753 65.8887 87.4999 65.8887C99.4244 65.8887 109.143 75.5755 109.143 87.5C109.143 99.4246 99.4244 109.143 87.4999 109.143ZM87.4999 66.3683C75.8311 66.3683 66.3682 75.8312 66.3682 87.5C66.3682 99.1688 75.8311 108.664 87.4999 108.664C99.1687 108.664 108.664 99.1688 108.664 87.5C108.664 75.8312 99.1687 66.3683 87.4999 66.3683Z"/>
</mask>
<path fill-rule="evenodd" clip-rule="evenodd" d="M87.4999 109.143C75.5753 109.143 65.8887 99.4246 65.8887 87.5C65.8887 75.5755 75.5753 65.8887 87.4999 65.8887C99.4244 65.8887 109.143 75.5755 109.143 87.5C109.143 99.4246 99.4244 109.143 87.4999 109.143ZM87.4999 66.3683C75.8311 66.3683 66.3682 75.8312 66.3682 87.5C66.3682 99.1688 75.8311 108.664 87.4999 108.664C99.1687 108.664 108.664 99.1688 108.664 87.5C108.664 75.8312 99.1687 66.3683 87.4999 66.3683Z" fill="#06202B" fill-opacity="0.3"/>
<path d="M87.4999 109.143V108.143C76.1295 108.143 66.8887 98.8742 66.8887 87.5H65.8887H64.8887C64.8887 99.9749 75.0211 110.143 87.4999 110.143V109.143ZM65.8887 87.5H66.8887C66.8887 76.1277 76.1276 66.8887 87.4999 66.8887V65.8887V64.8887C75.023 64.8887 64.8887 75.0232 64.8887 87.5H65.8887ZM87.4999 65.8887V66.8887C98.8741 66.8887 108.143 76.1297 108.143 87.5H109.143H110.143C110.143 75.0213 99.9748 64.8887 87.4999 64.8887V65.8887ZM109.143 87.5H108.143C108.143 98.8723 98.8721 108.143 87.4999 108.143V109.143V110.143C99.9767 110.143 110.143 99.9768 110.143 87.5H109.143ZM87.4999 66.3683V65.3683C75.2788 65.3683 65.3682 75.2789 65.3682 87.5H66.3682H67.3682C67.3682 76.3835 76.3834 67.3683 87.4999 67.3683V66.3683ZM66.3682 87.5H65.3682C65.3682 99.7191 75.2768 109.664 87.4999 109.664V108.664V107.664C76.3853 107.664 67.3682 98.6185 67.3682 87.5H66.3682ZM87.4999 108.664V109.664C99.7209 109.664 109.664 99.7211 109.664 87.5H108.664H107.664C107.664 98.6165 98.6164 107.664 87.4999 107.664V108.664ZM108.664 87.5H109.664C109.664 75.277 99.719 65.3683 87.4999 65.3683V66.3683V67.3683C98.6184 67.3683 107.664 76.3855 107.664 87.5H108.664Z" fill="#06202B" fill-opacity="0.3" mask="url(#path-26-inside-5_144_611)"/>
<mask id="path-28-inside-6_144_611" fill="white">
<path fill-rule="evenodd" clip-rule="evenodd" d="M87.4999 106.17C77.2057 106.17 68.8618 97.7941 68.8618 87.5C68.8618 77.2059 77.2057 68.8619 87.4999 68.8619C97.794 68.8619 106.17 77.2059 106.17 87.5C106.17 97.7941 97.794 106.17 87.4999 106.17ZM87.4999 69.2455C77.4295 69.2455 69.2454 77.4297 69.2454 87.5C69.2454 97.5703 77.4295 105.754 87.4999 105.754C97.5702 105.754 105.754 97.5703 105.754 87.5C105.754 77.4297 97.5702 69.2455 87.4999 69.2455Z"/>
</mask>
<path fill-rule="evenodd" clip-rule="evenodd" d="M87.4999 106.17C77.2057 106.17 68.8618 97.7941 68.8618 87.5C68.8618 77.2059 77.2057 68.8619 87.4999 68.8619C97.794 68.8619 106.17 77.2059 106.17 87.5C106.17 97.7941 97.794 106.17 87.4999 106.17ZM87.4999 69.2455C77.4295 69.2455 69.2454 77.4297 69.2454 87.5C69.2454 97.5703 77.4295 105.754 87.4999 105.754C97.5702 105.754 105.754 97.5703 105.754 87.5C105.754 77.4297 97.5702 69.2455 87.4999 69.2455Z" fill="#06202B" fill-opacity="0.3"/>
<path d="M87.4999 106.17V105.17C77.7603 105.17 69.8618 97.2441 69.8618 87.5H68.8618H67.8618C67.8618 98.3442 76.6512 107.17 87.4999 107.17V106.17ZM68.8618 87.5H69.8618C69.8618 77.7582 77.758 69.8619 87.4999 69.8619V68.8619V67.8619C76.6535 67.8619 67.8618 76.6536 67.8618 87.5H68.8618ZM87.4999 68.8619V69.8619C97.2439 69.8619 105.17 77.7604 105.17 87.5H106.17H107.17C107.17 76.6514 98.344 67.8619 87.4999 67.8619V68.8619ZM106.17 87.5H105.17C105.17 97.2418 97.2417 105.17 87.4999 105.17V106.17V107.17C98.3462 107.17 107.17 98.3464 107.17 87.5H106.17ZM87.4999 69.2455V68.2455C76.8772 68.2455 68.2454 76.8774 68.2454 87.5H69.2454H70.2454C70.2454 77.9819 77.9818 70.2455 87.4999 70.2455V69.2455ZM69.2454 87.5H68.2454C68.2454 98.1226 76.8772 106.754 87.4999 106.754V105.754V104.754C77.9818 104.754 70.2454 97.018 70.2454 87.5H69.2454ZM87.4999 105.754V106.754C98.1225 106.754 106.754 98.1226 106.754 87.5H105.754H104.754C104.754 97.018 97.0179 104.754 87.4999 104.754V105.754ZM105.754 87.5H106.754C106.754 76.8774 98.1225 68.2455 87.4999 68.2455V69.2455V70.2455C97.0179 70.2455 104.754 77.982 104.754 87.5H105.754Z" fill="#06202B" fill-opacity="0.3" mask="url(#path-28-inside-6_144_611)"/>
<mask id="path-30-inside-7_144_611" fill="white">
<path fill-rule="evenodd" clip-rule="evenodd" d="M87.5 103.932C78.4527 103.932 71.0999 96.5473 71.0999 87.5C71.0999 78.4527 78.4527 71.0997 87.5 71.0997C96.5474 71.0997 103.932 78.4527 103.932 87.5C103.932 96.5473 96.5474 103.932 87.5 103.932ZM87.5 71.4514C78.6445 71.4514 71.4515 78.6445 71.4515 87.5C71.4515 96.3555 78.6445 103.549 87.5 103.549C96.3555 103.549 103.549 96.3555 103.549 87.5C103.549 78.6445 96.3555 71.4514 87.5 71.4514Z"/>
</mask>
<path fill-rule="evenodd" clip-rule="evenodd" d="M87.5 103.932C78.4527 103.932 71.0999 96.5473 71.0999 87.5C71.0999 78.4527 78.4527 71.0997 87.5 71.0997C96.5474 71.0997 103.932 78.4527 103.932 87.5C103.932 96.5473 96.5474 103.932 87.5 103.932ZM87.5 71.4514C78.6445 71.4514 71.4515 78.6445 71.4515 87.5C71.4515 96.3555 78.6445 103.549 87.5 103.549C96.3555 103.549 103.549 96.3555 103.549 87.5C103.549 78.6445 96.3555 71.4514 87.5 71.4514Z" fill="#06202B" fill-opacity="0.3"/>
<path d="M87.5 103.932V102.932C79.0076 102.932 72.0999 95.9976 72.0999 87.5H71.0999H70.0999C70.0999 97.0971 77.8979 104.932 87.5 104.932V103.932ZM71.0999 87.5H72.0999C72.0999 79.005 79.005 72.0997 87.5 72.0997V71.0997V70.0997C77.9004 70.0997 70.0999 77.9004 70.0999 87.5H71.0999ZM87.5 71.0997V72.0997C95.9976 72.0997 102.932 79.0075 102.932 87.5H103.932H104.932C104.932 77.8979 97.0971 70.0997 87.5 70.0997V71.0997ZM103.932 87.5H102.932C102.932 95.995 95.9951 102.932 87.5 102.932V103.932V104.932C97.0996 104.932 104.932 97.0996 104.932 87.5H103.932ZM87.5 71.4514V70.4514C78.0923 70.4514 70.4515 78.0922 70.4515 87.5H71.4515H72.4515C72.4515 79.1968 79.1968 72.4514 87.5 72.4514V71.4514ZM71.4515 87.5H70.4515C70.4515 96.9078 78.0923 104.549 87.5 104.549V103.549V102.549C79.1968 102.549 72.4515 95.8032 72.4515 87.5H71.4515ZM87.5 103.549V104.549C96.9078 104.549 104.549 96.9078 104.549 87.5H103.549H102.549C102.549 95.8032 95.8033 102.549 87.5 102.549V103.549ZM103.549 87.5H104.549C104.549 78.0922 96.9078 70.4514 87.5 70.4514V71.4514V72.4514C95.8033 72.4514 102.549 79.1968 102.549 87.5H103.549Z" fill="#06202B" fill-opacity="0.3" mask="url(#path-30-inside-7_144_611)"/>
<mask id="path-32-inside-8_144_611" fill="white">
<path fill-rule="evenodd" clip-rule="evenodd" d="M87.4999 100.128C80.5626 100.128 74.9041 94.4693 74.9041 87.5C74.9041 80.5627 80.5626 74.9041 87.4999 74.9041C94.4692 74.9041 100.128 80.5627 100.128 87.5C100.128 94.4693 94.4692 100.128 87.4999 100.128ZM87.4999 75.1598C80.7224 75.1598 75.1598 80.7225 75.1598 87.5C75.1598 94.3095 80.7224 99.8401 87.4999 99.8401C94.3094 99.8401 99.8401 94.3095 99.8401 87.5C99.8401 80.7225 94.3094 75.1598 87.4999 75.1598Z"/>
</mask>
<path fill-rule="evenodd" clip-rule="evenodd" d="M87.4999 100.128C80.5626 100.128 74.9041 94.4693 74.9041 87.5C74.9041 80.5627 80.5626 74.9041 87.4999 74.9041C94.4692 74.9041 100.128 80.5627 100.128 87.5C100.128 94.4693 94.4692 100.128 87.4999 100.128ZM87.4999 75.1598C80.7224 75.1598 75.1598 80.7225 75.1598 87.5C75.1598 94.3095 80.7224 99.8401 87.4999 99.8401C94.3094 99.8401 99.8401 94.3095 99.8401 87.5C99.8401 80.7225 94.3094 75.1598 87.4999 75.1598Z" fill="#06202B" fill-opacity="0.3"/>
<path d="M87.4999 100.128V99.1279C81.1165 99.1279 75.9041 93.9187 75.9041 87.5H74.9041H73.9041C73.9041 95.0199 80.0087 101.128 87.4999 101.128V100.128ZM74.9041 87.5H75.9041C75.9041 81.1149 81.1149 75.9041 87.4999 75.9041V74.9041V73.9041C80.0103 73.9041 73.9041 80.0104 73.9041 87.5H74.9041ZM87.4999 74.9041V75.9041C93.9186 75.9041 99.1278 81.1166 99.1278 87.5H100.128H101.128C101.128 80.0087 95.0199 73.9041 87.4999 73.9041V74.9041ZM100.128 87.5H99.1278C99.1278 93.917 93.9169 99.1279 87.4999 99.1279V100.128V101.128C95.0215 101.128 101.128 95.0216 101.128 87.5H100.128ZM87.4999 75.1598V74.1598C80.1701 74.1598 74.1598 80.1702 74.1598 87.5H75.1598H76.1598C76.1598 81.2748 81.2747 76.1598 87.4999 76.1598V75.1598ZM75.1598 87.5H74.1598C74.1598 94.8634 80.1718 100.84 87.4999 100.84V99.8401V98.8401C81.273 98.8401 76.1598 93.7555 76.1598 87.5H75.1598ZM87.4999 99.8401V100.84C94.8617 100.84 100.84 94.8617 100.84 87.5H99.8401H98.8401C98.8401 93.7572 93.7571 98.8401 87.4999 98.8401V99.8401ZM99.8401 87.5H100.84C100.84 80.1719 94.8634 74.1598 87.4999 74.1598V75.1598V76.1598C93.7554 76.1598 98.8401 81.2731 98.8401 87.5H99.8401Z" fill="#06202B" fill-opacity="0.3" mask="url(#path-32-inside-8_144_611)"/>
<mask id="path-34-inside-9_144_611" fill="white">
<path fill-rule="evenodd" clip-rule="evenodd" d="M87.5 98.0179C81.7136 98.0179 77.0142 93.2864 77.0142 87.5C77.0142 81.7136 81.7136 77.0141 87.5 77.0141C93.2865 77.0141 98.018 81.7136 98.018 87.5C98.018 93.2864 93.2865 98.0179 87.5 98.0179ZM87.5 77.2378C81.8415 77.2378 77.2379 81.8414 77.2379 87.5C77.2379 93.1586 81.8415 97.7941 87.5 97.7941C93.1586 97.7941 97.7942 93.1586 97.7942 87.5C97.7942 81.8414 93.1586 77.2378 87.5 77.2378Z"/>
</mask>
<path fill-rule="evenodd" clip-rule="evenodd" d="M87.5 98.0179C81.7136 98.0179 77.0142 93.2864 77.0142 87.5C77.0142 81.7136 81.7136 77.0141 87.5 77.0141C93.2865 77.0141 98.018 81.7136 98.018 87.5C98.018 93.2864 93.2865 98.0179 87.5 98.0179ZM87.5 77.2378C81.8415 77.2378 77.2379 81.8414 77.2379 87.5C77.2379 93.1586 81.8415 97.7941 87.5 97.7941C93.1586 97.7941 97.7942 93.1586 97.7942 87.5C97.7942 81.8414 93.1586 77.2378 87.5 77.2378Z" fill="#06202B" fill-opacity="0.3"/>
<path d="M87.5 98.0179V97.0179C82.2698 97.0179 78.0142 92.7381 78.0142 87.5H77.0142H76.0142C76.0142 93.8348 81.1573 99.0179 87.5 99.0179V98.0179ZM77.0142 87.5H78.0142C78.0142 82.2658 82.2659 78.0141 87.5 78.0141V77.0141V76.0141C81.1613 76.0141 76.0142 81.1613 76.0142 87.5H77.0142ZM87.5 77.0141V78.0141C92.7382 78.0141 97.018 82.2698 97.018 87.5H98.018H99.018C99.018 81.1573 93.8348 76.0141 87.5 76.0141V77.0141ZM98.018 87.5H97.018C97.018 92.7341 92.7342 97.0179 87.5 97.0179V98.0179V99.0179C93.8387 99.0179 99.018 93.8387 99.018 87.5H98.018ZM87.5 77.2378V76.2378C81.2892 76.2378 76.2379 81.2892 76.2379 87.5H77.2379H78.2379C78.2379 82.3937 82.3938 78.2378 87.5 78.2378V77.2378ZM77.2379 87.5H76.2379C76.2379 93.7068 81.2851 98.7941 87.5 98.7941V97.7941V96.7941C82.3978 96.7941 78.2379 92.6103 78.2379 87.5H77.2379ZM87.5 97.7941V98.7941C93.7109 98.7941 98.7942 93.7109 98.7942 87.5H97.7942H96.7942C96.7942 92.6063 92.6063 96.7941 87.5 96.7941V97.7941ZM97.7942 87.5H98.7942C98.7942 81.2851 93.7068 76.2378 87.5 76.2378V77.2378V78.2378C92.6104 78.2378 96.7942 82.3978 96.7942 87.5H97.7942Z" fill="#06202B" fill-opacity="0.3" mask="url(#path-34-inside-9_144_611)"/>
<mask id="path-36-inside-10_144_611" fill="white">
<path fill-rule="evenodd" clip-rule="evenodd" d="M87.5001 133.024C62.4042 133.024 42.0078 112.596 42.0078 87.5C42.0078 62.4041 62.4042 42.0077 87.5001 42.0077C112.596 42.0077 133.024 62.4041 133.024 87.5C133.024 112.596 112.596 133.024 87.5001 133.024ZM87.5001 42.9987C62.9476 42.9987 42.9988 62.9476 42.9988 87.5C42.9988 112.052 62.9476 132.033 87.5001 132.033C112.052 132.033 132.033 112.052 132.033 87.5C132.033 62.9476 112.052 42.9987 87.5001 42.9987Z"/>
</mask>
<path fill-rule="evenodd" clip-rule="evenodd" d="M87.5001 133.024C62.4042 133.024 42.0078 112.596 42.0078 87.5C42.0078 62.4041 62.4042 42.0077 87.5001 42.0077C112.596 42.0077 133.024 62.4041 133.024 87.5C133.024 112.596 112.596 133.024 87.5001 133.024ZM87.5001 42.9987C62.9476 42.9987 42.9988 62.9476 42.9988 87.5C42.9988 112.052 62.9476 132.033 87.5001 132.033C112.052 132.033 132.033 112.052 132.033 87.5C132.033 62.9476 112.052 42.9987 87.5001 42.9987Z" fill="#06202B" fill-opacity="0.3"/>
<path d="M87.5001 133.024V132.024C62.9574 132.024 43.0078 112.045 43.0078 87.5H42.0078H41.0078C41.0078 113.147 61.851 134.024 87.5001 134.024V133.024ZM42.0078 87.5H43.0078C43.0078 62.9564 62.9565 43.0077 87.5001 43.0077V42.0077V41.0077C61.8519 41.0077 41.0078 61.8518 41.0078 87.5H42.0078ZM87.5001 42.0077V43.0077C112.045 43.0077 132.024 62.9573 132.024 87.5H133.024H134.024C134.024 61.8509 113.147 41.0077 87.5001 41.0077V42.0077ZM133.024 87.5H132.024C132.024 112.044 112.044 132.024 87.5001 132.024V133.024V134.024C113.148 134.024 134.024 113.148 134.024 87.5H133.024ZM87.5001 42.9987V41.9987C62.3954 41.9987 41.9988 62.3953 41.9988 87.5H42.9988H43.9988C43.9988 63.4999 63.4999 43.9987 87.5001 43.9987V42.9987ZM42.9988 87.5H41.9988C41.9988 112.604 62.3944 133.033 87.5001 133.033V132.033V131.033C63.5009 131.033 43.9988 111.501 43.9988 87.5H42.9988ZM87.5001 132.033V133.033C112.605 133.033 133.033 112.605 133.033 87.5H132.033H131.033C131.033 111.5 111.5 131.033 87.5001 131.033V132.033ZM132.033 87.5H133.033C133.033 62.3943 112.604 41.9987 87.5001 41.9987V42.9987V43.9987C111.501 43.9987 131.033 63.5008 131.033 87.5H132.033Z" fill="#06202B" fill-opacity="0.3" mask="url(#path-36-inside-10_144_611)"/>
<path fill-rule="evenodd" clip-rule="evenodd" d="M87.5 137.244C60.0704 137.244 37.7559 114.93 37.7559 87.5C37.7559 60.0703 60.0704 37.7877 87.5 37.7877C114.93 37.7877 137.244 60.0703 137.244 87.5C137.244 114.93 114.93 137.244 87.5 137.244ZM87.5 38.8427C60.6778 38.8427 38.8428 60.6778 38.8428 87.5C38.8428 114.322 60.6778 136.157 87.5 136.157C114.322 136.157 136.157 114.322 136.157 87.5C136.157 60.6778 114.322 38.8427 87.5 38.8427Z" fill="#06202B" fill-opacity="0.3"/>
<path d="M87.5 38.2877C114.654 38.2877 136.744 60.3467 136.744 87.4996C136.744 114.653 114.654 136.744 87.5 136.744C60.3465 136.744 38.2559 114.653 38.2559 87.4996C38.256 60.3467 60.3462 38.2878 87.5 38.2877ZM87.5 38.3424C60.4017 38.3424 38.343 60.4014 38.3428 87.4996C38.3428 114.598 60.4016 136.657 87.5 136.657C114.598 136.657 136.657 114.598 136.657 87.4996C136.657 60.4014 114.598 38.3424 87.5 38.3424Z" stroke="#06202B" stroke-opacity="0.3"/>
<path fill-rule="evenodd" clip-rule="evenodd" d="M87.5 142.135C57.3849 142.135 32.8645 117.647 32.8645 87.5C32.8645 57.3849 57.3849 32.8645 87.5 32.8645C117.647 32.8645 142.136 57.3849 142.136 87.5C142.136 117.647 117.647 142.135 87.5 142.135ZM87.5 34.0793C58.0243 34.0793 34.0794 58.0243 34.0794 87.5C34.0794 116.976 58.0243 140.953 87.5 140.953C116.976 140.953 140.953 116.976 140.953 87.5C140.953 58.0243 116.976 34.0793 87.5 34.0793Z" fill="#06202B" fill-opacity="0.3"/>
<path d="M87.5002 33.3645C117.371 33.3646 141.636 57.6612 141.636 87.5002C141.636 117.371 117.371 141.636 87.5002 141.636C57.6612 141.636 33.3646 117.371 33.3645 87.5002C33.3645 57.6613 57.6613 33.3645 87.5002 33.3645ZM87.5002 33.5793C57.7484 33.5793 33.5793 57.7484 33.5793 87.5002C33.5795 117.252 57.7481 141.452 87.5002 141.452C117.252 141.452 141.452 117.252 141.452 87.5002C141.452 57.7481 117.252 33.5794 87.5002 33.5793Z" stroke="#06202B" stroke-opacity="0.3"/>
</svg>
