<?xml version="1.0" standalone="no"?>
<!DOCTYPE svg PUBLIC "-//W3C//DTD SVG 20010904//EN"
 "http://www.w3.org/TR/2001/REC-SVG-20010904/DTD/svg10.dtd">
<svg version="1.0" xmlns="http://www.w3.org/2000/svg"
 width="48.000000pt" height="48.000000pt" viewBox="0 0 48.000000 48.000000"
 preserveAspectRatio="xMidYMid meet">

<g transform="translate(0.000000,48.000000) scale(0.100000,-0.100000)"
fill="#000000" stroke="none">
<path d="M42 243 l3 -168 195 0 195 0 3 168 2 167 -200 0 -200 0 2 -167z m378
110 l0 -38 -89 -37 -89 -37 -91 37 -91 37 0 38 0 37 180 0 180 0 0 -37z m-310
-83 c22 -11 40 -24 40 -29 0 -4 -20 -22 -45 -40 l-45 -32 0 60 c0 34 2 61 5
61 3 0 24 -9 45 -20z m310 -51 l0 -50 -46 33 -46 33 38 17 c22 10 42 18 47 18
4 0 7 -23 7 -51z m-209 -3 c29 -12 39 -12 68 0 33 14 34 14 87 -32 85 -72 82
-74 -126 -74 -137 0 -180 3 -180 13 0 11 98 106 111 107 4 0 22 -6 40 -14z"/>
</g>
</svg>
