<?xml version="1.0" encoding="UTF-8" standalone="no"?>
<!-- Created with Inkscape (http://www.inkscape.org/) -->

<svg
   width="16.684155mm"
   height="14.438153mm"
   viewBox="0 0 16.684155 14.438153"
   version="1.1"
   id="svg1"
   xml:space="preserve"
   xmlns="http://www.w3.org/2000/svg"
   xmlns:svg="http://www.w3.org/2000/svg"><defs
     id="defs1" /><g
     id="layer1"
     transform="translate(102.91724,-66.28138)"
     style="display:inline"><g
       id="g2"><rect
         style="display:inline;fill:#ffffff;stroke-width:3.565;stroke-linejoin:round"
         id="rect2"
         width="13.425055"
         height="11.093003"
         x="-101.51717"
         y="67.987335" /><path
         d="m -101.70583,73.536528 0.10583,5.926666 h 6.879169 6.879167 l 0.105834,-5.926666 0.07055,-5.891389 h -7.055551 -7.055559 z m 13.335,-3.880556 v 1.340556 l -3.139723,1.305278 -3.139722,1.305277 -3.210278,-1.305277 -3.210277,-1.305278 v -1.340556 -1.305278 h 6.349999 6.350001 z m -10.936112,2.928056 c 0.776111,0.388055 1.411111,0.846666 1.411111,1.023055 0,0.141111 -0.705555,0.776111 -1.5875,1.411111 l -1.587499,1.128889 v -2.116666 c 0,-1.199445 0.0705,-2.151945 0.17639,-2.151945 0.10583,0 0.84666,0.3175 1.587498,0.705556 z m 10.936112,1.799166 v 1.763889 l -1.622778,-1.164166 -1.622778,-1.164167 1.340556,-0.599722 c 0.776111,-0.352778 1.481666,-0.635 1.658055,-0.635 0.141111,0 0.246945,0.811389 0.246945,1.799166 z m -7.373056,0.105834 c 1.023055,0.423333 1.375833,0.423333 2.398889,0 1.164167,-0.493889 1.199444,-0.493889 3.069167,1.128888 2.998611,2.54 2.892777,2.610556 -4.445001,2.610556 -4.833055,0 -6.349999,-0.105834 -6.349999,-0.458611 0,-0.388056 3.457222,-3.739444 3.915833,-3.774722 0.141111,0 0.776111,0.211667 1.411111,0.493889 z"
         id="path1"
         style="display:inline;fill:#000000;stroke:none;stroke-width:0.0352778" /></g></g></svg>
