<svg width="88" height="175" viewBox="0 0 88 175" fill="none" xmlns="http://www.w3.org/2000/svg">
<path fill-rule="evenodd" clip-rule="evenodd" d="M0.499874 147.283C-32.4605 147.283 -59.2827 120.46 -59.2827 87.5C-59.2827 54.5396 -32.4605 27.7174 0.499874 27.7174C33.4602 27.7174 60.2825 54.5396 60.2825 87.5C60.2825 120.46 33.4602 147.283 0.499874 147.283ZM0.499874 29.0281C-31.7252 29.0281 -57.9719 55.2749 -57.9719 87.5C-57.9719 119.757 -31.7252 146.004 0.499874 146.004C32.7569 146.004 58.9718 119.757 58.9718 87.5C58.9718 55.2749 32.7569 29.0281 0.499874 29.0281Z" fill="#06202B" fill-opacity="0.3"/>
<path d="M0.499512 28.2174C33.1836 28.2174 59.7825 54.8156 59.7827 87.4996C59.7827 120.184 33.1837 146.783 0.499512 146.783C-32.1845 146.783 -58.7827 120.184 -58.7827 87.4996C-58.7825 54.8157 -32.1844 28.2176 0.499512 28.2174ZM0.499512 28.528C-32.0014 28.5282 -58.472 54.9987 -58.4722 87.4996C-58.4722 120.032 -32.0017 146.503 0.499512 146.504C33.033 146.504 59.4722 120.032 59.4722 87.4996C59.472 54.9988 33.0327 28.528 0.499512 28.528Z" stroke="#06202B" stroke-opacity="0.3"/>
<path fill-rule="evenodd" clip-rule="evenodd" d="M0.499947 153.037C-35.6254 153.037 -65.0051 123.625 -65.0051 87.5C-65.0051 51.3747 -35.6254 21.9949 0.499947 21.9949C36.6253 21.9949 66.037 51.3747 66.037 87.5C66.037 123.625 36.6253 153.037 0.499947 153.037ZM0.499947 23.4335C-34.8261 23.4335 -63.5665 52.1739 -63.5665 87.5C-63.5665 122.858 -34.8261 151.598 0.499947 151.598C35.858 151.598 64.5984 122.858 64.5984 87.5C64.5984 52.1739 35.858 23.4335 0.499947 23.4335Z" fill="#06202B" fill-opacity="0.3"/>
<path d="M0.499756 22.4949C36.3492 22.4949 65.5367 51.651 65.5369 87.4998C65.5369 123.349 36.3489 152.537 0.499756 152.537C-35.349 152.537 -64.5051 123.349 -64.5051 87.4998C-64.505 51.6508 -35.3493 22.495 0.499756 22.4949ZM0.499756 22.9334C-35.1023 22.9335 -64.0665 51.8977 -64.0667 87.4998C-64.0667 123.134 -35.1025 152.098 0.499756 152.098C36.1339 152.098 65.0984 123.134 65.0984 87.4998C65.0983 51.8975 36.1337 22.9334 0.499756 22.9334Z" stroke="#06202B" stroke-opacity="0.3"/>
<path fill-rule="evenodd" clip-rule="evenodd" d="M0.500015 157.577C-18.202 157.577 -35.7851 150.288 -49.0204 137.052C-62.2557 123.817 -69.5447 106.234 -69.5447 87.5C-69.5447 68.798 -62.2557 51.2148 -49.0204 37.9795C-35.7851 24.7443 -18.202 17.4552 0.500015 17.4552C19.234 17.4552 36.8171 24.7443 50.0524 37.9795C63.2877 51.2148 70.5768 68.798 70.5768 87.5C70.5768 106.234 63.2877 123.817 50.0524 137.052C36.8171 150.288 19.234 157.577 0.500015 157.577ZM0.500015 18.9578C-37.2877 18.9578 -68.0421 49.7123 -68.0421 87.5C-68.0421 125.288 -37.2877 156.042 0.500015 156.042C38.2877 156.042 69.0422 125.288 69.0422 87.5C69.0422 49.7123 38.2877 18.9578 0.500015 18.9578Z" fill="#06202B" fill-opacity="0.3"/>
<path d="M0.500244 17.9552C19.1014 17.9553 36.557 25.1918 49.6985 38.3332C62.8401 51.4748 70.0764 68.9309 70.0764 87.5002C70.0764 106.101 62.84 123.557 49.6985 136.698C36.557 149.84 19.1015 157.076 0.500244 157.076C-18.069 157.076 -35.5251 149.84 -48.6667 136.698C-61.8082 123.557 -69.0446 106.101 -69.0447 87.5002C-69.0447 68.9309 -61.8084 51.4748 -48.6667 38.3332C-35.5251 25.1915 -18.069 17.9552 0.500244 17.9552ZM0.500244 18.4582C-37.5636 18.4582 -68.5417 49.4363 -68.5417 87.5002C-68.5417 125.564 -37.5636 156.542 0.500244 156.542C38.5639 156.542 69.5422 125.564 69.5422 87.5002C69.5422 49.4364 38.564 18.4583 0.500244 18.4582Z" stroke="#06202B" stroke-opacity="0.3"/>
<path fill-rule="evenodd" clip-rule="evenodd" d="M0.500061 162.308C-19.4808 162.308 -38.2787 154.54 -52.4091 140.409C-66.5396 126.279 -74.3081 107.481 -74.3081 87.5C-74.3081 67.5192 -66.5396 48.7212 -52.4091 34.5908C-38.2787 20.4604 -19.4808 12.6918 0.500061 12.6918C20.4809 12.6918 39.2788 20.4604 53.4093 34.5908C67.5397 48.7212 75.3082 67.5192 75.3082 87.5C75.3082 107.481 67.5397 126.279 53.4093 140.409C39.2788 154.54 20.4809 162.308 0.500061 162.308ZM0.500061 14.3223C-39.8452 14.3223 -72.6776 47.1547 -72.6776 87.5C-72.6776 127.877 -39.8452 160.71 0.500061 160.71C40.8773 160.71 73.6778 127.877 73.6778 87.5C73.6778 47.1547 40.8773 14.3223 0.500061 14.3223Z" fill="#06202B" fill-opacity="0.3"/>
<path d="M0.500488 13.1918C20.3488 13.1919 39.0198 20.9084 53.0562 34.9448C67.0923 48.9812 74.8081 67.6521 74.8081 87.5004C74.808 107.349 67.0925 126.02 53.0562 140.056C39.0198 154.092 20.3488 161.808 0.500488 161.808C-19.3478 161.808 -38.0188 154.092 -52.0552 140.056C-66.0915 126.02 -73.808 107.349 -73.8081 87.5004C-73.8081 67.6519 -66.0916 48.9812 -52.0552 34.9448C-38.0187 20.9083 -19.348 13.1918 0.500488 13.1918ZM0.500488 13.8227C-40.1209 13.8227 -73.1772 46.879 -73.1772 87.5004C-73.177 128.153 -40.1209 161.209 0.500488 161.209C41.1538 161.209 74.178 128.153 74.1782 87.5004C74.1782 46.8793 41.1538 13.8229 0.500488 13.8227Z" stroke="#06202B" stroke-opacity="0.3"/>
<path fill-rule="evenodd" clip-rule="evenodd" d="M0.49987 167.519C-20.8556 167.519 -40.9643 159.207 -56.0538 144.086C-71.1753 128.964 -79.4873 108.887 -79.4873 87.5C-79.4873 66.1445 -71.1753 46.0358 -56.0538 30.9463C-40.9643 15.8248 -20.8556 7.51279 0.49987 7.51279C21.8873 7.51279 41.9641 15.8248 57.0855 30.9463C72.207 46.0358 80.5191 66.1445 80.5191 87.5C80.5191 108.887 72.207 128.964 57.0855 144.086C41.9641 159.207 21.8873 167.519 0.49987 167.519ZM0.49987 9.23914C-42.6587 9.23914 -77.7609 44.3414 -77.7609 87.5C-77.7609 130.659 -42.6587 165.761 0.49987 165.761C43.6584 165.761 78.7608 130.659 78.7608 87.5C78.7608 44.3414 43.6584 9.23914 0.49987 9.23914Z" fill="#06202B" fill-opacity="0.3"/>
<path d="M0.5 8.01279C21.4229 8.01282 41.081 16.0162 56.0244 30.6007L56.7324 31.2999C71.7596 46.2953 80.0195 66.2769 80.0195 87.5001C80.0195 108.755 71.76 128.705 56.7324 143.733C41.7048 158.76 21.7549 167.02 0.5 167.02C-20.3916 167.02 -40.0796 159.016 -54.9932 144.432L-55.7002 143.733L-56.3994 143.025C-70.9839 128.081 -78.9873 108.423 -78.9873 87.5001C-78.9873 66.6087 -70.9841 46.9205 -56.4004 32.0069L-55.7002 31.2999C-40.7048 16.2727 -20.7232 8.01279 0.5 8.01279ZM0.5 8.73935C-42.9347 8.73935 -78.2607 44.0654 -78.2607 87.5001C-78.2607 130.935 -42.9347 166.261 0.5 166.261C43.9346 166.261 79.2607 130.935 79.2607 87.5001C79.2607 44.0654 43.9346 8.73942 0.5 8.73935Z" stroke="#06202B" stroke-opacity="0.3"/>
<path fill-rule="evenodd" clip-rule="evenodd" d="M0.499992 171.292C-21.8785 171.292 -42.9143 162.596 -58.7391 146.771C-74.5639 130.946 -83.2915 109.879 -83.2915 87.5C-83.2915 65.1215 -74.5639 44.0857 -58.7391 28.2609C-42.9143 12.4361 -21.8785 3.70844 0.499992 3.70844C22.8785 3.70844 43.9463 12.4361 59.7711 28.2609C75.5959 44.0857 84.2916 65.1215 84.2916 87.5C84.2916 109.879 75.5959 130.946 59.7711 146.771C43.9463 162.596 22.8785 171.292 0.499992 171.292ZM0.499992 5.53071C-44.7046 5.53071 -81.4693 42.2954 -81.4693 87.5C-81.4693 132.705 -44.7046 169.469 0.499992 169.469C45.7046 169.469 82.4693 132.705 82.4693 87.5C82.4693 42.2954 45.7046 5.53071 0.499992 5.53071Z" fill="#06202B" fill-opacity="0.3"/>
<path d="M0.499512 4.20844C22.7454 4.20844 43.6864 12.8836 59.4175 28.6147C75.1483 44.3455 83.7915 65.2543 83.7915 87.5004C83.7914 109.747 75.1481 130.687 59.4175 146.417C43.6868 162.148 22.7459 170.791 0.499512 170.791C-21.7464 170.791 -42.6545 162.148 -58.3853 146.417C-74.1162 130.686 -82.7914 109.746 -82.7915 87.5004C-82.7915 65.2547 -74.1164 44.3459 -58.3853 28.6147C-42.6542 12.8836 -21.746 4.20856 0.499512 4.20844ZM0.499512 5.0307C-44.981 5.03096 -81.9692 42.0199 -81.9692 87.5004C-81.969 132.981 -44.9809 169.969 0.499512 169.969C45.9801 169.969 82.969 132.981 82.9692 87.5004C82.9692 42.0197 45.9803 5.0307 0.499512 5.0307Z" stroke="#06202B" stroke-opacity="0.3"/>
<path fill-rule="evenodd" clip-rule="evenodd" d="M0.499962 175C-22.8696 175 -44.8325 165.921 -61.3606 149.393C-77.8888 132.864 -87 110.87 -87 87.5C-87 64.1304 -77.8888 42.1675 -61.3606 25.6394C-44.8325 9.11127 -22.8696 0 0.499962 0C23.8695 0 45.8644 9.11127 62.3925 25.6394C78.9207 42.1675 88 64.1304 88 87.5C88 110.87 78.9207 132.864 62.3925 149.393C45.8644 165.921 23.8695 175 0.499962 175ZM0.499962 1.91816C-46.6867 1.91816 -85.0818 40.3133 -85.0818 87.5C-85.0818 134.719 -46.6867 173.114 0.499962 173.114C47.7186 173.114 86.1138 134.719 86.1138 87.5C86.1138 40.3133 47.7186 1.91816 0.499962 1.91816Z" fill="#06202B" fill-opacity="0.3"/>
<path d="M0.5 0.5C23.7369 0.50001 45.6047 9.5588 62.0391 25.9932C78.4732 42.4273 87.5 64.2629 87.5 87.5C87.5 110.737 78.4731 132.605 62.0391 149.039C45.605 165.473 23.7374 174.5 0.5 174.5C-22.7371 174.5 -44.5727 165.473 -61.0068 149.039C-77.4412 132.605 -86.5 110.737 -86.5 87.5C-86.5 64.2633 -77.4414 42.4277 -61.0068 25.9932C-44.5723 9.55866 -22.7367 0.5 0.5 0.5ZM0.5 1.41797C-46.9628 1.41797 -85.582 40.0372 -85.582 87.5C-85.582 134.995 -46.963 173.614 0.5 173.614C47.9948 173.614 86.6143 134.995 86.6143 87.5C86.6143 40.0371 47.9947 1.41799 0.5 1.41797Z" stroke="#06202B" stroke-opacity="0.3"/>
<mask id="path-15-inside-1_57_4189" fill="white">
<path fill-rule="evenodd" clip-rule="evenodd" d="M0.499973 119.086C-16.8913 119.086 -31.0537 104.923 -31.0537 87.5C-31.0537 70.1087 -16.8913 55.9463 0.499973 55.9463C17.9232 55.9463 32.0857 70.1087 32.0857 87.5C32.0857 104.923 17.9232 119.086 0.499973 119.086ZM0.499973 56.6176C-16.5397 56.6176 -30.3823 70.4604 -30.3823 87.5C-30.3823 104.54 -16.5397 118.382 0.499973 118.382C17.5396 118.382 31.3823 104.54 31.3823 87.5C31.3823 70.4604 17.5396 56.6176 0.499973 56.6176Z"/>
</mask>
<path fill-rule="evenodd" clip-rule="evenodd" d="M0.499973 119.086C-16.8913 119.086 -31.0537 104.923 -31.0537 87.5C-31.0537 70.1087 -16.8913 55.9463 0.499973 55.9463C17.9232 55.9463 32.0857 70.1087 32.0857 87.5C32.0857 104.923 17.9232 119.086 0.499973 119.086ZM0.499973 56.6176C-16.5397 56.6176 -30.3823 70.4604 -30.3823 87.5C-30.3823 104.54 -16.5397 118.382 0.499973 118.382C17.5396 118.382 31.3823 104.54 31.3823 87.5C31.3823 70.4604 17.5396 56.6176 0.499973 56.6176Z" fill="#06202B" fill-opacity="0.3"/>
<path d="M0.499973 119.086V118.086C-16.3384 118.086 -30.0537 104.372 -30.0537 87.5H-31.0537H-32.0537C-32.0537 105.475 -17.4443 120.086 0.499973 120.086V119.086ZM-31.0537 87.5H-30.0537C-30.0537 70.661 -16.339 56.9463 0.499973 56.9463V55.9463V54.9463C-17.4436 54.9463 -32.0537 69.5564 -32.0537 87.5H-31.0537ZM0.499973 55.9463V56.9463C17.3716 56.9463 31.0857 70.6617 31.0857 87.5H32.0857H33.0857C33.0857 69.5558 18.4749 54.9463 0.499973 54.9463V55.9463ZM32.0857 87.5H31.0857C31.0857 104.371 17.371 118.086 0.499973 118.086V119.086V120.086C18.4755 120.086 33.0857 105.476 33.0857 87.5H32.0857ZM0.499973 56.6176V55.6176C-17.092 55.6176 -31.3823 69.9081 -31.3823 87.5H-30.3823H-29.3823C-29.3823 71.0127 -15.9874 57.6176 0.499973 57.6176V56.6176ZM-30.3823 87.5H-31.3823C-31.3823 105.092 -17.092 119.382 0.499973 119.382V118.382V117.382C-15.9874 117.382 -29.3823 103.987 -29.3823 87.5H-30.3823ZM0.499973 118.382V119.382C18.0919 119.382 32.3823 105.092 32.3823 87.5H31.3823H30.3823C30.3823 103.987 16.9873 117.382 0.499973 117.382V118.382ZM31.3823 87.5H32.3823C32.3823 69.9081 18.0919 55.6176 0.499973 55.6176V56.6176V57.6176C16.9873 57.6176 30.3823 71.0127 30.3823 87.5H31.3823Z" fill="#06202B" fill-opacity="0.3" mask="url(#path-15-inside-1_57_4189)"/>
<mask id="path-17-inside-2_57_4189" fill="white">
<path fill-rule="evenodd" clip-rule="evenodd" d="M0.499901 123.881C-19.5449 123.881 -35.8811 107.577 -35.8811 87.5C-35.8811 67.4553 -19.5449 51.1189 0.499901 51.1189C20.5766 51.1189 36.881 67.4553 36.881 87.5C36.881 107.577 20.5766 123.881 0.499901 123.881ZM0.499901 51.9182C-19.1293 51.9182 -35.0819 67.8709 -35.0819 87.5C-35.0819 107.129 -19.1293 123.114 0.499901 123.114C20.1291 123.114 36.1138 107.129 36.1138 87.5C36.1138 67.8709 20.1291 51.9182 0.499901 51.9182Z"/>
</mask>
<path fill-rule="evenodd" clip-rule="evenodd" d="M0.499901 123.881C-19.5449 123.881 -35.8811 107.577 -35.8811 87.5C-35.8811 67.4553 -19.5449 51.1189 0.499901 51.1189C20.5766 51.1189 36.881 67.4553 36.881 87.5C36.881 107.577 20.5766 123.881 0.499901 123.881ZM0.499901 51.9182C-19.1293 51.9182 -35.0819 67.8709 -35.0819 87.5C-35.0819 107.129 -19.1293 123.114 0.499901 123.114C20.1291 123.114 36.1138 107.129 36.1138 87.5C36.1138 67.8709 20.1291 51.9182 0.499901 51.9182Z" fill="#06202B" fill-opacity="0.3"/>
<path d="M0.499901 123.881V122.881C-18.9931 122.881 -34.8811 107.024 -34.8811 87.5H-35.8811H-36.8811C-36.8811 108.13 -20.0966 124.881 0.499901 124.881V123.881ZM-35.8811 87.5H-34.8811C-34.8811 68.0075 -18.9926 52.1189 0.499901 52.1189V51.1189V50.1189C-20.0971 50.1189 -36.8811 66.903 -36.8811 87.5H-35.8811ZM0.499901 51.1189V52.1189C20.0238 52.1189 35.881 68.007 35.881 87.5H36.881H37.881C37.881 66.9035 21.1295 50.1189 0.499901 50.1189V51.1189ZM36.881 87.5H35.881C35.881 107.024 20.0243 122.881 0.499901 122.881V123.881V124.881C21.1289 124.881 37.881 108.129 37.881 87.5H36.881ZM0.499901 51.9182V50.9182C-19.6815 50.9182 -36.0819 67.3186 -36.0819 87.5H-35.0819H-34.0819C-34.0819 68.4231 -18.577 52.9182 0.499901 52.9182V51.9182ZM-35.0819 87.5H-36.0819C-36.0819 107.68 -19.6827 124.114 0.499901 124.114V123.114V122.114C-18.5758 122.114 -34.0819 106.578 -34.0819 87.5H-35.0819ZM0.499901 123.114V124.114C20.6813 124.114 37.1138 107.681 37.1138 87.5H36.1138H35.1138C35.1138 106.577 19.5768 122.114 0.499901 122.114V123.114ZM36.1138 87.5H37.1138C37.1138 67.3174 20.6802 50.9182 0.499901 50.9182V51.9182V52.9182C19.5779 52.9182 35.1138 68.4243 35.1138 87.5H36.1138Z" fill="#06202B" fill-opacity="0.3" mask="url(#path-17-inside-2_57_4189)"/>
<mask id="path-19-inside-3_57_4189" fill="white">
<path fill-rule="evenodd" clip-rule="evenodd" d="M0.499969 129.092C-22.422 129.092 -41.092 110.454 -41.092 87.5C-41.092 64.578 -22.422 45.9079 0.499969 45.9079C23.4539 45.9079 42.0921 64.578 42.0921 87.5C42.0921 110.454 23.4539 129.092 0.499969 129.092ZM0.499969 46.835C-21.9425 46.835 -40.165 65.0575 -40.165 87.5C-40.165 109.942 -21.9425 128.197 0.499969 128.197C22.9424 128.197 41.1969 109.942 41.1969 87.5C41.1969 65.0575 22.9424 46.835 0.499969 46.835Z"/>
</mask>
<path fill-rule="evenodd" clip-rule="evenodd" d="M0.499969 129.092C-22.422 129.092 -41.092 110.454 -41.092 87.5C-41.092 64.578 -22.422 45.9079 0.499969 45.9079C23.4539 45.9079 42.0921 64.578 42.0921 87.5C42.0921 110.454 23.4539 129.092 0.499969 129.092ZM0.499969 46.835C-21.9425 46.835 -40.165 65.0575 -40.165 87.5C-40.165 109.942 -21.9425 128.197 0.499969 128.197C22.9424 128.197 41.1969 109.942 41.1969 87.5C41.1969 65.0575 22.9424 46.835 0.499969 46.835Z" fill="#06202B" fill-opacity="0.3"/>
<path d="M0.499969 129.092V128.092C-21.8702 128.092 -40.092 109.901 -40.092 87.5H-41.092H-42.092C-42.092 111.007 -22.9738 130.092 0.499969 130.092V129.092ZM-41.092 87.5H-40.092C-40.092 65.1303 -21.8697 46.9079 0.499969 46.9079V45.9079V44.9079C-22.9743 44.9079 -42.092 64.0257 -42.092 87.5H-41.092ZM0.499969 45.9079V46.9079C22.9011 46.9079 41.0921 65.1298 41.0921 87.5H42.0921H43.0921C43.0921 64.0262 24.0067 44.9079 0.499969 44.9079V45.9079ZM42.0921 87.5H41.0921C41.0921 109.902 22.9016 128.092 0.499969 128.092V129.092V130.092C24.0062 130.092 43.0921 111.006 43.0921 87.5H42.0921ZM0.499969 46.835V45.835C-22.4948 45.835 -41.165 64.5053 -41.165 87.5H-40.165H-39.165C-39.165 65.6098 -21.3902 47.835 0.499969 47.835V46.835ZM-40.165 87.5H-41.165C-41.165 110.494 -22.4958 129.197 0.499969 129.197V128.197V127.197C-21.3892 127.197 -39.165 109.391 -39.165 87.5H-40.165ZM0.499969 128.197V129.197C23.4947 129.197 42.1969 110.495 42.1969 87.5H41.1969H40.1969C40.1969 109.39 22.3901 127.197 0.499969 127.197V128.197ZM41.1969 87.5H42.1969C42.1969 64.5042 23.4937 45.835 0.499969 45.835V46.835V47.835C22.3912 47.835 40.1969 65.6108 40.1969 87.5H41.1969Z" fill="#06202B" fill-opacity="0.3" mask="url(#path-19-inside-3_57_4189)"/>
<mask id="path-21-inside-4_57_4189" fill="white">
<path fill-rule="evenodd" clip-rule="evenodd" d="M0.500029 114.194C-14.2058 114.194 -26.1943 102.238 -26.1943 87.5C-26.1943 72.7941 -14.2058 60.8056 0.500029 60.8056C15.2379 60.8056 27.1944 72.7941 27.1944 87.5C27.1944 102.238 15.2379 114.194 0.500029 114.194ZM0.500029 61.3811C-13.8862 61.3811 -25.6189 73.1138 -25.6189 87.5C-25.6189 101.918 -13.8862 113.619 0.500029 113.619C14.9182 113.619 26.619 101.918 26.619 87.5C26.619 73.1138 14.9182 61.3811 0.500029 61.3811Z"/>
</mask>
<path fill-rule="evenodd" clip-rule="evenodd" d="M0.500029 114.194C-14.2058 114.194 -26.1943 102.238 -26.1943 87.5C-26.1943 72.7941 -14.2058 60.8056 0.500029 60.8056C15.2379 60.8056 27.1944 72.7941 27.1944 87.5C27.1944 102.238 15.2379 114.194 0.500029 114.194ZM0.500029 61.3811C-13.8862 61.3811 -25.6189 73.1138 -25.6189 87.5C-25.6189 101.918 -13.8862 113.619 0.500029 113.619C14.9182 113.619 26.619 101.918 26.619 87.5C26.619 73.1138 14.9182 61.3811 0.500029 61.3811Z" fill="#06202B" fill-opacity="0.3"/>
<path d="M0.500029 114.194V113.194C-13.6543 113.194 -25.1943 101.685 -25.1943 87.5H-26.1943H-27.1943C-27.1943 102.791 -14.7574 115.194 0.500029 115.194V114.194ZM-26.1943 87.5H-25.1943C-25.1943 73.3464 -13.6536 61.8056 0.500029 61.8056V60.8056V59.8056C-14.7581 59.8056 -27.1943 72.2418 -27.1943 87.5H-26.1943ZM0.500029 60.8056V61.8056C14.6848 61.8056 26.1944 73.3456 26.1944 87.5H27.1944H28.1944C28.1944 72.2426 15.7909 59.8056 0.500029 59.8056V60.8056ZM27.1944 87.5H26.1944C26.1944 101.686 14.6856 113.194 0.500029 113.194V114.194V115.194C15.7902 115.194 28.1944 102.79 28.1944 87.5H27.1944ZM0.500029 61.3811V60.3811C-14.4384 60.3811 -26.6189 72.5615 -26.6189 87.5H-25.6189H-24.6189C-24.6189 73.6661 -13.3339 62.3811 0.500029 62.3811V61.3811ZM-25.6189 87.5H-26.6189C-26.6189 102.471 -14.4376 114.619 0.500029 114.619V113.619V112.619C-13.3347 112.619 -24.6189 101.365 -24.6189 87.5H-25.6189ZM0.500029 113.619V114.619C15.4705 114.619 27.619 102.47 27.619 87.5H26.619H25.619C25.619 101.366 14.3659 112.619 0.500029 112.619V113.619ZM26.619 87.5H27.619C27.619 72.5623 15.4713 60.3811 0.500029 60.3811V61.3811V62.3811C14.3651 62.3811 25.619 73.6653 25.619 87.5H26.619Z" fill="#06202B" fill-opacity="0.3" mask="url(#path-21-inside-4_57_4189)"/>
<mask id="path-23-inside-5_57_4189" fill="white">
<path fill-rule="evenodd" clip-rule="evenodd" d="M0.499872 109.143C-11.4247 109.143 -21.1113 99.4246 -21.1113 87.5C-21.1113 75.5755 -11.4247 65.8887 0.499872 65.8887C12.4244 65.8887 22.1432 75.5755 22.1432 87.5C22.1432 99.4246 12.4244 109.143 0.499872 109.143ZM0.499872 66.3683C-11.1689 66.3683 -20.6318 75.8312 -20.6318 87.5C-20.6318 99.1688 -11.1689 108.664 0.499872 108.664C12.1687 108.664 21.6636 99.1688 21.6636 87.5C21.6636 75.8312 12.1687 66.3683 0.499872 66.3683Z"/>
</mask>
<path fill-rule="evenodd" clip-rule="evenodd" d="M0.499872 109.143C-11.4247 109.143 -21.1113 99.4246 -21.1113 87.5C-21.1113 75.5755 -11.4247 65.8887 0.499872 65.8887C12.4244 65.8887 22.1432 75.5755 22.1432 87.5C22.1432 99.4246 12.4244 109.143 0.499872 109.143ZM0.499872 66.3683C-11.1689 66.3683 -20.6318 75.8312 -20.6318 87.5C-20.6318 99.1688 -11.1689 108.664 0.499872 108.664C12.1687 108.664 21.6636 99.1688 21.6636 87.5C21.6636 75.8312 12.1687 66.3683 0.499872 66.3683Z" fill="#06202B" fill-opacity="0.3"/>
<path d="M0.499872 109.143V108.143C-10.8705 108.143 -20.1113 98.8742 -20.1113 87.5H-21.1113H-22.1113C-22.1113 99.9749 -11.9789 110.143 0.499872 110.143V109.143ZM-21.1113 87.5H-20.1113C-20.1113 76.1277 -10.8724 66.8887 0.499872 66.8887V65.8887V64.8887C-11.977 64.8887 -22.1113 75.0232 -22.1113 87.5H-21.1113ZM0.499872 65.8887V66.8887C11.8741 66.8887 21.1432 76.1297 21.1432 87.5H22.1432H23.1432C23.1432 75.0213 12.9748 64.8887 0.499872 64.8887V65.8887ZM22.1432 87.5H21.1432C21.1432 98.8723 11.8721 108.143 0.499872 108.143V109.143V110.143C12.9767 110.143 23.1432 99.9768 23.1432 87.5H22.1432ZM0.499872 66.3683V65.3683C-11.7212 65.3683 -21.6318 75.2789 -21.6318 87.5H-20.6318H-19.6318C-19.6318 76.3835 -10.6166 67.3683 0.499872 67.3683V66.3683ZM-20.6318 87.5H-21.6318C-21.6318 99.7191 -11.7232 109.664 0.499872 109.664V108.664V107.664C-10.6147 107.664 -19.6318 98.6185 -19.6318 87.5H-20.6318ZM0.499872 108.664V109.664C12.7209 109.664 22.6636 99.7211 22.6636 87.5H21.6636H20.6636C20.6636 98.6165 11.6164 107.664 0.499872 107.664V108.664ZM21.6636 87.5H22.6636C22.6636 75.277 12.719 65.3683 0.499872 65.3683V66.3683V67.3683C11.6184 67.3683 20.6636 76.3855 20.6636 87.5H21.6636Z" fill="#06202B" fill-opacity="0.3" mask="url(#path-23-inside-5_57_4189)"/>
<mask id="path-25-inside-6_57_4189" fill="white">
<path fill-rule="evenodd" clip-rule="evenodd" d="M0.499855 106.17C-9.79426 106.17 -18.1382 97.7941 -18.1382 87.5C-18.1382 77.2059 -9.79426 68.8619 0.499855 68.8619C10.794 68.8619 19.17 77.2059 19.17 87.5C19.17 97.7941 10.794 106.17 0.499855 106.17ZM0.499855 69.2455C-9.57047 69.2455 -17.7546 77.4297 -17.7546 87.5C-17.7546 97.5703 -9.57047 105.754 0.499855 105.754C10.5702 105.754 18.7544 97.5703 18.7544 87.5C18.7544 77.4297 10.5702 69.2455 0.499855 69.2455Z"/>
</mask>
<path fill-rule="evenodd" clip-rule="evenodd" d="M0.499855 106.17C-9.79426 106.17 -18.1382 97.7941 -18.1382 87.5C-18.1382 77.2059 -9.79426 68.8619 0.499855 68.8619C10.794 68.8619 19.17 77.2059 19.17 87.5C19.17 97.7941 10.794 106.17 0.499855 106.17ZM0.499855 69.2455C-9.57047 69.2455 -17.7546 77.4297 -17.7546 87.5C-17.7546 97.5703 -9.57047 105.754 0.499855 105.754C10.5702 105.754 18.7544 97.5703 18.7544 87.5C18.7544 77.4297 10.5702 69.2455 0.499855 69.2455Z" fill="#06202B" fill-opacity="0.3"/>
<path d="M0.499855 106.17V105.17C-9.23974 105.17 -17.1382 97.2441 -17.1382 87.5H-18.1382H-19.1382C-19.1382 98.3442 -10.3488 107.17 0.499855 107.17V106.17ZM-18.1382 87.5H-17.1382C-17.1382 77.7582 -9.24197 69.8619 0.499855 69.8619V68.8619V67.8619C-10.3465 67.8619 -19.1382 76.6536 -19.1382 87.5H-18.1382ZM0.499855 68.8619V69.8619C10.2439 69.8619 18.17 77.7604 18.17 87.5H19.17H20.17C20.17 76.6514 11.344 67.8619 0.499855 67.8619V68.8619ZM19.17 87.5H18.17C18.17 97.2418 10.2417 105.17 0.499855 105.17V106.17V107.17C11.3463 107.17 20.17 98.3464 20.17 87.5H19.17ZM0.499855 69.2455V68.2455C-10.1228 68.2455 -18.7546 76.8774 -18.7546 87.5H-17.7546H-16.7546C-16.7546 77.9819 -9.01818 70.2455 0.499855 70.2455V69.2455ZM-17.7546 87.5H-18.7546C-18.7546 98.1226 -10.1228 106.754 0.499855 106.754V105.754V104.754C-9.01819 104.754 -16.7546 97.018 -16.7546 87.5H-17.7546ZM0.499855 105.754V106.754C11.1225 106.754 19.7544 98.1226 19.7544 87.5H18.7544H17.7544C17.7544 97.018 10.0179 104.754 0.499855 104.754V105.754ZM18.7544 87.5H19.7544C19.7544 76.8774 11.1225 68.2455 0.499855 68.2455V69.2455V70.2455C10.0179 70.2455 17.7544 77.9819 17.7544 87.5H18.7544Z" fill="#06202B" fill-opacity="0.3" mask="url(#path-25-inside-6_57_4189)"/>
<mask id="path-27-inside-7_57_4189" fill="white">
<path fill-rule="evenodd" clip-rule="evenodd" d="M0.500042 103.932C-8.54727 103.932 -15.9001 96.5473 -15.9001 87.5C-15.9001 78.4527 -8.54727 71.0997 0.500042 71.0997C9.54735 71.0997 16.9323 78.4527 16.9323 87.5C16.9323 96.5473 9.54735 103.932 0.500042 103.932ZM0.500042 71.4514C-8.35545 71.4514 -15.5485 78.6445 -15.5485 87.5C-15.5485 96.3555 -8.35545 103.549 0.500042 103.549C9.35554 103.549 16.5487 96.3555 16.5487 87.5C16.5487 78.6445 9.35554 71.4514 0.500042 71.4514Z"/>
</mask>
<path fill-rule="evenodd" clip-rule="evenodd" d="M0.500042 103.932C-8.54727 103.932 -15.9001 96.5473 -15.9001 87.5C-15.9001 78.4527 -8.54727 71.0997 0.500042 71.0997C9.54735 71.0997 16.9323 78.4527 16.9323 87.5C16.9323 96.5473 9.54735 103.932 0.500042 103.932ZM0.500042 71.4514C-8.35545 71.4514 -15.5485 78.6445 -15.5485 87.5C-15.5485 96.3555 -8.35545 103.549 0.500042 103.549C9.35554 103.549 16.5487 96.3555 16.5487 87.5C16.5487 78.6445 9.35554 71.4514 0.500042 71.4514Z" fill="#06202B" fill-opacity="0.3"/>
<path d="M0.500042 103.932V102.932C-7.99245 102.932 -14.9001 95.9976 -14.9001 87.5H-15.9001H-16.9001C-16.9001 97.0971 -9.10209 104.932 0.500042 104.932V103.932ZM-15.9001 87.5H-14.9001C-14.9001 79.005 -7.99498 72.0997 0.500042 72.0997V71.0997V70.0997C-9.09956 70.0997 -16.9001 77.9004 -16.9001 87.5H-15.9001ZM0.500042 71.0997V72.0997C8.99761 72.0997 15.9323 79.0075 15.9323 87.5H16.9323H17.9323C17.9323 77.8979 10.0971 70.0997 0.500042 70.0997V71.0997ZM16.9323 87.5H15.9323C15.9323 95.995 8.99508 102.932 0.500042 102.932V103.932V104.932C10.0996 104.932 17.9323 97.0996 17.9323 87.5H16.9323ZM0.500042 71.4514V70.4514C-8.90774 70.4514 -16.5485 78.0922 -16.5485 87.5H-15.5485H-14.5485C-14.5485 79.1968 -7.80317 72.4514 0.500042 72.4514V71.4514ZM-15.5485 87.5H-16.5485C-16.5485 96.9078 -8.90774 104.549 0.500042 104.549V103.549V102.549C-7.80317 102.549 -14.5485 95.8032 -14.5485 87.5H-15.5485ZM0.500042 103.549V104.549C9.90782 104.549 17.5487 96.9078 17.5487 87.5H16.5487H15.5487C15.5487 95.8032 8.80326 102.549 0.500042 102.549V103.549ZM16.5487 87.5H17.5487C17.5487 78.0922 9.90782 70.4514 0.500042 70.4514V71.4514V72.4514C8.80326 72.4514 15.5487 79.1968 15.5487 87.5H16.5487Z" fill="#06202B" fill-opacity="0.3" mask="url(#path-27-inside-7_57_4189)"/>
<mask id="path-29-inside-8_57_4189" fill="white">
<path fill-rule="evenodd" clip-rule="evenodd" d="M0.499927 100.128C-6.43741 100.128 -12.0959 94.4693 -12.0959 87.5C-12.0959 80.5627 -6.43741 74.9041 0.499927 74.9041C7.46923 74.9041 13.1278 80.5627 13.1278 87.5C13.1278 94.4693 7.46923 100.128 0.499927 100.128ZM0.499927 75.1598C-6.27757 75.1598 -11.8402 80.7225 -11.8402 87.5C-11.8402 94.3095 -6.27757 99.8401 0.499927 99.8401C7.30939 99.8401 12.8401 94.3095 12.8401 87.5C12.8401 80.7225 7.30939 75.1598 0.499927 75.1598Z"/>
</mask>
<path fill-rule="evenodd" clip-rule="evenodd" d="M0.499927 100.128C-6.43741 100.128 -12.0959 94.4693 -12.0959 87.5C-12.0959 80.5627 -6.43741 74.9041 0.499927 74.9041C7.46923 74.9041 13.1278 80.5627 13.1278 87.5C13.1278 94.4693 7.46923 100.128 0.499927 100.128ZM0.499927 75.1598C-6.27757 75.1598 -11.8402 80.7225 -11.8402 87.5C-11.8402 94.3095 -6.27757 99.8401 0.499927 99.8401C7.30939 99.8401 12.8401 94.3095 12.8401 87.5C12.8401 80.7225 7.30939 75.1598 0.499927 75.1598Z" fill="#06202B" fill-opacity="0.3"/>
<path d="M0.499927 100.128V99.1279C-5.88348 99.1279 -11.0959 93.9187 -11.0959 87.5H-12.0959H-13.0959C-13.0959 95.0199 -6.99135 101.128 0.499927 101.128V100.128ZM-12.0959 87.5H-11.0959C-11.0959 81.1149 -5.88512 75.9041 0.499927 75.9041V74.9041V73.9041C-6.9897 73.9041 -13.0959 80.0104 -13.0959 87.5H-12.0959ZM0.499927 74.9041V75.9041C6.9186 75.9041 12.1278 81.1166 12.1278 87.5H13.1278H14.1278C14.1278 80.0087 8.01987 73.9041 0.499927 73.9041V74.9041ZM13.1278 87.5H12.1278C12.1278 93.917 6.91695 99.1279 0.499927 99.1279V100.128V101.128C8.02152 101.128 14.1278 95.0216 14.1278 87.5H13.1278ZM0.499927 75.1598V74.1598C-6.82986 74.1598 -12.8402 80.1702 -12.8402 87.5H-11.8402H-10.8402C-10.8402 81.2748 -5.72527 76.1598 0.499927 76.1598V75.1598ZM-11.8402 87.5H-12.8402C-12.8402 94.8634 -6.82817 100.84 0.499927 100.84V99.8401V98.8401C-5.72696 98.8401 -10.8402 93.7555 -10.8402 87.5H-11.8402ZM0.499927 99.8401V100.84C7.86167 100.84 13.8401 94.8617 13.8401 87.5H12.8401H11.8401C11.8401 93.7572 6.75711 98.8401 0.499927 98.8401V99.8401ZM12.8401 87.5H13.8401C13.8401 80.1719 7.86336 74.1598 0.499927 74.1598V75.1598V76.1598C6.75542 76.1598 11.8401 81.2731 11.8401 87.5H12.8401Z" fill="#06202B" fill-opacity="0.3" mask="url(#path-29-inside-8_57_4189)"/>
<mask id="path-31-inside-9_57_4189" fill="white">
<path fill-rule="evenodd" clip-rule="evenodd" d="M0.500029 98.0179C-5.28642 98.0179 -9.98584 93.2864 -9.98584 87.5C-9.98584 81.7135 -5.28642 77.014 0.500029 77.014C6.28647 77.014 11.018 81.7135 11.018 87.5C11.018 93.2864 6.28647 98.0179 0.500029 98.0179ZM0.500029 77.2378C-5.15854 77.2378 -9.76207 81.8414 -9.76207 87.5C-9.76207 93.1586 -5.15854 97.7941 0.500029 97.7941C6.1586 97.7941 10.7942 93.1586 10.7942 87.5C10.7942 81.8414 6.1586 77.2378 0.500029 77.2378Z"/>
</mask>
<path fill-rule="evenodd" clip-rule="evenodd" d="M0.500029 98.0179C-5.28642 98.0179 -9.98584 93.2864 -9.98584 87.5C-9.98584 81.7135 -5.28642 77.014 0.500029 77.014C6.28647 77.014 11.018 81.7135 11.018 87.5C11.018 93.2864 6.28647 98.0179 0.500029 98.0179ZM0.500029 77.2378C-5.15854 77.2378 -9.76207 81.8414 -9.76207 87.5C-9.76207 93.1586 -5.15854 97.7941 0.500029 97.7941C6.1586 97.7941 10.7942 93.1586 10.7942 87.5C10.7942 81.8414 6.1586 77.2378 0.500029 77.2378Z" fill="#06202B" fill-opacity="0.3"/>
<path d="M0.500029 98.0179V97.0179C-4.73017 97.0179 -8.98584 92.7381 -8.98584 87.5H-9.98584H-10.9858C-10.9858 93.8347 -5.84266 99.0179 0.500029 99.0179V98.0179ZM-9.98584 87.5H-8.98584C-8.98584 82.2658 -4.73412 78.014 0.500029 78.014V77.014V76.014C-5.83871 76.014 -10.9858 81.1613 -10.9858 87.5H-9.98584ZM0.500029 77.014V78.014C5.73816 78.014 10.018 82.2698 10.018 87.5H11.018H12.018C12.018 81.1573 6.83479 76.014 0.500029 76.014V77.014ZM11.018 87.5H10.018C10.018 92.7341 5.7342 97.0179 0.500029 97.0179V98.0179V99.0179C6.83875 99.0179 12.018 93.8387 12.018 87.5H11.018ZM0.500029 77.2378V76.2378C-5.71083 76.2378 -10.7621 81.2891 -10.7621 87.5H-9.76207H-8.76207C-8.76207 82.3937 -4.60624 78.2378 0.500029 78.2378V77.2378ZM-9.76207 87.5H-10.7621C-10.7621 93.7068 -5.71487 98.7941 0.500029 98.7941V97.7941V96.7941C-4.60221 96.7941 -8.76207 92.6103 -8.76207 87.5H-9.76207ZM0.500029 97.7941V98.7941C6.71087 98.7941 11.7942 93.7108 11.7942 87.5H10.7942H9.79421C9.79421 92.6063 5.60632 96.7941 0.500029 96.7941V97.7941ZM10.7942 87.5H11.7942C11.7942 81.2851 6.70683 76.2378 0.500029 76.2378V77.2378V78.2378C5.61037 78.2378 9.79421 82.3977 9.79421 87.5H10.7942Z" fill="#06202B" fill-opacity="0.3" mask="url(#path-31-inside-9_57_4189)"/>
<mask id="path-33-inside-10_57_4189" fill="white">
<path fill-rule="evenodd" clip-rule="evenodd" d="M0.500069 133.024C-24.5958 133.024 -44.9922 112.596 -44.9922 87.5C-44.9922 62.4041 -24.5958 42.0077 0.500069 42.0077C25.596 42.0077 46.0244 62.4041 46.0244 87.5C46.0244 112.596 25.596 133.024 0.500069 133.024ZM0.500069 42.9987C-24.0524 42.9987 -44.0012 62.9476 -44.0012 87.5C-44.0012 112.052 -24.0524 132.033 0.500069 132.033C25.0525 132.033 45.0333 112.052 45.0333 87.5C45.0333 62.9476 25.0525 42.9987 0.500069 42.9987Z"/>
</mask>
<path fill-rule="evenodd" clip-rule="evenodd" d="M0.500069 133.024C-24.5958 133.024 -44.9922 112.596 -44.9922 87.5C-44.9922 62.4041 -24.5958 42.0077 0.500069 42.0077C25.596 42.0077 46.0244 62.4041 46.0244 87.5C46.0244 112.596 25.596 133.024 0.500069 133.024ZM0.500069 42.9987C-24.0524 42.9987 -44.0012 62.9476 -44.0012 87.5C-44.0012 112.052 -24.0524 132.033 0.500069 132.033C25.0525 132.033 45.0333 112.052 45.0333 87.5C45.0333 62.9476 25.0525 42.9987 0.500069 42.9987Z" fill="#06202B" fill-opacity="0.3"/>
<path d="M0.500069 133.024V132.024C-24.0426 132.024 -43.9922 112.045 -43.9922 87.5H-44.9922H-45.9922C-45.9922 113.147 -25.149 134.024 0.500069 134.024V133.024ZM-44.9922 87.5H-43.9922C-43.9922 62.9564 -24.0435 43.0077 0.500069 43.0077V42.0077V41.0077C-25.1481 41.0077 -45.9922 61.8518 -45.9922 87.5H-44.9922ZM0.500069 42.0077V43.0077C25.0446 43.0077 45.0244 62.9573 45.0244 87.5H46.0244H47.0244C47.0244 61.8509 26.1473 41.0077 0.500069 41.0077V42.0077ZM46.0244 87.5H45.0244C45.0244 112.044 25.0437 132.024 0.500069 132.024V133.024V134.024C26.1483 134.024 47.0244 113.148 47.0244 87.5H46.0244ZM0.500069 42.9987V41.9987C-24.6046 41.9987 -45.0012 62.3953 -45.0012 87.5H-44.0012H-43.0012C-43.0012 63.4999 -23.5001 43.9987 0.500069 43.9987V42.9987ZM-44.0012 87.5H-45.0012C-45.0012 112.604 -24.6056 133.033 0.500069 133.033V132.033V131.033C-23.4991 131.033 -43.0012 111.501 -43.0012 87.5H-44.0012ZM0.500069 132.033V133.033C25.6048 133.033 46.0333 112.605 46.0333 87.5H45.0333H44.0333C44.0333 111.5 24.5002 131.033 0.500069 131.033V132.033ZM45.0333 87.5H46.0333C46.0333 62.3943 25.6038 41.9987 0.500069 41.9987V42.9987V43.9987C24.5011 43.9987 44.0333 63.5008 44.0333 87.5H45.0333Z" fill="#06202B" fill-opacity="0.3" mask="url(#path-33-inside-10_57_4189)"/>
<path fill-rule="evenodd" clip-rule="evenodd" d="M0.500038 137.244C-26.9296 137.244 -49.2441 114.93 -49.2441 87.5C-49.2441 60.0704 -26.9296 37.7878 0.500038 37.7878C27.9297 37.7878 50.2443 60.0704 50.2443 87.5C50.2443 114.93 27.9297 137.244 0.500038 137.244ZM0.500038 38.8427C-26.3222 38.8427 -48.1572 60.6778 -48.1572 87.5C-48.1572 114.322 -26.3222 136.157 0.500038 136.157C27.3223 136.157 49.1574 114.322 49.1574 87.5C49.1574 60.6778 27.3223 38.8427 0.500038 38.8427Z" fill="#06202B" fill-opacity="0.3"/>
<path d="M0.5 38.2878C27.6538 38.2878 49.744 60.3467 49.7441 87.4997C49.7441 114.653 27.6535 136.744 0.5 136.744C-26.6535 136.744 -48.7441 114.653 -48.7441 87.4997C-48.744 60.3467 -26.6538 38.2878 0.5 38.2878ZM0.5 38.3424C-26.5983 38.3425 -48.657 60.4015 -48.6572 87.4997C-48.6572 114.598 -26.5984 136.657 0.5 136.657C27.5984 136.657 49.6572 114.598 49.6572 87.4997C49.657 60.4014 27.5983 38.3424 0.5 38.3424Z" stroke="#06202B" stroke-opacity="0.3"/>
<path fill-rule="evenodd" clip-rule="evenodd" d="M0.500004 142.136C-29.6151 142.136 -54.1355 117.647 -54.1355 87.5C-54.1355 57.3849 -29.6151 32.8645 0.500004 32.8645C30.6471 32.8645 55.1356 57.3849 55.1356 87.5C55.1356 117.647 30.6471 142.136 0.500004 142.136ZM0.500004 34.0793C-28.9757 34.0793 -52.9206 58.0243 -52.9206 87.5C-52.9206 116.976 -28.9757 140.953 0.500004 140.953C29.9757 140.953 53.9527 116.976 53.9527 87.5C53.9527 58.0243 29.9757 34.0793 0.500004 34.0793Z" fill="#06202B" fill-opacity="0.3"/>
<path d="M0.500244 33.3645C30.3709 33.3646 54.636 57.6612 54.636 87.5002C54.6359 117.371 30.371 141.636 0.500244 141.636C-29.3388 141.636 -53.6354 117.371 -53.6355 87.5002C-53.6355 57.6613 -29.3387 33.3645 0.500244 33.3645ZM0.500244 33.5793C-29.2516 33.5793 -53.4207 57.7484 -53.4207 87.5002C-53.4205 117.252 -29.2519 141.452 0.500244 141.452C30.2519 141.452 54.4523 117.252 54.4524 87.5002C54.4524 57.7481 30.2516 33.5794 0.500244 33.5793Z" stroke="#06202B" stroke-opacity="0.3"/>
</svg>
