<svg width="358" height="347" viewBox="0 0 358 347" fill="none" xmlns="http://www.w3.org/2000/svg">
<path d="M6.50366 3.476C6.50366 5.44744 5.06908 7.0038 3.25183 7.0038C1.4824 7.0038 0 5.44744 0 3.476C0 1.55644 1.4824 0 3.25183 0C5.06908 0 6.50366 1.55644 6.50366 3.476Z" fill="#465C88" fill-opacity="0.4"/>
<path d="M33.4278 3.476C33.4278 5.44744 31.993 7.0038 30.1758 7.0038C28.4064 7.0038 26.924 5.44744 26.924 3.476C26.924 1.55644 28.4064 0 30.1758 0C31.993 0 33.4278 1.55644 33.4278 3.476Z" fill="#465C88" fill-opacity="0.4"/>
<path d="M60.3517 3.476C60.3517 5.44744 58.9171 7.0038 57.0998 7.0038C55.2826 7.0038 53.8478 5.44744 53.8478 3.476C53.8478 1.55644 55.2826 0 57.0998 0C58.9171 0 60.3517 1.55644 60.3517 3.476Z" fill="#465C88" fill-opacity="0.4"/>
<path d="M87.2759 3.476C87.2759 5.44744 85.7932 7.0038 84.0238 7.0038C82.2066 7.0038 80.772 5.44744 80.772 3.476C80.772 1.55644 82.2066 0 84.0238 0C85.7932 0 87.2759 1.55644 87.2759 3.476Z" fill="#465C88" fill-opacity="0.4"/>
<path d="M114.2 3.476C114.2 5.44744 112.717 7.0038 110.948 7.0038C109.131 7.0038 107.696 5.44744 107.696 3.476C107.696 1.55644 109.131 0 110.948 0C112.717 0 114.2 1.55644 114.2 3.476Z" fill="#465C88" fill-opacity="0.4"/>
<path d="M141.076 3.476C141.076 5.44744 139.641 7.0038 137.824 7.0038C136.055 7.0038 134.62 5.44744 134.62 3.476C134.62 1.55644 136.055 0 137.824 0C139.641 0 141.076 1.55644 141.076 3.476Z" fill="#465C88" fill-opacity="0.4"/>
<path d="M168 3.476C168 5.44744 166.565 7.0038 164.748 7.0038C162.979 7.0038 161.496 5.44744 161.496 3.476C161.496 1.55644 162.979 0 164.748 0C166.565 0 168 1.55644 168 3.476Z" fill="#465C88" fill-opacity="0.4"/>
<path d="M6.50366 26.3032C6.50366 28.2746 5.06908 29.831 3.25183 29.831C1.4824 29.831 0 28.2746 0 26.3032C0 24.3836 1.4824 22.7753 3.25183 22.7753C5.06908 22.7753 6.50366 24.3836 6.50366 26.3032Z" fill="#465C88" fill-opacity="0.4"/>
<path d="M33.4278 26.3032C33.4278 28.2746 31.993 29.831 30.1758 29.831C28.4064 29.831 26.924 28.2746 26.924 26.3032C26.924 24.3836 28.4064 22.7753 30.1758 22.7753C31.993 22.7753 33.4278 24.3836 33.4278 26.3032Z" fill="#465C88" fill-opacity="0.4"/>
<path d="M60.3517 26.3032C60.3517 28.2746 58.9171 29.831 57.0998 29.831C55.2826 29.831 53.8478 28.2746 53.8478 26.3032C53.8478 24.3836 55.2826 22.7753 57.0998 22.7753C58.9171 22.7753 60.3517 24.3836 60.3517 26.3032Z" fill="#465C88" fill-opacity="0.4"/>
<path d="M87.2759 26.3032C87.2759 28.2746 85.7932 29.831 84.0238 29.831C82.2066 29.831 80.772 28.2746 80.772 26.3032C80.772 24.3836 82.2066 22.7753 84.0238 22.7753C85.7932 22.7753 87.2759 24.3836 87.2759 26.3032Z" fill="#465C88" fill-opacity="0.4"/>
<path d="M114.2 26.3032C114.2 28.2746 112.717 29.831 110.948 29.831C109.131 29.831 107.696 28.2746 107.696 26.3032C107.696 24.3836 109.131 22.7753 110.948 22.7753C112.717 22.7753 114.2 24.3836 114.2 26.3032Z" fill="#465C88" fill-opacity="0.4"/>
<path d="M141.076 26.3032C141.076 28.2746 139.641 29.831 137.824 29.831C136.055 29.831 134.62 28.2746 134.62 26.3032C134.62 24.3836 136.055 22.7753 137.824 22.7753C139.641 22.7753 141.076 24.3836 141.076 26.3032Z" fill="#465C88" fill-opacity="0.4"/>
<path d="M168 26.3032C168 28.2746 166.565 29.831 164.748 29.831C162.979 29.831 161.496 28.2746 161.496 26.3032C161.496 24.3836 162.979 22.7753 164.748 22.7753C166.565 22.7753 168 24.3836 168 26.3032Z" fill="#465C88" fill-opacity="0.4"/>
<path d="M6.50366 49.1304C6.50366 51.1018 5.06908 52.6582 3.25183 52.6582C1.4824 52.6582 0 51.1018 0 49.1304C0 47.2108 1.4824 45.6025 3.25183 45.6025C5.06908 45.6025 6.50366 47.2108 6.50366 49.1304Z" fill="#465C88" fill-opacity="0.4"/>
<path d="M33.4278 49.1304C33.4278 51.1018 31.993 52.6582 30.1758 52.6582C28.4064 52.6582 26.924 51.1018 26.924 49.1304C26.924 47.2108 28.4064 45.6025 30.1758 45.6025C31.993 45.6025 33.4278 47.2108 33.4278 49.1304Z" fill="#465C88" fill-opacity="0.4"/>
<path d="M60.3517 49.1304C60.3517 51.1018 58.9171 52.6582 57.0998 52.6582C55.2826 52.6582 53.8478 51.1018 53.8478 49.1304C53.8478 47.2108 55.2826 45.6025 57.0998 45.6025C58.9171 45.6025 60.3517 47.2108 60.3517 49.1304Z" fill="#465C88" fill-opacity="0.4"/>
<path d="M87.2759 49.1304C87.2759 51.1018 85.7932 52.6582 84.0238 52.6582C82.2066 52.6582 80.772 51.1018 80.772 49.1304C80.772 47.2108 82.2066 45.6025 84.0238 45.6025C85.7932 45.6025 87.2759 47.2108 87.2759 49.1304Z" fill="#465C88" fill-opacity="0.4"/>
<path d="M114.2 49.1304C114.2 51.1018 112.717 52.6582 110.948 52.6582C109.131 52.6582 107.696 51.1018 107.696 49.1304C107.696 47.2108 109.131 45.6025 110.948 45.6025C112.717 45.6025 114.2 47.2108 114.2 49.1304Z" fill="#465C88" fill-opacity="0.4"/>
<path d="M141.076 49.1304C141.076 51.1018 139.641 52.6582 137.824 52.6582C136.055 52.6582 134.62 51.1018 134.62 49.1304C134.62 47.2108 136.055 45.6025 137.824 45.6025C139.641 45.6025 141.076 47.2108 141.076 49.1304Z" fill="#465C88" fill-opacity="0.4"/>
<path d="M168 49.1304C168 51.1018 166.565 52.6582 164.748 52.6582C162.979 52.6582 161.496 51.1018 161.496 49.1304C161.496 47.2108 162.979 45.6025 164.748 45.6025C166.565 45.6025 168 47.2108 168 49.1304Z" fill="#465C88" fill-opacity="0.4"/>
<path d="M6.50366 71.9576C6.50366 73.9291 5.06908 75.4854 3.25183 75.4854C1.4824 75.4854 0 73.9291 0 71.9576C0 70.0381 1.4824 68.4297 3.25183 68.4297C5.06908 68.4297 6.50366 70.0381 6.50366 71.9576Z" fill="#465C88" fill-opacity="0.4"/>
<path d="M33.4278 71.9576C33.4278 73.9291 31.993 75.4854 30.1758 75.4854C28.4064 75.4854 26.924 73.9291 26.924 71.9576C26.924 70.0381 28.4064 68.4297 30.1758 68.4297C31.993 68.4297 33.4278 70.0381 33.4278 71.9576Z" fill="#465C88" fill-opacity="0.4"/>
<path d="M60.3517 71.9576C60.3517 73.9291 58.9171 75.4854 57.0998 75.4854C55.2826 75.4854 53.8478 73.9291 53.8478 71.9576C53.8478 70.0381 55.2826 68.4297 57.0998 68.4297C58.9171 68.4297 60.3517 70.0381 60.3517 71.9576Z" fill="#465C88" fill-opacity="0.4"/>
<path d="M87.2759 71.9576C87.2759 73.9291 85.7932 75.4854 84.0238 75.4854C82.2066 75.4854 80.772 73.9291 80.772 71.9576C80.772 70.0381 82.2066 68.4297 84.0238 68.4297C85.7932 68.4297 87.2759 70.0381 87.2759 71.9576Z" fill="#465C88" fill-opacity="0.4"/>
<path d="M114.2 71.9576C114.2 73.9291 112.717 75.4854 110.948 75.4854C109.131 75.4854 107.696 73.9291 107.696 71.9576C107.696 70.0381 109.131 68.4297 110.948 68.4297C112.717 68.4297 114.2 70.0381 114.2 71.9576Z" fill="#465C88" fill-opacity="0.4"/>
<path d="M141.076 71.9576C141.076 73.9291 139.641 75.4854 137.824 75.4854C136.055 75.4854 134.62 73.9291 134.62 71.9576C134.62 70.0381 136.055 68.4297 137.824 68.4297C139.641 68.4297 141.076 70.0381 141.076 71.9576Z" fill="#465C88" fill-opacity="0.4"/>
<path d="M168 71.9576C168 73.9291 166.565 75.4854 164.748 75.4854C162.979 75.4854 161.496 73.9291 161.496 71.9576C161.496 70.0381 162.979 68.4297 164.748 68.4297C166.565 68.4297 168 70.0381 168 71.9576Z" fill="#465C88" fill-opacity="0.4"/>
<path d="M6.50366 94.7848C6.50366 96.7563 5.06908 98.3126 3.25183 98.3126C1.4824 98.3126 0 96.7563 0 94.7848C0 92.8653 1.4824 91.257 3.25183 91.257C5.06908 91.257 6.50366 92.8653 6.50366 94.7848Z" fill="#465C88" fill-opacity="0.4"/>
<path d="M33.4278 94.7848C33.4278 96.7563 31.993 98.3126 30.1758 98.3126C28.4064 98.3126 26.924 96.7563 26.924 94.7848C26.924 92.8653 28.4064 91.257 30.1758 91.257C31.993 91.257 33.4278 92.8653 33.4278 94.7848Z" fill="#465C88" fill-opacity="0.4"/>
<path d="M60.3517 94.7848C60.3517 96.7563 58.9171 98.3126 57.0998 98.3126C55.2826 98.3126 53.8478 96.7563 53.8478 94.7848C53.8478 92.8653 55.2826 91.257 57.0998 91.257C58.9171 91.257 60.3517 92.8653 60.3517 94.7848Z" fill="#465C88" fill-opacity="0.4"/>
<path d="M87.2759 94.7848C87.2759 96.7563 85.7932 98.3126 84.0238 98.3126C82.2066 98.3126 80.772 96.7563 80.772 94.7848C80.772 92.8653 82.2066 91.257 84.0238 91.257C85.7932 91.257 87.2759 92.8653 87.2759 94.7848Z" fill="#465C88" fill-opacity="0.4"/>
<path d="M114.2 94.7848C114.2 96.7563 112.717 98.3126 110.948 98.3126C109.131 98.3126 107.696 96.7563 107.696 94.7848C107.696 92.8653 109.131 91.257 110.948 91.257C112.717 91.257 114.2 92.8653 114.2 94.7848Z" fill="#465C88" fill-opacity="0.4"/>
<path d="M141.076 94.7848C141.076 96.7563 139.641 98.3126 137.824 98.3126C136.055 98.3126 134.62 96.7563 134.62 94.7848C134.62 92.8653 136.055 91.257 137.824 91.257C139.641 91.257 141.076 92.8653 141.076 94.7848Z" fill="#465C88" fill-opacity="0.4"/>
<path d="M168 94.7848C168 96.7563 166.565 98.3126 164.748 98.3126C162.979 98.3126 161.496 96.7563 161.496 94.7848C161.496 92.8653 162.979 91.257 164.748 91.257C166.565 91.257 168 92.8653 168 94.7848Z" fill="#465C88" fill-opacity="0.4"/>
<path d="M6.50366 117.612C6.50366 119.583 5.06908 121.14 3.25183 121.14C1.4824 121.14 0 119.583 0 117.612C0 115.641 1.4824 114.084 3.25183 114.084C5.06908 114.084 6.50366 115.641 6.50366 117.612Z" fill="#465C88" fill-opacity="0.4"/>
<path d="M33.4278 117.612C33.4278 119.583 31.993 121.14 30.1758 121.14C28.4064 121.14 26.924 119.583 26.924 117.612C26.924 115.641 28.4064 114.084 30.1758 114.084C31.993 114.084 33.4278 115.641 33.4278 117.612Z" fill="#465C88" fill-opacity="0.4"/>
<path d="M60.3517 117.612C60.3517 119.583 58.9171 121.14 57.0998 121.14C55.2826 121.14 53.8478 119.583 53.8478 117.612C53.8478 115.641 55.2826 114.084 57.0998 114.084C58.9171 114.084 60.3517 115.641 60.3517 117.612Z" fill="#465C88" fill-opacity="0.4"/>
<path d="M87.2759 117.612C87.2759 119.583 85.7932 121.14 84.0238 121.14C82.2066 121.14 80.772 119.583 80.772 117.612C80.772 115.641 82.2066 114.084 84.0238 114.084C85.7932 114.084 87.2759 115.641 87.2759 117.612Z" fill="#465C88" fill-opacity="0.4"/>
<path d="M114.2 117.612C114.2 119.583 112.717 121.14 110.948 121.14C109.131 121.14 107.696 119.583 107.696 117.612C107.696 115.641 109.131 114.084 110.948 114.084C112.717 114.084 114.2 115.641 114.2 117.612Z" fill="#465C88" fill-opacity="0.4"/>
<path d="M141.076 117.612C141.076 119.583 139.641 121.14 137.824 121.14C136.055 121.14 134.62 119.583 134.62 117.612C134.62 115.641 136.055 114.084 137.824 114.084C139.641 114.084 141.076 115.641 141.076 117.612Z" fill="#465C88" fill-opacity="0.4"/>
<path d="M168 117.612C168 119.583 166.565 121.14 164.748 121.14C162.979 121.14 161.496 119.583 161.496 117.612C161.496 115.641 162.979 114.084 164.748 114.084C166.565 114.084 168 115.641 168 117.612Z" fill="#465C88" fill-opacity="0.4"/>
<path d="M6.50366 140.439C6.50366 142.359 5.06908 143.967 3.25183 143.967C1.4824 143.967 0 142.359 0 140.439C0 138.468 1.4824 136.911 3.25183 136.911C5.06908 136.911 6.50366 138.468 6.50366 140.439Z" fill="#465C88" fill-opacity="0.4"/>
<path d="M33.4278 140.439C33.4278 142.359 31.993 143.967 30.1758 143.967C28.4064 143.967 26.924 142.359 26.924 140.439C26.924 138.468 28.4064 136.911 30.1758 136.911C31.993 136.911 33.4278 138.468 33.4278 140.439Z" fill="#465C88" fill-opacity="0.4"/>
<path d="M60.3517 140.439C60.3517 142.359 58.9171 143.967 57.0998 143.967C55.2826 143.967 53.8478 142.359 53.8478 140.439C53.8478 138.468 55.2826 136.911 57.0998 136.911C58.9171 136.911 60.3517 138.468 60.3517 140.439Z" fill="#465C88" fill-opacity="0.4"/>
<path d="M87.2759 140.439C87.2759 142.359 85.7932 143.967 84.0238 143.967C82.2066 143.967 80.772 142.359 80.772 140.439C80.772 138.468 82.2066 136.911 84.0238 136.911C85.7932 136.911 87.2759 138.468 87.2759 140.439Z" fill="#465C88" fill-opacity="0.4"/>
<path d="M114.2 140.439C114.2 142.359 112.717 143.967 110.948 143.967C109.131 143.967 107.696 142.359 107.696 140.439C107.696 138.468 109.131 136.911 110.948 136.911C112.717 136.911 114.2 138.468 114.2 140.439Z" fill="#465C88" fill-opacity="0.4"/>
<path d="M141.076 140.439C141.076 142.359 139.641 143.967 137.824 143.967C136.055 143.967 134.62 142.359 134.62 140.439C134.62 138.468 136.055 136.911 137.824 136.911C139.641 136.911 141.076 138.468 141.076 140.439Z" fill="#465C88" fill-opacity="0.4"/>
<path d="M168 140.439C168 142.359 166.565 143.967 164.748 143.967C162.979 143.967 161.496 142.359 161.496 140.439C161.496 138.468 162.979 136.911 164.748 136.911C166.565 136.911 168 138.468 168 140.439Z" fill="#465C88" fill-opacity="0.4"/>
<path d="M6.50366 163.266C6.50366 165.186 5.06908 166.794 3.25183 166.794C1.4824 166.794 0 165.186 0 163.266C0 161.295 1.4824 159.739 3.25183 159.739C5.06908 159.739 6.50366 161.295 6.50366 163.266Z" fill="#465C88" fill-opacity="0.4"/>
<path d="M33.4278 163.266C33.4278 165.186 31.993 166.794 30.1758 166.794C28.4064 166.794 26.924 165.186 26.924 163.266C26.924 161.295 28.4064 159.739 30.1758 159.739C31.993 159.739 33.4278 161.295 33.4278 163.266Z" fill="#465C88" fill-opacity="0.4"/>
<path d="M60.3517 163.266C60.3517 165.186 58.9171 166.794 57.0998 166.794C55.2826 166.794 53.8478 165.186 53.8478 163.266C53.8478 161.295 55.2826 159.739 57.0998 159.739C58.9171 159.739 60.3517 161.295 60.3517 163.266Z" fill="#465C88" fill-opacity="0.4"/>
<path d="M87.2759 163.266C87.2759 165.186 85.7932 166.794 84.0238 166.794C82.2066 166.794 80.772 165.186 80.772 163.266C80.772 161.295 82.2066 159.739 84.0238 159.739C85.7932 159.739 87.2759 161.295 87.2759 163.266Z" fill="#465C88" fill-opacity="0.4"/>
<path d="M114.2 163.266C114.2 165.186 112.717 166.794 110.948 166.794C109.131 166.794 107.696 165.186 107.696 163.266C107.696 161.295 109.131 159.739 110.948 159.739C112.717 159.739 114.2 161.295 114.2 163.266Z" fill="#465C88" fill-opacity="0.4"/>
<path d="M141.076 163.266C141.076 165.186 139.641 166.794 137.824 166.794C136.055 166.794 134.62 165.186 134.62 163.266C134.62 161.295 136.055 159.739 137.824 159.739C139.641 159.739 141.076 161.295 141.076 163.266Z" fill="#465C88" fill-opacity="0.4"/>
<path d="M168 163.266C168 165.186 166.565 166.794 164.748 166.794C162.979 166.794 161.496 165.186 161.496 163.266C161.496 161.295 162.979 159.739 164.748 159.739C166.565 159.739 168 161.295 168 163.266Z" fill="#465C88" fill-opacity="0.4"/>
<path d="M196.504 3.476C196.504 5.44744 195.069 7.0038 193.252 7.0038C191.482 7.0038 190 5.44744 190 3.476C190 1.55644 191.482 0 193.252 0C195.069 0 196.504 1.55644 196.504 3.476Z" fill="#465C88" fill-opacity="0.4"/>
<path d="M223.428 3.476C223.428 5.44744 221.993 7.0038 220.176 7.0038C218.406 7.0038 216.924 5.44744 216.924 3.476C216.924 1.55644 218.406 0 220.176 0C221.993 0 223.428 1.55644 223.428 3.476Z" fill="#465C88" fill-opacity="0.4"/>
<path d="M250.352 3.476C250.352 5.44744 248.917 7.0038 247.1 7.0038C245.283 7.0038 243.848 5.44744 243.848 3.476C243.848 1.55644 245.283 0 247.1 0C248.917 0 250.352 1.55644 250.352 3.476Z" fill="#465C88" fill-opacity="0.4"/>
<path d="M277.276 3.476C277.276 5.44744 275.793 7.0038 274.024 7.0038C272.207 7.0038 270.772 5.44744 270.772 3.476C270.772 1.55644 272.207 0 274.024 0C275.793 0 277.276 1.55644 277.276 3.476Z" fill="#465C88" fill-opacity="0.4"/>
<path d="M304.2 3.476C304.2 5.44744 302.717 7.0038 300.948 7.0038C299.131 7.0038 297.696 5.44744 297.696 3.476C297.696 1.55644 299.131 0 300.948 0C302.717 0 304.2 1.55644 304.2 3.476Z" fill="#465C88" fill-opacity="0.4"/>
<path d="M331.076 3.476C331.076 5.44744 329.641 7.0038 327.824 7.0038C326.055 7.0038 324.62 5.44744 324.62 3.476C324.62 1.55644 326.055 0 327.824 0C329.641 0 331.076 1.55644 331.076 3.476Z" fill="#465C88" fill-opacity="0.4"/>
<path d="M358 3.476C358 5.44744 356.565 7.0038 354.748 7.0038C352.979 7.0038 351.496 5.44744 351.496 3.476C351.496 1.55644 352.979 0 354.748 0C356.565 0 358 1.55644 358 3.476Z" fill="#465C88" fill-opacity="0.4"/>
<path d="M196.504 26.3032C196.504 28.2746 195.069 29.831 193.252 29.831C191.482 29.831 190 28.2746 190 26.3032C190 24.3836 191.482 22.7753 193.252 22.7753C195.069 22.7753 196.504 24.3836 196.504 26.3032Z" fill="#465C88" fill-opacity="0.4"/>
<path d="M223.428 26.3032C223.428 28.2746 221.993 29.831 220.176 29.831C218.406 29.831 216.924 28.2746 216.924 26.3032C216.924 24.3836 218.406 22.7753 220.176 22.7753C221.993 22.7753 223.428 24.3836 223.428 26.3032Z" fill="#465C88" fill-opacity="0.4"/>
<path d="M250.352 26.3032C250.352 28.2746 248.917 29.831 247.1 29.831C245.283 29.831 243.848 28.2746 243.848 26.3032C243.848 24.3836 245.283 22.7753 247.1 22.7753C248.917 22.7753 250.352 24.3836 250.352 26.3032Z" fill="#465C88" fill-opacity="0.4"/>
<path d="M277.276 26.3032C277.276 28.2746 275.793 29.831 274.024 29.831C272.207 29.831 270.772 28.2746 270.772 26.3032C270.772 24.3836 272.207 22.7753 274.024 22.7753C275.793 22.7753 277.276 24.3836 277.276 26.3032Z" fill="#465C88" fill-opacity="0.4"/>
<path d="M304.2 26.3032C304.2 28.2746 302.717 29.831 300.948 29.831C299.131 29.831 297.696 28.2746 297.696 26.3032C297.696 24.3836 299.131 22.7753 300.948 22.7753C302.717 22.7753 304.2 24.3836 304.2 26.3032Z" fill="#465C88" fill-opacity="0.4"/>
<path d="M331.076 26.3032C331.076 28.2746 329.641 29.831 327.824 29.831C326.055 29.831 324.62 28.2746 324.62 26.3032C324.62 24.3836 326.055 22.7753 327.824 22.7753C329.641 22.7753 331.076 24.3836 331.076 26.3032Z" fill="#465C88" fill-opacity="0.4"/>
<path d="M358 26.3032C358 28.2746 356.565 29.831 354.748 29.831C352.979 29.831 351.496 28.2746 351.496 26.3032C351.496 24.3836 352.979 22.7753 354.748 22.7753C356.565 22.7753 358 24.3836 358 26.3032Z" fill="#465C88" fill-opacity="0.4"/>
<path d="M196.504 49.1304C196.504 51.1018 195.069 52.6582 193.252 52.6582C191.482 52.6582 190 51.1018 190 49.1304C190 47.2108 191.482 45.6025 193.252 45.6025C195.069 45.6025 196.504 47.2108 196.504 49.1304Z" fill="#465C88" fill-opacity="0.4"/>
<path d="M223.428 49.1304C223.428 51.1018 221.993 52.6582 220.176 52.6582C218.406 52.6582 216.924 51.1018 216.924 49.1304C216.924 47.2108 218.406 45.6025 220.176 45.6025C221.993 45.6025 223.428 47.2108 223.428 49.1304Z" fill="#465C88" fill-opacity="0.4"/>
<path d="M250.352 49.1304C250.352 51.1018 248.917 52.6582 247.1 52.6582C245.283 52.6582 243.848 51.1018 243.848 49.1304C243.848 47.2108 245.283 45.6025 247.1 45.6025C248.917 45.6025 250.352 47.2108 250.352 49.1304Z" fill="#465C88" fill-opacity="0.4"/>
<path d="M277.276 49.1304C277.276 51.1018 275.793 52.6582 274.024 52.6582C272.207 52.6582 270.772 51.1018 270.772 49.1304C270.772 47.2108 272.207 45.6025 274.024 45.6025C275.793 45.6025 277.276 47.2108 277.276 49.1304Z" fill="#465C88" fill-opacity="0.4"/>
<path d="M304.2 49.1304C304.2 51.1018 302.717 52.6582 300.948 52.6582C299.131 52.6582 297.696 51.1018 297.696 49.1304C297.696 47.2108 299.131 45.6025 300.948 45.6025C302.717 45.6025 304.2 47.2108 304.2 49.1304Z" fill="#465C88" fill-opacity="0.4"/>
<path d="M331.076 49.1304C331.076 51.1018 329.641 52.6582 327.824 52.6582C326.055 52.6582 324.62 51.1018 324.62 49.1304C324.62 47.2108 326.055 45.6025 327.824 45.6025C329.641 45.6025 331.076 47.2108 331.076 49.1304Z" fill="#465C88" fill-opacity="0.4"/>
<path d="M358 49.1304C358 51.1018 356.565 52.6582 354.748 52.6582C352.979 52.6582 351.496 51.1018 351.496 49.1304C351.496 47.2108 352.979 45.6025 354.748 45.6025C356.565 45.6025 358 47.2108 358 49.1304Z" fill="#465C88" fill-opacity="0.4"/>
<path d="M196.504 71.9576C196.504 73.9291 195.069 75.4854 193.252 75.4854C191.482 75.4854 190 73.9291 190 71.9576C190 70.0381 191.482 68.4297 193.252 68.4297C195.069 68.4297 196.504 70.0381 196.504 71.9576Z" fill="#465C88" fill-opacity="0.4"/>
<path d="M223.428 71.9576C223.428 73.9291 221.993 75.4854 220.176 75.4854C218.406 75.4854 216.924 73.9291 216.924 71.9576C216.924 70.0381 218.406 68.4297 220.176 68.4297C221.993 68.4297 223.428 70.0381 223.428 71.9576Z" fill="#465C88" fill-opacity="0.4"/>
<path d="M250.352 71.9576C250.352 73.9291 248.917 75.4854 247.1 75.4854C245.283 75.4854 243.848 73.9291 243.848 71.9576C243.848 70.0381 245.283 68.4297 247.1 68.4297C248.917 68.4297 250.352 70.0381 250.352 71.9576Z" fill="#465C88" fill-opacity="0.4"/>
<path d="M277.276 71.9576C277.276 73.9291 275.793 75.4854 274.024 75.4854C272.207 75.4854 270.772 73.9291 270.772 71.9576C270.772 70.0381 272.207 68.4297 274.024 68.4297C275.793 68.4297 277.276 70.0381 277.276 71.9576Z" fill="#465C88" fill-opacity="0.4"/>
<path d="M304.2 71.9576C304.2 73.9291 302.717 75.4854 300.948 75.4854C299.131 75.4854 297.696 73.9291 297.696 71.9576C297.696 70.0381 299.131 68.4297 300.948 68.4297C302.717 68.4297 304.2 70.0381 304.2 71.9576Z" fill="#465C88" fill-opacity="0.4"/>
<path d="M331.076 71.9576C331.076 73.9291 329.641 75.4854 327.824 75.4854C326.055 75.4854 324.62 73.9291 324.62 71.9576C324.62 70.0381 326.055 68.4297 327.824 68.4297C329.641 68.4297 331.076 70.0381 331.076 71.9576Z" fill="#465C88" fill-opacity="0.4"/>
<path d="M358 71.9576C358 73.9291 356.565 75.4854 354.748 75.4854C352.979 75.4854 351.496 73.9291 351.496 71.9576C351.496 70.0381 352.979 68.4297 354.748 68.4297C356.565 68.4297 358 70.0381 358 71.9576Z" fill="#465C88" fill-opacity="0.4"/>
<path d="M196.504 94.7848C196.504 96.7563 195.069 98.3126 193.252 98.3126C191.482 98.3126 190 96.7563 190 94.7848C190 92.8653 191.482 91.257 193.252 91.257C195.069 91.257 196.504 92.8653 196.504 94.7848Z" fill="#465C88" fill-opacity="0.4"/>
<path d="M223.428 94.7848C223.428 96.7563 221.993 98.3126 220.176 98.3126C218.406 98.3126 216.924 96.7563 216.924 94.7848C216.924 92.8653 218.406 91.257 220.176 91.257C221.993 91.257 223.428 92.8653 223.428 94.7848Z" fill="#465C88" fill-opacity="0.4"/>
<path d="M250.352 94.7848C250.352 96.7563 248.917 98.3126 247.1 98.3126C245.283 98.3126 243.848 96.7563 243.848 94.7848C243.848 92.8653 245.283 91.257 247.1 91.257C248.917 91.257 250.352 92.8653 250.352 94.7848Z" fill="#465C88" fill-opacity="0.4"/>
<path d="M277.276 94.7848C277.276 96.7563 275.793 98.3126 274.024 98.3126C272.207 98.3126 270.772 96.7563 270.772 94.7848C270.772 92.8653 272.207 91.257 274.024 91.257C275.793 91.257 277.276 92.8653 277.276 94.7848Z" fill="#465C88" fill-opacity="0.4"/>
<path d="M304.2 94.7848C304.2 96.7563 302.717 98.3126 300.948 98.3126C299.131 98.3126 297.696 96.7563 297.696 94.7848C297.696 92.8653 299.131 91.257 300.948 91.257C302.717 91.257 304.2 92.8653 304.2 94.7848Z" fill="#465C88" fill-opacity="0.4"/>
<path d="M331.076 94.7848C331.076 96.7563 329.641 98.3126 327.824 98.3126C326.055 98.3126 324.62 96.7563 324.62 94.7848C324.62 92.8653 326.055 91.257 327.824 91.257C329.641 91.257 331.076 92.8653 331.076 94.7848Z" fill="#465C88" fill-opacity="0.4"/>
<path d="M358 94.7848C358 96.7563 356.565 98.3126 354.748 98.3126C352.979 98.3126 351.496 96.7563 351.496 94.7848C351.496 92.8653 352.979 91.257 354.748 91.257C356.565 91.257 358 92.8653 358 94.7848Z" fill="#465C88" fill-opacity="0.4"/>
<path d="M196.504 117.612C196.504 119.583 195.069 121.14 193.252 121.14C191.482 121.14 190 119.583 190 117.612C190 115.641 191.482 114.084 193.252 114.084C195.069 114.084 196.504 115.641 196.504 117.612Z" fill="#465C88" fill-opacity="0.4"/>
<path d="M223.428 117.612C223.428 119.583 221.993 121.14 220.176 121.14C218.406 121.14 216.924 119.583 216.924 117.612C216.924 115.641 218.406 114.084 220.176 114.084C221.993 114.084 223.428 115.641 223.428 117.612Z" fill="#465C88" fill-opacity="0.4"/>
<path d="M250.352 117.612C250.352 119.583 248.917 121.14 247.1 121.14C245.283 121.14 243.848 119.583 243.848 117.612C243.848 115.641 245.283 114.084 247.1 114.084C248.917 114.084 250.352 115.641 250.352 117.612Z" fill="#465C88" fill-opacity="0.4"/>
<path d="M277.276 117.612C277.276 119.583 275.793 121.14 274.024 121.14C272.207 121.14 270.772 119.583 270.772 117.612C270.772 115.641 272.207 114.084 274.024 114.084C275.793 114.084 277.276 115.641 277.276 117.612Z" fill="#465C88" fill-opacity="0.4"/>
<path d="M304.2 117.612C304.2 119.583 302.717 121.14 300.948 121.14C299.131 121.14 297.696 119.583 297.696 117.612C297.696 115.641 299.131 114.084 300.948 114.084C302.717 114.084 304.2 115.641 304.2 117.612Z" fill="#465C88" fill-opacity="0.4"/>
<path d="M331.076 117.612C331.076 119.583 329.641 121.14 327.824 121.14C326.055 121.14 324.62 119.583 324.62 117.612C324.62 115.641 326.055 114.084 327.824 114.084C329.641 114.084 331.076 115.641 331.076 117.612Z" fill="#465C88" fill-opacity="0.4"/>
<path d="M358 117.612C358 119.583 356.565 121.14 354.748 121.14C352.979 121.14 351.496 119.583 351.496 117.612C351.496 115.641 352.979 114.084 354.748 114.084C356.565 114.084 358 115.641 358 117.612Z" fill="#465C88" fill-opacity="0.4"/>
<path d="M196.504 140.439C196.504 142.359 195.069 143.967 193.252 143.967C191.482 143.967 190 142.359 190 140.439C190 138.468 191.482 136.911 193.252 136.911C195.069 136.911 196.504 138.468 196.504 140.439Z" fill="#465C88" fill-opacity="0.4"/>
<path d="M223.428 140.439C223.428 142.359 221.993 143.967 220.176 143.967C218.406 143.967 216.924 142.359 216.924 140.439C216.924 138.468 218.406 136.911 220.176 136.911C221.993 136.911 223.428 138.468 223.428 140.439Z" fill="#465C88" fill-opacity="0.4"/>
<path d="M250.352 140.439C250.352 142.359 248.917 143.967 247.1 143.967C245.283 143.967 243.848 142.359 243.848 140.439C243.848 138.468 245.283 136.911 247.1 136.911C248.917 136.911 250.352 138.468 250.352 140.439Z" fill="#465C88" fill-opacity="0.4"/>
<path d="M277.276 140.439C277.276 142.359 275.793 143.967 274.024 143.967C272.207 143.967 270.772 142.359 270.772 140.439C270.772 138.468 272.207 136.911 274.024 136.911C275.793 136.911 277.276 138.468 277.276 140.439Z" fill="#465C88" fill-opacity="0.4"/>
<path d="M304.2 140.439C304.2 142.359 302.717 143.967 300.948 143.967C299.131 143.967 297.696 142.359 297.696 140.439C297.696 138.468 299.131 136.911 300.948 136.911C302.717 136.911 304.2 138.468 304.2 140.439Z" fill="#465C88" fill-opacity="0.4"/>
<path d="M331.076 140.439C331.076 142.359 329.641 143.967 327.824 143.967C326.055 143.967 324.62 142.359 324.62 140.439C324.62 138.468 326.055 136.911 327.824 136.911C329.641 136.911 331.076 138.468 331.076 140.439Z" fill="#465C88" fill-opacity="0.4"/>
<path d="M358 140.439C358 142.359 356.565 143.967 354.748 143.967C352.979 143.967 351.496 142.359 351.496 140.439C351.496 138.468 352.979 136.911 354.748 136.911C356.565 136.911 358 138.468 358 140.439Z" fill="#465C88" fill-opacity="0.4"/>
<path d="M196.504 163.266C196.504 165.186 195.069 166.794 193.252 166.794C191.482 166.794 190 165.186 190 163.266C190 161.295 191.482 159.739 193.252 159.739C195.069 159.739 196.504 161.295 196.504 163.266Z" fill="#465C88" fill-opacity="0.4"/>
<path d="M223.428 163.266C223.428 165.186 221.993 166.794 220.176 166.794C218.406 166.794 216.924 165.186 216.924 163.266C216.924 161.295 218.406 159.739 220.176 159.739C221.993 159.739 223.428 161.295 223.428 163.266Z" fill="#465C88" fill-opacity="0.4"/>
<path d="M250.352 163.266C250.352 165.186 248.917 166.794 247.1 166.794C245.283 166.794 243.848 165.186 243.848 163.266C243.848 161.295 245.283 159.739 247.1 159.739C248.917 159.739 250.352 161.295 250.352 163.266Z" fill="#465C88" fill-opacity="0.4"/>
<path d="M277.276 163.266C277.276 165.186 275.793 166.794 274.024 166.794C272.207 166.794 270.772 165.186 270.772 163.266C270.772 161.295 272.207 159.739 274.024 159.739C275.793 159.739 277.276 161.295 277.276 163.266Z" fill="#465C88" fill-opacity="0.4"/>
<path d="M304.2 163.266C304.2 165.186 302.717 166.794 300.948 166.794C299.131 166.794 297.696 165.186 297.696 163.266C297.696 161.295 299.131 159.739 300.948 159.739C302.717 159.739 304.2 161.295 304.2 163.266Z" fill="#465C88" fill-opacity="0.4"/>
<path d="M331.076 163.266C331.076 165.186 329.641 166.794 327.824 166.794C326.055 166.794 324.62 165.186 324.62 163.266C324.62 161.295 326.055 159.739 327.824 159.739C329.641 159.739 331.076 161.295 331.076 163.266Z" fill="#465C88" fill-opacity="0.4"/>
<path d="M358 163.266C358 165.186 356.565 166.794 354.748 166.794C352.979 166.794 351.496 165.186 351.496 163.266C351.496 161.295 352.979 159.739 354.748 159.739C356.565 159.739 358 161.295 358 163.266Z" fill="#465C88" fill-opacity="0.4"/>
<path d="M6.50366 183.476C6.50366 185.447 5.06908 187.004 3.25183 187.004C1.4824 187.004 0 185.447 0 183.476C0 181.556 1.4824 180 3.25183 180C5.06908 180 6.50366 181.556 6.50366 183.476Z" fill="#465C88" fill-opacity="0.4"/>
<path d="M33.4278 183.476C33.4278 185.447 31.993 187.004 30.1758 187.004C28.4064 187.004 26.924 185.447 26.924 183.476C26.924 181.556 28.4064 180 30.1758 180C31.993 180 33.4278 181.556 33.4278 183.476Z" fill="#465C88" fill-opacity="0.4"/>
<path d="M60.3517 183.476C60.3517 185.447 58.9171 187.004 57.0998 187.004C55.2826 187.004 53.8478 185.447 53.8478 183.476C53.8478 181.556 55.2826 180 57.0998 180C58.9171 180 60.3517 181.556 60.3517 183.476Z" fill="#465C88" fill-opacity="0.4"/>
<path d="M87.2759 183.476C87.2759 185.447 85.7932 187.004 84.0238 187.004C82.2066 187.004 80.772 185.447 80.772 183.476C80.772 181.556 82.2066 180 84.0238 180C85.7932 180 87.2759 181.556 87.2759 183.476Z" fill="#465C88" fill-opacity="0.4"/>
<path d="M114.2 183.476C114.2 185.447 112.717 187.004 110.948 187.004C109.131 187.004 107.696 185.447 107.696 183.476C107.696 181.556 109.131 180 110.948 180C112.717 180 114.2 181.556 114.2 183.476Z" fill="#465C88" fill-opacity="0.4"/>
<path d="M141.076 183.476C141.076 185.447 139.641 187.004 137.824 187.004C136.055 187.004 134.62 185.447 134.62 183.476C134.62 181.556 136.055 180 137.824 180C139.641 180 141.076 181.556 141.076 183.476Z" fill="#465C88" fill-opacity="0.4"/>
<path d="M168 183.476C168 185.447 166.565 187.004 164.748 187.004C162.979 187.004 161.496 185.447 161.496 183.476C161.496 181.556 162.979 180 164.748 180C166.565 180 168 181.556 168 183.476Z" fill="#465C88" fill-opacity="0.4"/>
<path d="M6.50366 206.303C6.50366 208.275 5.06908 209.831 3.25183 209.831C1.4824 209.831 0 208.275 0 206.303C0 204.384 1.4824 202.775 3.25183 202.775C5.06908 202.775 6.50366 204.384 6.50366 206.303Z" fill="#465C88" fill-opacity="0.4"/>
<path d="M33.4278 206.303C33.4278 208.275 31.993 209.831 30.1758 209.831C28.4064 209.831 26.924 208.275 26.924 206.303C26.924 204.384 28.4064 202.775 30.1758 202.775C31.993 202.775 33.4278 204.384 33.4278 206.303Z" fill="#465C88" fill-opacity="0.4"/>
<path d="M60.3517 206.303C60.3517 208.275 58.9171 209.831 57.0998 209.831C55.2826 209.831 53.8478 208.275 53.8478 206.303C53.8478 204.384 55.2826 202.775 57.0998 202.775C58.9171 202.775 60.3517 204.384 60.3517 206.303Z" fill="#465C88" fill-opacity="0.4"/>
<path d="M87.2759 206.303C87.2759 208.275 85.7932 209.831 84.0238 209.831C82.2066 209.831 80.772 208.275 80.772 206.303C80.772 204.384 82.2066 202.775 84.0238 202.775C85.7932 202.775 87.2759 204.384 87.2759 206.303Z" fill="#465C88" fill-opacity="0.4"/>
<path d="M114.2 206.303C114.2 208.275 112.717 209.831 110.948 209.831C109.131 209.831 107.696 208.275 107.696 206.303C107.696 204.384 109.131 202.775 110.948 202.775C112.717 202.775 114.2 204.384 114.2 206.303Z" fill="#465C88" fill-opacity="0.4"/>
<path d="M141.076 206.303C141.076 208.275 139.641 209.831 137.824 209.831C136.055 209.831 134.62 208.275 134.62 206.303C134.62 204.384 136.055 202.775 137.824 202.775C139.641 202.775 141.076 204.384 141.076 206.303Z" fill="#465C88" fill-opacity="0.4"/>
<path d="M168 206.303C168 208.275 166.565 209.831 164.748 209.831C162.979 209.831 161.496 208.275 161.496 206.303C161.496 204.384 162.979 202.775 164.748 202.775C166.565 202.775 168 204.384 168 206.303Z" fill="#465C88" fill-opacity="0.4"/>
<path d="M6.50366 229.13C6.50366 231.102 5.06908 232.658 3.25183 232.658C1.4824 232.658 0 231.102 0 229.13C0 227.211 1.4824 225.603 3.25183 225.603C5.06908 225.603 6.50366 227.211 6.50366 229.13Z" fill="#465C88" fill-opacity="0.4"/>
<path d="M33.4278 229.13C33.4278 231.102 31.993 232.658 30.1758 232.658C28.4064 232.658 26.924 231.102 26.924 229.13C26.924 227.211 28.4064 225.603 30.1758 225.603C31.993 225.603 33.4278 227.211 33.4278 229.13Z" fill="#465C88" fill-opacity="0.4"/>
<path d="M60.3517 229.13C60.3517 231.102 58.9171 232.658 57.0998 232.658C55.2826 232.658 53.8478 231.102 53.8478 229.13C53.8478 227.211 55.2826 225.603 57.0998 225.603C58.9171 225.603 60.3517 227.211 60.3517 229.13Z" fill="#465C88" fill-opacity="0.4"/>
<path d="M87.2759 229.13C87.2759 231.102 85.7932 232.658 84.0238 232.658C82.2066 232.658 80.772 231.102 80.772 229.13C80.772 227.211 82.2066 225.603 84.0238 225.603C85.7932 225.603 87.2759 227.211 87.2759 229.13Z" fill="#465C88" fill-opacity="0.4"/>
<path d="M114.2 229.13C114.2 231.102 112.717 232.658 110.948 232.658C109.131 232.658 107.696 231.102 107.696 229.13C107.696 227.211 109.131 225.603 110.948 225.603C112.717 225.603 114.2 227.211 114.2 229.13Z" fill="#465C88" fill-opacity="0.4"/>
<path d="M141.076 229.13C141.076 231.102 139.641 232.658 137.824 232.658C136.055 232.658 134.62 231.102 134.62 229.13C134.62 227.211 136.055 225.603 137.824 225.603C139.641 225.603 141.076 227.211 141.076 229.13Z" fill="#465C88" fill-opacity="0.4"/>
<path d="M168 229.13C168 231.102 166.565 232.658 164.748 232.658C162.979 232.658 161.496 231.102 161.496 229.13C161.496 227.211 162.979 225.603 164.748 225.603C166.565 225.603 168 227.211 168 229.13Z" fill="#465C88" fill-opacity="0.4"/>
<path d="M6.50366 251.958C6.50366 253.929 5.06908 255.485 3.25183 255.485C1.4824 255.485 0 253.929 0 251.958C0 250.038 1.4824 248.43 3.25183 248.43C5.06908 248.43 6.50366 250.038 6.50366 251.958Z" fill="#465C88" fill-opacity="0.4"/>
<path d="M33.4278 251.958C33.4278 253.929 31.993 255.485 30.1758 255.485C28.4064 255.485 26.924 253.929 26.924 251.958C26.924 250.038 28.4064 248.43 30.1758 248.43C31.993 248.43 33.4278 250.038 33.4278 251.958Z" fill="#465C88" fill-opacity="0.4"/>
<path d="M60.3517 251.958C60.3517 253.929 58.9171 255.485 57.0998 255.485C55.2826 255.485 53.8478 253.929 53.8478 251.958C53.8478 250.038 55.2826 248.43 57.0998 248.43C58.9171 248.43 60.3517 250.038 60.3517 251.958Z" fill="#465C88" fill-opacity="0.4"/>
<path d="M87.2759 251.958C87.2759 253.929 85.7932 255.485 84.0238 255.485C82.2066 255.485 80.772 253.929 80.772 251.958C80.772 250.038 82.2066 248.43 84.0238 248.43C85.7932 248.43 87.2759 250.038 87.2759 251.958Z" fill="#465C88" fill-opacity="0.4"/>
<path d="M114.2 251.958C114.2 253.929 112.717 255.485 110.948 255.485C109.131 255.485 107.696 253.929 107.696 251.958C107.696 250.038 109.131 248.43 110.948 248.43C112.717 248.43 114.2 250.038 114.2 251.958Z" fill="#465C88" fill-opacity="0.4"/>
<path d="M141.076 251.958C141.076 253.929 139.641 255.485 137.824 255.485C136.055 255.485 134.62 253.929 134.62 251.958C134.62 250.038 136.055 248.43 137.824 248.43C139.641 248.43 141.076 250.038 141.076 251.958Z" fill="#465C88" fill-opacity="0.4"/>
<path d="M168 251.958C168 253.929 166.565 255.485 164.748 255.485C162.979 255.485 161.496 253.929 161.496 251.958C161.496 250.038 162.979 248.43 164.748 248.43C166.565 248.43 168 250.038 168 251.958Z" fill="#465C88" fill-opacity="0.4"/>
<path d="M6.50366 274.785C6.50366 276.756 5.06908 278.313 3.25183 278.313C1.4824 278.313 0 276.756 0 274.785C0 272.865 1.4824 271.257 3.25183 271.257C5.06908 271.257 6.50366 272.865 6.50366 274.785Z" fill="#465C88" fill-opacity="0.4"/>
<path d="M33.4278 274.785C33.4278 276.756 31.993 278.313 30.1758 278.313C28.4064 278.313 26.924 276.756 26.924 274.785C26.924 272.865 28.4064 271.257 30.1758 271.257C31.993 271.257 33.4278 272.865 33.4278 274.785Z" fill="#465C88" fill-opacity="0.4"/>
<path d="M60.3517 274.785C60.3517 276.756 58.9171 278.313 57.0998 278.313C55.2826 278.313 53.8478 276.756 53.8478 274.785C53.8478 272.865 55.2826 271.257 57.0998 271.257C58.9171 271.257 60.3517 272.865 60.3517 274.785Z" fill="#465C88" fill-opacity="0.4"/>
<path d="M87.2759 274.785C87.2759 276.756 85.7932 278.313 84.0238 278.313C82.2066 278.313 80.772 276.756 80.772 274.785C80.772 272.865 82.2066 271.257 84.0238 271.257C85.7932 271.257 87.2759 272.865 87.2759 274.785Z" fill="#465C88" fill-opacity="0.4"/>
<path d="M114.2 274.785C114.2 276.756 112.717 278.313 110.948 278.313C109.131 278.313 107.696 276.756 107.696 274.785C107.696 272.865 109.131 271.257 110.948 271.257C112.717 271.257 114.2 272.865 114.2 274.785Z" fill="#465C88" fill-opacity="0.4"/>
<path d="M141.076 274.785C141.076 276.756 139.641 278.313 137.824 278.313C136.055 278.313 134.62 276.756 134.62 274.785C134.62 272.865 136.055 271.257 137.824 271.257C139.641 271.257 141.076 272.865 141.076 274.785Z" fill="#465C88" fill-opacity="0.4"/>
<path d="M168 274.785C168 276.756 166.565 278.313 164.748 278.313C162.979 278.313 161.496 276.756 161.496 274.785C161.496 272.865 162.979 271.257 164.748 271.257C166.565 271.257 168 272.865 168 274.785Z" fill="#465C88" fill-opacity="0.4"/>
<path d="M6.50366 297.612C6.50366 299.583 5.06908 301.14 3.25183 301.14C1.4824 301.14 0 299.583 0 297.612C0 295.641 1.4824 294.084 3.25183 294.084C5.06908 294.084 6.50366 295.641 6.50366 297.612Z" fill="#465C88" fill-opacity="0.4"/>
<path d="M33.4278 297.612C33.4278 299.583 31.993 301.14 30.1758 301.14C28.4064 301.14 26.924 299.583 26.924 297.612C26.924 295.641 28.4064 294.084 30.1758 294.084C31.993 294.084 33.4278 295.641 33.4278 297.612Z" fill="#465C88" fill-opacity="0.4"/>
<path d="M60.3517 297.612C60.3517 299.583 58.9171 301.14 57.0998 301.14C55.2826 301.14 53.8478 299.583 53.8478 297.612C53.8478 295.641 55.2826 294.084 57.0998 294.084C58.9171 294.084 60.3517 295.641 60.3517 297.612Z" fill="#465C88" fill-opacity="0.4"/>
<path d="M87.2759 297.612C87.2759 299.583 85.7932 301.14 84.0238 301.14C82.2066 301.14 80.772 299.583 80.772 297.612C80.772 295.641 82.2066 294.084 84.0238 294.084C85.7932 294.084 87.2759 295.641 87.2759 297.612Z" fill="#465C88" fill-opacity="0.4"/>
<path d="M114.2 297.612C114.2 299.583 112.717 301.14 110.948 301.14C109.131 301.14 107.696 299.583 107.696 297.612C107.696 295.641 109.131 294.084 110.948 294.084C112.717 294.084 114.2 295.641 114.2 297.612Z" fill="#465C88" fill-opacity="0.4"/>
<path d="M141.076 297.612C141.076 299.583 139.641 301.14 137.824 301.14C136.055 301.14 134.62 299.583 134.62 297.612C134.62 295.641 136.055 294.084 137.824 294.084C139.641 294.084 141.076 295.641 141.076 297.612Z" fill="#465C88" fill-opacity="0.4"/>
<path d="M168 297.612C168 299.583 166.565 301.14 164.748 301.14C162.979 301.14 161.496 299.583 161.496 297.612C161.496 295.641 162.979 294.084 164.748 294.084C166.565 294.084 168 295.641 168 297.612Z" fill="#465C88" fill-opacity="0.4"/>
<path d="M6.50366 320.439C6.50366 322.359 5.06908 323.967 3.25183 323.967C1.4824 323.967 0 322.359 0 320.439C0 318.468 1.4824 316.911 3.25183 316.911C5.06908 316.911 6.50366 318.468 6.50366 320.439Z" fill="#465C88" fill-opacity="0.4"/>
<path d="M33.4278 320.439C33.4278 322.359 31.993 323.967 30.1758 323.967C28.4064 323.967 26.924 322.359 26.924 320.439C26.924 318.468 28.4064 316.911 30.1758 316.911C31.993 316.911 33.4278 318.468 33.4278 320.439Z" fill="#465C88" fill-opacity="0.4"/>
<path d="M60.3517 320.439C60.3517 322.359 58.9171 323.967 57.0998 323.967C55.2826 323.967 53.8478 322.359 53.8478 320.439C53.8478 318.468 55.2826 316.911 57.0998 316.911C58.9171 316.911 60.3517 318.468 60.3517 320.439Z" fill="#465C88" fill-opacity="0.4"/>
<path d="M87.2759 320.439C87.2759 322.359 85.7932 323.967 84.0238 323.967C82.2066 323.967 80.772 322.359 80.772 320.439C80.772 318.468 82.2066 316.911 84.0238 316.911C85.7932 316.911 87.2759 318.468 87.2759 320.439Z" fill="#465C88" fill-opacity="0.4"/>
<path d="M114.2 320.439C114.2 322.359 112.717 323.967 110.948 323.967C109.131 323.967 107.696 322.359 107.696 320.439C107.696 318.468 109.131 316.911 110.948 316.911C112.717 316.911 114.2 318.468 114.2 320.439Z" fill="#465C88" fill-opacity="0.4"/>
<path d="M141.076 320.439C141.076 322.359 139.641 323.967 137.824 323.967C136.055 323.967 134.62 322.359 134.62 320.439C134.62 318.468 136.055 316.911 137.824 316.911C139.641 316.911 141.076 318.468 141.076 320.439Z" fill="#465C88" fill-opacity="0.4"/>
<path d="M168 320.439C168 322.359 166.565 323.967 164.748 323.967C162.979 323.967 161.496 322.359 161.496 320.439C161.496 318.468 162.979 316.911 164.748 316.911C166.565 316.911 168 318.468 168 320.439Z" fill="#465C88" fill-opacity="0.4"/>
<path d="M6.50366 343.266C6.50366 345.186 5.06908 346.794 3.25183 346.794C1.4824 346.794 0 345.186 0 343.266C0 341.295 1.4824 339.739 3.25183 339.739C5.06908 339.739 6.50366 341.295 6.50366 343.266Z" fill="#465C88" fill-opacity="0.4"/>
<path d="M33.4278 343.266C33.4278 345.186 31.993 346.794 30.1758 346.794C28.4064 346.794 26.924 345.186 26.924 343.266C26.924 341.295 28.4064 339.739 30.1758 339.739C31.993 339.739 33.4278 341.295 33.4278 343.266Z" fill="#465C88" fill-opacity="0.4"/>
<path d="M60.3517 343.266C60.3517 345.186 58.9171 346.794 57.0998 346.794C55.2826 346.794 53.8478 345.186 53.8478 343.266C53.8478 341.295 55.2826 339.739 57.0998 339.739C58.9171 339.739 60.3517 341.295 60.3517 343.266Z" fill="#465C88" fill-opacity="0.4"/>
<path d="M87.2759 343.266C87.2759 345.186 85.7932 346.794 84.0238 346.794C82.2066 346.794 80.772 345.186 80.772 343.266C80.772 341.295 82.2066 339.739 84.0238 339.739C85.7932 339.739 87.2759 341.295 87.2759 343.266Z" fill="#465C88" fill-opacity="0.4"/>
<path d="M114.2 343.266C114.2 345.186 112.717 346.794 110.948 346.794C109.131 346.794 107.696 345.186 107.696 343.266C107.696 341.295 109.131 339.739 110.948 339.739C112.717 339.739 114.2 341.295 114.2 343.266Z" fill="#465C88" fill-opacity="0.4"/>
<path d="M141.076 343.266C141.076 345.186 139.641 346.794 137.824 346.794C136.055 346.794 134.62 345.186 134.62 343.266C134.62 341.295 136.055 339.739 137.824 339.739C139.641 339.739 141.076 341.295 141.076 343.266Z" fill="#465C88" fill-opacity="0.4"/>
<path d="M168 343.266C168 345.186 166.565 346.794 164.748 346.794C162.979 346.794 161.496 345.186 161.496 343.266C161.496 341.295 162.979 339.739 164.748 339.739C166.565 339.739 168 341.295 168 343.266Z" fill="#465C88" fill-opacity="0.4"/>
<path d="M196.504 183.476C196.504 185.447 195.069 187.004 193.252 187.004C191.482 187.004 190 185.447 190 183.476C190 181.556 191.482 180 193.252 180C195.069 180 196.504 181.556 196.504 183.476Z" fill="#465C88" fill-opacity="0.4"/>
<path d="M223.428 183.476C223.428 185.447 221.993 187.004 220.176 187.004C218.406 187.004 216.924 185.447 216.924 183.476C216.924 181.556 218.406 180 220.176 180C221.993 180 223.428 181.556 223.428 183.476Z" fill="#465C88" fill-opacity="0.4"/>
<path d="M250.352 183.476C250.352 185.447 248.917 187.004 247.1 187.004C245.283 187.004 243.848 185.447 243.848 183.476C243.848 181.556 245.283 180 247.1 180C248.917 180 250.352 181.556 250.352 183.476Z" fill="#465C88" fill-opacity="0.4"/>
<path d="M277.276 183.476C277.276 185.447 275.793 187.004 274.024 187.004C272.207 187.004 270.772 185.447 270.772 183.476C270.772 181.556 272.207 180 274.024 180C275.793 180 277.276 181.556 277.276 183.476Z" fill="#465C88" fill-opacity="0.4"/>
<path d="M304.2 183.476C304.2 185.447 302.717 187.004 300.948 187.004C299.131 187.004 297.696 185.447 297.696 183.476C297.696 181.556 299.131 180 300.948 180C302.717 180 304.2 181.556 304.2 183.476Z" fill="#465C88" fill-opacity="0.4"/>
<path d="M331.076 183.476C331.076 185.447 329.641 187.004 327.824 187.004C326.055 187.004 324.62 185.447 324.62 183.476C324.62 181.556 326.055 180 327.824 180C329.641 180 331.076 181.556 331.076 183.476Z" fill="#465C88" fill-opacity="0.4"/>
<path d="M358 183.476C358 185.447 356.565 187.004 354.748 187.004C352.979 187.004 351.496 185.447 351.496 183.476C351.496 181.556 352.979 180 354.748 180C356.565 180 358 181.556 358 183.476Z" fill="#465C88" fill-opacity="0.4"/>
<path d="M196.504 206.303C196.504 208.275 195.069 209.831 193.252 209.831C191.482 209.831 190 208.275 190 206.303C190 204.384 191.482 202.775 193.252 202.775C195.069 202.775 196.504 204.384 196.504 206.303Z" fill="#465C88" fill-opacity="0.4"/>
<path d="M223.428 206.303C223.428 208.275 221.993 209.831 220.176 209.831C218.406 209.831 216.924 208.275 216.924 206.303C216.924 204.384 218.406 202.775 220.176 202.775C221.993 202.775 223.428 204.384 223.428 206.303Z" fill="#465C88" fill-opacity="0.4"/>
<path d="M250.352 206.303C250.352 208.275 248.917 209.831 247.1 209.831C245.283 209.831 243.848 208.275 243.848 206.303C243.848 204.384 245.283 202.775 247.1 202.775C248.917 202.775 250.352 204.384 250.352 206.303Z" fill="#465C88" fill-opacity="0.4"/>
<path d="M277.276 206.303C277.276 208.275 275.793 209.831 274.024 209.831C272.207 209.831 270.772 208.275 270.772 206.303C270.772 204.384 272.207 202.775 274.024 202.775C275.793 202.775 277.276 204.384 277.276 206.303Z" fill="#465C88" fill-opacity="0.4"/>
<path d="M304.2 206.303C304.2 208.275 302.717 209.831 300.948 209.831C299.131 209.831 297.696 208.275 297.696 206.303C297.696 204.384 299.131 202.775 300.948 202.775C302.717 202.775 304.2 204.384 304.2 206.303Z" fill="#465C88" fill-opacity="0.4"/>
<path d="M331.076 206.303C331.076 208.275 329.641 209.831 327.824 209.831C326.055 209.831 324.62 208.275 324.62 206.303C324.62 204.384 326.055 202.775 327.824 202.775C329.641 202.775 331.076 204.384 331.076 206.303Z" fill="#465C88" fill-opacity="0.4"/>
<path d="M358 206.303C358 208.275 356.565 209.831 354.748 209.831C352.979 209.831 351.496 208.275 351.496 206.303C351.496 204.384 352.979 202.775 354.748 202.775C356.565 202.775 358 204.384 358 206.303Z" fill="#465C88" fill-opacity="0.4"/>
<path d="M196.504 229.13C196.504 231.102 195.069 232.658 193.252 232.658C191.482 232.658 190 231.102 190 229.13C190 227.211 191.482 225.603 193.252 225.603C195.069 225.603 196.504 227.211 196.504 229.13Z" fill="#465C88" fill-opacity="0.4"/>
<path d="M223.428 229.13C223.428 231.102 221.993 232.658 220.176 232.658C218.406 232.658 216.924 231.102 216.924 229.13C216.924 227.211 218.406 225.603 220.176 225.603C221.993 225.603 223.428 227.211 223.428 229.13Z" fill="#465C88" fill-opacity="0.4"/>
<path d="M250.352 229.13C250.352 231.102 248.917 232.658 247.1 232.658C245.283 232.658 243.848 231.102 243.848 229.13C243.848 227.211 245.283 225.603 247.1 225.603C248.917 225.603 250.352 227.211 250.352 229.13Z" fill="#465C88" fill-opacity="0.4"/>
<path d="M277.276 229.13C277.276 231.102 275.793 232.658 274.024 232.658C272.207 232.658 270.772 231.102 270.772 229.13C270.772 227.211 272.207 225.603 274.024 225.603C275.793 225.603 277.276 227.211 277.276 229.13Z" fill="#465C88" fill-opacity="0.4"/>
<path d="M304.2 229.13C304.2 231.102 302.717 232.658 300.948 232.658C299.131 232.658 297.696 231.102 297.696 229.13C297.696 227.211 299.131 225.603 300.948 225.603C302.717 225.603 304.2 227.211 304.2 229.13Z" fill="#465C88" fill-opacity="0.4"/>
<path d="M331.076 229.13C331.076 231.102 329.641 232.658 327.824 232.658C326.055 232.658 324.62 231.102 324.62 229.13C324.62 227.211 326.055 225.603 327.824 225.603C329.641 225.603 331.076 227.211 331.076 229.13Z" fill="#465C88" fill-opacity="0.4"/>
<path d="M358 229.13C358 231.102 356.565 232.658 354.748 232.658C352.979 232.658 351.496 231.102 351.496 229.13C351.496 227.211 352.979 225.603 354.748 225.603C356.565 225.603 358 227.211 358 229.13Z" fill="#465C88" fill-opacity="0.4"/>
<path d="M196.504 251.958C196.504 253.929 195.069 255.485 193.252 255.485C191.482 255.485 190 253.929 190 251.958C190 250.038 191.482 248.43 193.252 248.43C195.069 248.43 196.504 250.038 196.504 251.958Z" fill="#465C88" fill-opacity="0.4"/>
<path d="M223.428 251.958C223.428 253.929 221.993 255.485 220.176 255.485C218.406 255.485 216.924 253.929 216.924 251.958C216.924 250.038 218.406 248.43 220.176 248.43C221.993 248.43 223.428 250.038 223.428 251.958Z" fill="#465C88" fill-opacity="0.4"/>
<path d="M250.352 251.958C250.352 253.929 248.917 255.485 247.1 255.485C245.283 255.485 243.848 253.929 243.848 251.958C243.848 250.038 245.283 248.43 247.1 248.43C248.917 248.43 250.352 250.038 250.352 251.958Z" fill="#465C88" fill-opacity="0.4"/>
<path d="M277.276 251.958C277.276 253.929 275.793 255.485 274.024 255.485C272.207 255.485 270.772 253.929 270.772 251.958C270.772 250.038 272.207 248.43 274.024 248.43C275.793 248.43 277.276 250.038 277.276 251.958Z" fill="#465C88" fill-opacity="0.4"/>
<path d="M304.2 251.958C304.2 253.929 302.717 255.485 300.948 255.485C299.131 255.485 297.696 253.929 297.696 251.958C297.696 250.038 299.131 248.43 300.948 248.43C302.717 248.43 304.2 250.038 304.2 251.958Z" fill="#465C88" fill-opacity="0.4"/>
<path d="M331.076 251.958C331.076 253.929 329.641 255.485 327.824 255.485C326.055 255.485 324.62 253.929 324.62 251.958C324.62 250.038 326.055 248.43 327.824 248.43C329.641 248.43 331.076 250.038 331.076 251.958Z" fill="#465C88" fill-opacity="0.4"/>
<path d="M358 251.958C358 253.929 356.565 255.485 354.748 255.485C352.979 255.485 351.496 253.929 351.496 251.958C351.496 250.038 352.979 248.43 354.748 248.43C356.565 248.43 358 250.038 358 251.958Z" fill="#465C88" fill-opacity="0.4"/>
<path d="M196.504 274.785C196.504 276.756 195.069 278.313 193.252 278.313C191.482 278.313 190 276.756 190 274.785C190 272.865 191.482 271.257 193.252 271.257C195.069 271.257 196.504 272.865 196.504 274.785Z" fill="#465C88" fill-opacity="0.4"/>
<path d="M223.428 274.785C223.428 276.756 221.993 278.313 220.176 278.313C218.406 278.313 216.924 276.756 216.924 274.785C216.924 272.865 218.406 271.257 220.176 271.257C221.993 271.257 223.428 272.865 223.428 274.785Z" fill="#465C88" fill-opacity="0.4"/>
<path d="M250.352 274.785C250.352 276.756 248.917 278.313 247.1 278.313C245.283 278.313 243.848 276.756 243.848 274.785C243.848 272.865 245.283 271.257 247.1 271.257C248.917 271.257 250.352 272.865 250.352 274.785Z" fill="#465C88" fill-opacity="0.4"/>
<path d="M277.276 274.785C277.276 276.756 275.793 278.313 274.024 278.313C272.207 278.313 270.772 276.756 270.772 274.785C270.772 272.865 272.207 271.257 274.024 271.257C275.793 271.257 277.276 272.865 277.276 274.785Z" fill="#465C88" fill-opacity="0.4"/>
<path d="M304.2 274.785C304.2 276.756 302.717 278.313 300.948 278.313C299.131 278.313 297.696 276.756 297.696 274.785C297.696 272.865 299.131 271.257 300.948 271.257C302.717 271.257 304.2 272.865 304.2 274.785Z" fill="#465C88" fill-opacity="0.4"/>
<path d="M331.076 274.785C331.076 276.756 329.641 278.313 327.824 278.313C326.055 278.313 324.62 276.756 324.62 274.785C324.62 272.865 326.055 271.257 327.824 271.257C329.641 271.257 331.076 272.865 331.076 274.785Z" fill="#465C88" fill-opacity="0.4"/>
<path d="M358 274.785C358 276.756 356.565 278.313 354.748 278.313C352.979 278.313 351.496 276.756 351.496 274.785C351.496 272.865 352.979 271.257 354.748 271.257C356.565 271.257 358 272.865 358 274.785Z" fill="#465C88" fill-opacity="0.4"/>
<path d="M196.504 297.612C196.504 299.583 195.069 301.14 193.252 301.14C191.482 301.14 190 299.583 190 297.612C190 295.641 191.482 294.084 193.252 294.084C195.069 294.084 196.504 295.641 196.504 297.612Z" fill="#465C88" fill-opacity="0.4"/>
<path d="M223.428 297.612C223.428 299.583 221.993 301.14 220.176 301.14C218.406 301.14 216.924 299.583 216.924 297.612C216.924 295.641 218.406 294.084 220.176 294.084C221.993 294.084 223.428 295.641 223.428 297.612Z" fill="#465C88" fill-opacity="0.4"/>
<path d="M250.352 297.612C250.352 299.583 248.917 301.14 247.1 301.14C245.283 301.14 243.848 299.583 243.848 297.612C243.848 295.641 245.283 294.084 247.1 294.084C248.917 294.084 250.352 295.641 250.352 297.612Z" fill="#465C88" fill-opacity="0.4"/>
<path d="M277.276 297.612C277.276 299.583 275.793 301.14 274.024 301.14C272.207 301.14 270.772 299.583 270.772 297.612C270.772 295.641 272.207 294.084 274.024 294.084C275.793 294.084 277.276 295.641 277.276 297.612Z" fill="#465C88" fill-opacity="0.4"/>
<path d="M304.2 297.612C304.2 299.583 302.717 301.14 300.948 301.14C299.131 301.14 297.696 299.583 297.696 297.612C297.696 295.641 299.131 294.084 300.948 294.084C302.717 294.084 304.2 295.641 304.2 297.612Z" fill="#465C88" fill-opacity="0.4"/>
<path d="M331.076 297.612C331.076 299.583 329.641 301.14 327.824 301.14C326.055 301.14 324.62 299.583 324.62 297.612C324.62 295.641 326.055 294.084 327.824 294.084C329.641 294.084 331.076 295.641 331.076 297.612Z" fill="#465C88" fill-opacity="0.4"/>
<path d="M358 297.612C358 299.583 356.565 301.14 354.748 301.14C352.979 301.14 351.496 299.583 351.496 297.612C351.496 295.641 352.979 294.084 354.748 294.084C356.565 294.084 358 295.641 358 297.612Z" fill="#465C88" fill-opacity="0.4"/>
<path d="M196.504 320.439C196.504 322.359 195.069 323.967 193.252 323.967C191.482 323.967 190 322.359 190 320.439C190 318.468 191.482 316.911 193.252 316.911C195.069 316.911 196.504 318.468 196.504 320.439Z" fill="#465C88" fill-opacity="0.4"/>
<path d="M223.428 320.439C223.428 322.359 221.993 323.967 220.176 323.967C218.406 323.967 216.924 322.359 216.924 320.439C216.924 318.468 218.406 316.911 220.176 316.911C221.993 316.911 223.428 318.468 223.428 320.439Z" fill="#465C88" fill-opacity="0.4"/>
<path d="M250.352 320.439C250.352 322.359 248.917 323.967 247.1 323.967C245.283 323.967 243.848 322.359 243.848 320.439C243.848 318.468 245.283 316.911 247.1 316.911C248.917 316.911 250.352 318.468 250.352 320.439Z" fill="#465C88" fill-opacity="0.4"/>
<path d="M277.276 320.439C277.276 322.359 275.793 323.967 274.024 323.967C272.207 323.967 270.772 322.359 270.772 320.439C270.772 318.468 272.207 316.911 274.024 316.911C275.793 316.911 277.276 318.468 277.276 320.439Z" fill="#465C88" fill-opacity="0.4"/>
<path d="M304.2 320.439C304.2 322.359 302.717 323.967 300.948 323.967C299.131 323.967 297.696 322.359 297.696 320.439C297.696 318.468 299.131 316.911 300.948 316.911C302.717 316.911 304.2 318.468 304.2 320.439Z" fill="#465C88" fill-opacity="0.4"/>
<path d="M331.076 320.439C331.076 322.359 329.641 323.967 327.824 323.967C326.055 323.967 324.62 322.359 324.62 320.439C324.62 318.468 326.055 316.911 327.824 316.911C329.641 316.911 331.076 318.468 331.076 320.439Z" fill="#465C88" fill-opacity="0.4"/>
<path d="M358 320.439C358 322.359 356.565 323.967 354.748 323.967C352.979 323.967 351.496 322.359 351.496 320.439C351.496 318.468 352.979 316.911 354.748 316.911C356.565 316.911 358 318.468 358 320.439Z" fill="#465C88" fill-opacity="0.4"/>
<path d="M196.504 343.266C196.504 345.186 195.069 346.794 193.252 346.794C191.482 346.794 190 345.186 190 343.266C190 341.295 191.482 339.739 193.252 339.739C195.069 339.739 196.504 341.295 196.504 343.266Z" fill="#465C88" fill-opacity="0.4"/>
<path d="M223.428 343.266C223.428 345.186 221.993 346.794 220.176 346.794C218.406 346.794 216.924 345.186 216.924 343.266C216.924 341.295 218.406 339.739 220.176 339.739C221.993 339.739 223.428 341.295 223.428 343.266Z" fill="#465C88" fill-opacity="0.4"/>
<path d="M250.352 343.266C250.352 345.186 248.917 346.794 247.1 346.794C245.283 346.794 243.848 345.186 243.848 343.266C243.848 341.295 245.283 339.739 247.1 339.739C248.917 339.739 250.352 341.295 250.352 343.266Z" fill="#465C88" fill-opacity="0.4"/>
<path d="M277.276 343.266C277.276 345.186 275.793 346.794 274.024 346.794C272.207 346.794 270.772 345.186 270.772 343.266C270.772 341.295 272.207 339.739 274.024 339.739C275.793 339.739 277.276 341.295 277.276 343.266Z" fill="#465C88" fill-opacity="0.4"/>
<path d="M304.2 343.266C304.2 345.186 302.717 346.794 300.948 346.794C299.131 346.794 297.696 345.186 297.696 343.266C297.696 341.295 299.131 339.739 300.948 339.739C302.717 339.739 304.2 341.295 304.2 343.266Z" fill="#465C88" fill-opacity="0.4"/>
<path d="M331.076 343.266C331.076 345.186 329.641 346.794 327.824 346.794C326.055 346.794 324.62 345.186 324.62 343.266C324.62 341.295 326.055 339.739 327.824 339.739C329.641 339.739 331.076 341.295 331.076 343.266Z" fill="#465C88" fill-opacity="0.4"/>
<path d="M358 343.266C358 345.186 356.565 346.794 354.748 346.794C352.979 346.794 351.496 345.186 351.496 343.266C351.496 341.295 352.979 339.739 354.748 339.739C356.565 339.739 358 341.295 358 343.266Z" fill="#465C88" fill-opacity="0.4"/>
</svg>
