<svg width="564" height="158" viewBox="0 0 564 158" fill="none" xmlns="http://www.w3.org/2000/svg">
<path d="M562 119.838L519.828 147.889C503.371 158.704 476.628 158.704 460.171 147.889L447.828 139.665C431.371 128.737 404.628 128.737 388.171 139.665L375.828 147.889C359.371 158.704 332.628 158.704 316.171 147.889L303.828 139.665C287.371 128.737 260.628 128.737 244.171 139.665L231.828 147.889C215.371 158.704 188.628 158.704 172.171 147.889L159.828 139.665C143.371 128.737 116.628 128.737 100.171 139.665L87.8284 147.889C71.3713 158.704 44.6283 158.704 28.1712 147.889L-14 119.838" stroke="#465C88" stroke-opacity="0.4" stroke-width="4" stroke-miterlimit="10"/>
<path d="M562 90.3219L519.828 118.373C503.371 129.301 476.628 129.301 460.171 118.373L447.828 110.149C431.371 99.2217 404.628 99.2217 388.171 110.149L375.828 118.373C359.371 129.301 332.628 129.301 316.171 118.373L303.828 110.149C287.371 99.2217 260.628 99.2217 244.171 110.149L231.828 118.373C215.371 129.301 188.628 129.301 172.171 118.373L159.828 110.149C143.371 99.2217 116.628 99.2217 100.171 110.149L87.8284 118.373C71.3713 129.301 44.6283 129.301 28.1712 118.373L-14 90.322" stroke="#465C88" stroke-opacity="0.4" stroke-width="4" stroke-miterlimit="10"/>
<path d="M562 60.9188L519.828 88.8574C503.371 99.7849 476.628 99.7849 460.171 88.8574L447.828 80.7462C431.371 69.8187 404.628 69.8187 388.171 80.7462L375.828 88.8574C359.371 99.785 332.628 99.785 316.171 88.8574L303.828 80.7462C287.371 69.8187 260.628 69.8187 244.171 80.7462L231.828 88.8574C215.371 99.785 188.628 99.785 172.171 88.8574L159.828 80.7463C143.371 69.8187 116.628 69.8187 100.171 80.7463L87.8284 88.8574C71.3713 99.785 44.6283 99.785 28.1712 88.8574L-14 60.9188" stroke="#465C88" stroke-opacity="0.4" stroke-width="4" stroke-miterlimit="10"/>
<path d="M562 31.4032L519.828 59.4544C503.371 70.382 476.628 70.382 460.171 59.4544L447.828 51.2305C431.371 40.3029 404.628 40.3029 388.171 51.2305L375.828 59.4544C359.371 70.382 332.628 70.382 316.171 59.4544L303.828 51.2305C287.371 40.3029 260.628 40.303 244.171 51.2305L231.828 59.4544C215.371 70.382 188.628 70.382 172.171 59.4544L159.828 51.2305C143.371 40.303 116.628 40.303 100.171 51.2305L87.8284 59.4544C71.3713 70.382 44.6283 70.382 28.1712 59.4544L-14 31.4032" stroke="#465C88" stroke-opacity="0.4" stroke-width="4" stroke-miterlimit="10"/>
<path d="M562 2L519.828 29.9385C503.371 40.8661 476.628 40.8661 460.171 29.9385L447.828 21.8273C431.371 10.8998 404.628 10.8998 388.171 21.8274L375.828 29.9385C359.371 40.8661 332.628 40.8661 316.171 29.9385L303.828 21.8274C287.371 10.8998 260.628 10.8998 244.171 21.8274L231.828 29.9385C215.371 40.8661 188.628 40.8661 172.171 29.9385L159.828 21.8274C143.371 10.8998 116.628 10.8998 100.171 21.8274L87.8284 29.9385C71.3713 40.8661 44.6283 40.8661 28.1712 29.9385L-14 2.00006" stroke="#465C88" stroke-opacity="0.4" stroke-width="4" stroke-miterlimit="10"/>
</svg>
