<svg width="228" height="50" viewBox="0 0 228 50" fill="none" xmlns="http://www.w3.org/2000/svg">
<path d="M139.053 3L152.597 14.0544L139.053 25.1089L152.597 36.1633L139.053 47.2178L112.027 25.1089L139.053 3Z" stroke="#06202B" stroke-opacity="0.2" stroke-width="4" stroke-miterlimit="10"/>
<path d="M175.126 3L188.67 14.0544L175.126 25.1089L188.67 36.1633L175.126 47.2178L161.581 36.1633L148.036 25.1089L175.126 3Z" stroke="#06202B" stroke-opacity="0.2" stroke-width="4" stroke-miterlimit="10"/>
<path d="M211.134 3L224.679 14.0544L211.134 25.1089L224.679 36.1633L211.134 47.2178L197.59 36.1633L184.045 25.1089L197.59 14.0544L211.134 3Z" stroke="#06202B" stroke-opacity="0.2" stroke-width="4" stroke-miterlimit="10"/>
<path d="M31.0256 3L44.5704 14.0544L31.0256 25.1089L44.5704 36.1633L31.0256 47.2178L4 25.1089L31.0256 3Z" stroke="#06202B" stroke-opacity="0.2" stroke-width="4" stroke-miterlimit="10"/>
<path d="M67.0985 3L80.6432 14.0544L67.0985 25.1089L80.6432 36.1633L67.0985 47.2178L53.5537 36.1633L40.009 25.1089L67.0985 3Z" stroke="#06202B" stroke-opacity="0.2" stroke-width="4" stroke-miterlimit="10"/>
<path d="M103.107 3L116.652 14.0544L103.107 25.1089L116.652 36.1633L103.107 47.2178L89.5628 36.1633L76.018 25.1089L89.5628 14.0544L103.107 3Z" stroke="#06202B" stroke-opacity="0.2" stroke-width="4" stroke-miterlimit="10"/>
</svg>
