<svg width="1440" height="1024" viewBox="0 0 1440 1024" fill="none" xmlns="http://www.w3.org/2000/svg">
<g clip-path="url(#clip0_136_604)">
<rect width="1440" height="1024" fill="white"/>
<rect width="1440" height="1024" fill="#E9E3DF"/>
<path d="M566 695.838L523.828 723.889C507.371 734.704 480.628 734.704 464.171 723.889L451.828 715.665C435.371 704.737 408.628 704.737 392.171 715.665L379.828 723.889C363.371 734.704 336.628 734.704 320.171 723.889L307.828 715.665C291.371 704.737 264.628 704.737 248.171 715.665L235.828 723.889C219.371 734.704 192.628 734.704 176.171 723.889L163.828 715.665C147.371 704.737 120.628 704.737 104.171 715.665L91.8284 723.889C75.3713 734.704 48.6283 734.704 32.1712 723.889L-10 695.838" stroke="#465C88" stroke-opacity="0.4" stroke-width="4" stroke-miterlimit="10"/>
<path d="M566 666.322L523.828 694.373C507.371 705.301 480.628 705.301 464.171 694.373L451.828 686.149C435.371 675.222 408.628 675.222 392.171 686.149L379.828 694.373C363.371 705.301 336.628 705.301 320.171 694.373L307.828 686.149C291.371 675.222 264.628 675.222 248.171 686.149L235.828 694.373C219.371 705.301 192.628 705.301 176.171 694.373L163.828 686.149C147.371 675.222 120.628 675.222 104.171 686.149L91.8284 694.373C75.3713 705.301 48.6283 705.301 32.1712 694.373L-10 666.322" stroke="#465C88" stroke-opacity="0.4" stroke-width="4" stroke-miterlimit="10"/>
<path d="M566 636.919L523.828 664.857C507.371 675.785 480.628 675.785 464.171 664.857L451.828 656.746C435.371 645.819 408.628 645.819 392.171 656.746L379.828 664.857C363.371 675.785 336.628 675.785 320.171 664.857L307.828 656.746C291.371 645.819 264.628 645.819 248.171 656.746L235.828 664.857C219.371 675.785 192.628 675.785 176.171 664.857L163.828 656.746C147.371 645.819 120.628 645.819 104.171 656.746L91.8284 664.857C75.3713 675.785 48.6283 675.785 32.1712 664.857L-10 636.919" stroke="#465C88" stroke-opacity="0.4" stroke-width="4" stroke-miterlimit="10"/>
<path d="M566 607.403L523.828 635.454C507.371 646.382 480.628 646.382 464.171 635.454L451.828 627.231C435.371 616.303 408.628 616.303 392.171 627.231L379.828 635.454C363.371 646.382 336.628 646.382 320.171 635.454L307.828 627.231C291.371 616.303 264.628 616.303 248.171 627.231L235.828 635.454C219.371 646.382 192.628 646.382 176.171 635.454L163.828 627.231C147.371 616.303 120.628 616.303 104.171 627.231L91.8284 635.454C75.3713 646.382 48.6283 646.382 32.1712 635.454L-10 607.403" stroke="#465C88" stroke-opacity="0.4" stroke-width="4" stroke-miterlimit="10"/>
<path d="M566 578L523.828 605.938C507.371 616.866 480.628 616.866 464.171 605.938L451.828 597.827C435.371 586.9 408.628 586.9 392.171 597.827L379.828 605.938C363.371 616.866 336.628 616.866 320.171 605.938L307.828 597.827C291.371 586.9 264.628 586.9 248.171 597.827L235.828 605.939C219.371 616.866 192.628 616.866 176.171 605.939L163.828 597.827C147.371 586.9 120.628 586.9 104.171 597.827L91.8284 605.939C75.3713 616.866 48.6283 616.866 32.1712 605.939L-10 578" stroke="#465C88" stroke-opacity="0.4" stroke-width="4" stroke-miterlimit="10"/>
<path d="M851.504 216.476C851.504 218.447 850.069 220.004 848.252 220.004C846.482 220.004 845 218.447 845 216.476C845 214.556 846.482 213 848.252 213C850.069 213 851.504 214.556 851.504 216.476Z" fill="#465C88" fill-opacity="0.4"/>
<path d="M878.428 216.476C878.428 218.447 876.993 220.004 875.176 220.004C873.406 220.004 871.924 218.447 871.924 216.476C871.924 214.556 873.406 213 875.176 213C876.993 213 878.428 214.556 878.428 216.476Z" fill="#465C88" fill-opacity="0.4"/>
<path d="M905.352 216.476C905.352 218.447 903.917 220.004 902.1 220.004C900.282 220.004 898.848 218.447 898.848 216.476C898.848 214.556 900.282 213 902.1 213C903.917 213 905.352 214.556 905.352 216.476Z" fill="#465C88" fill-opacity="0.4"/>
<path d="M932.276 216.476C932.276 218.447 930.793 220.004 929.024 220.004C927.207 220.004 925.772 218.447 925.772 216.476C925.772 214.556 927.207 213 929.024 213C930.793 213 932.276 214.556 932.276 216.476Z" fill="#465C88" fill-opacity="0.4"/>
<path d="M959.2 216.476C959.2 218.447 957.717 220.004 955.948 220.004C954.131 220.004 952.696 218.447 952.696 216.476C952.696 214.556 954.131 213 955.948 213C957.717 213 959.2 214.556 959.2 216.476Z" fill="#465C88" fill-opacity="0.4"/>
<path d="M986.076 216.476C986.076 218.447 984.641 220.004 982.824 220.004C981.055 220.004 979.62 218.447 979.62 216.476C979.62 214.556 981.055 213 982.824 213C984.641 213 986.076 214.556 986.076 216.476Z" fill="#465C88" fill-opacity="0.4"/>
<path d="M1013 216.476C1013 218.447 1011.57 220.004 1009.75 220.004C1007.98 220.004 1006.5 218.447 1006.5 216.476C1006.5 214.556 1007.98 213 1009.75 213C1011.57 213 1013 214.556 1013 216.476Z" fill="#465C88" fill-opacity="0.4"/>
<path d="M851.504 239.303C851.504 241.275 850.069 242.831 848.252 242.831C846.482 242.831 845 241.275 845 239.303C845 237.384 846.482 235.775 848.252 235.775C850.069 235.775 851.504 237.384 851.504 239.303Z" fill="#465C88" fill-opacity="0.4"/>
<path d="M878.428 239.303C878.428 241.275 876.993 242.831 875.176 242.831C873.406 242.831 871.924 241.275 871.924 239.303C871.924 237.384 873.406 235.775 875.176 235.775C876.993 235.775 878.428 237.384 878.428 239.303Z" fill="#465C88" fill-opacity="0.4"/>
<path d="M905.352 239.303C905.352 241.275 903.917 242.831 902.1 242.831C900.282 242.831 898.848 241.275 898.848 239.303C898.848 237.384 900.282 235.775 902.1 235.775C903.917 235.775 905.352 237.384 905.352 239.303Z" fill="#465C88" fill-opacity="0.4"/>
<path d="M932.276 239.303C932.276 241.275 930.793 242.831 929.024 242.831C927.207 242.831 925.772 241.275 925.772 239.303C925.772 237.384 927.207 235.775 929.024 235.775C930.793 235.775 932.276 237.384 932.276 239.303Z" fill="#465C88" fill-opacity="0.4"/>
<path d="M959.2 239.303C959.2 241.275 957.717 242.831 955.948 242.831C954.131 242.831 952.696 241.275 952.696 239.303C952.696 237.384 954.131 235.775 955.948 235.775C957.717 235.775 959.2 237.384 959.2 239.303Z" fill="#465C88" fill-opacity="0.4"/>
<path d="M986.076 239.303C986.076 241.275 984.641 242.831 982.824 242.831C981.055 242.831 979.62 241.275 979.62 239.303C979.62 237.384 981.055 235.775 982.824 235.775C984.641 235.775 986.076 237.384 986.076 239.303Z" fill="#465C88" fill-opacity="0.4"/>
<path d="M1013 239.303C1013 241.275 1011.57 242.831 1009.75 242.831C1007.98 242.831 1006.5 241.275 1006.5 239.303C1006.5 237.384 1007.98 235.775 1009.75 235.775C1011.57 235.775 1013 237.384 1013 239.303Z" fill="#465C88" fill-opacity="0.4"/>
<path d="M851.504 262.13C851.504 264.102 850.069 265.658 848.252 265.658C846.482 265.658 845 264.102 845 262.13C845 260.211 846.482 258.603 848.252 258.603C850.069 258.603 851.504 260.211 851.504 262.13Z" fill="#465C88" fill-opacity="0.4"/>
<path d="M878.428 262.13C878.428 264.102 876.993 265.658 875.176 265.658C873.406 265.658 871.924 264.102 871.924 262.13C871.924 260.211 873.406 258.603 875.176 258.603C876.993 258.603 878.428 260.211 878.428 262.13Z" fill="#465C88" fill-opacity="0.4"/>
<path d="M905.352 262.13C905.352 264.102 903.917 265.658 902.1 265.658C900.282 265.658 898.848 264.102 898.848 262.13C898.848 260.211 900.282 258.603 902.1 258.603C903.917 258.603 905.352 260.211 905.352 262.13Z" fill="#465C88" fill-opacity="0.4"/>
<path d="M932.276 262.13C932.276 264.102 930.793 265.658 929.024 265.658C927.207 265.658 925.772 264.102 925.772 262.13C925.772 260.211 927.207 258.603 929.024 258.603C930.793 258.603 932.276 260.211 932.276 262.13Z" fill="#465C88" fill-opacity="0.4"/>
<path d="M959.2 262.13C959.2 264.102 957.717 265.658 955.948 265.658C954.131 265.658 952.696 264.102 952.696 262.13C952.696 260.211 954.131 258.603 955.948 258.603C957.717 258.603 959.2 260.211 959.2 262.13Z" fill="#465C88" fill-opacity="0.4"/>
<path d="M986.076 262.13C986.076 264.102 984.641 265.658 982.824 265.658C981.055 265.658 979.62 264.102 979.62 262.13C979.62 260.211 981.055 258.603 982.824 258.603C984.641 258.603 986.076 260.211 986.076 262.13Z" fill="#465C88" fill-opacity="0.4"/>
<path d="M1013 262.13C1013 264.102 1011.57 265.658 1009.75 265.658C1007.98 265.658 1006.5 264.102 1006.5 262.13C1006.5 260.211 1007.98 258.603 1009.75 258.603C1011.57 258.603 1013 260.211 1013 262.13Z" fill="#465C88" fill-opacity="0.4"/>
<path d="M851.504 284.958C851.504 286.929 850.069 288.485 848.252 288.485C846.482 288.485 845 286.929 845 284.958C845 283.038 846.482 281.43 848.252 281.43C850.069 281.43 851.504 283.038 851.504 284.958Z" fill="#465C88" fill-opacity="0.4"/>
<path d="M878.428 284.958C878.428 286.929 876.993 288.485 875.176 288.485C873.406 288.485 871.924 286.929 871.924 284.958C871.924 283.038 873.406 281.43 875.176 281.43C876.993 281.43 878.428 283.038 878.428 284.958Z" fill="#465C88" fill-opacity="0.4"/>
<path d="M905.352 284.958C905.352 286.929 903.917 288.485 902.1 288.485C900.282 288.485 898.848 286.929 898.848 284.958C898.848 283.038 900.282 281.43 902.1 281.43C903.917 281.43 905.352 283.038 905.352 284.958Z" fill="#465C88" fill-opacity="0.4"/>
<path d="M932.276 284.958C932.276 286.929 930.793 288.485 929.024 288.485C927.207 288.485 925.772 286.929 925.772 284.958C925.772 283.038 927.207 281.43 929.024 281.43C930.793 281.43 932.276 283.038 932.276 284.958Z" fill="#465C88" fill-opacity="0.4"/>
<path d="M959.2 284.958C959.2 286.929 957.717 288.485 955.948 288.485C954.131 288.485 952.696 286.929 952.696 284.958C952.696 283.038 954.131 281.43 955.948 281.43C957.717 281.43 959.2 283.038 959.2 284.958Z" fill="#465C88" fill-opacity="0.4"/>
<path d="M986.076 284.958C986.076 286.929 984.641 288.485 982.824 288.485C981.055 288.485 979.62 286.929 979.62 284.958C979.62 283.038 981.055 281.43 982.824 281.43C984.641 281.43 986.076 283.038 986.076 284.958Z" fill="#465C88" fill-opacity="0.4"/>
<path d="M1013 284.958C1013 286.929 1011.57 288.485 1009.75 288.485C1007.98 288.485 1006.5 286.929 1006.5 284.958C1006.5 283.038 1007.98 281.43 1009.75 281.43C1011.57 281.43 1013 283.038 1013 284.958Z" fill="#465C88" fill-opacity="0.4"/>
<path d="M851.504 307.785C851.504 309.756 850.069 311.313 848.252 311.313C846.482 311.313 845 309.756 845 307.785C845 305.865 846.482 304.257 848.252 304.257C850.069 304.257 851.504 305.865 851.504 307.785Z" fill="#465C88" fill-opacity="0.4"/>
<path d="M878.428 307.785C878.428 309.756 876.993 311.313 875.176 311.313C873.406 311.313 871.924 309.756 871.924 307.785C871.924 305.865 873.406 304.257 875.176 304.257C876.993 304.257 878.428 305.865 878.428 307.785Z" fill="#465C88" fill-opacity="0.4"/>
<path d="M905.352 307.785C905.352 309.756 903.917 311.313 902.1 311.313C900.282 311.313 898.848 309.756 898.848 307.785C898.848 305.865 900.282 304.257 902.1 304.257C903.917 304.257 905.352 305.865 905.352 307.785Z" fill="#465C88" fill-opacity="0.4"/>
<path d="M932.276 307.785C932.276 309.756 930.793 311.313 929.024 311.313C927.207 311.313 925.772 309.756 925.772 307.785C925.772 305.865 927.207 304.257 929.024 304.257C930.793 304.257 932.276 305.865 932.276 307.785Z" fill="#465C88" fill-opacity="0.4"/>
<path d="M959.2 307.785C959.2 309.756 957.717 311.313 955.948 311.313C954.131 311.313 952.696 309.756 952.696 307.785C952.696 305.865 954.131 304.257 955.948 304.257C957.717 304.257 959.2 305.865 959.2 307.785Z" fill="#465C88" fill-opacity="0.4"/>
<path d="M986.076 307.785C986.076 309.756 984.641 311.313 982.824 311.313C981.055 311.313 979.62 309.756 979.62 307.785C979.62 305.865 981.055 304.257 982.824 304.257C984.641 304.257 986.076 305.865 986.076 307.785Z" fill="#465C88" fill-opacity="0.4"/>
<path d="M1013 307.785C1013 309.756 1011.57 311.313 1009.75 311.313C1007.98 311.313 1006.5 309.756 1006.5 307.785C1006.5 305.865 1007.98 304.257 1009.75 304.257C1011.57 304.257 1013 305.865 1013 307.785Z" fill="#465C88" fill-opacity="0.4"/>
<path d="M851.504 330.612C851.504 332.583 850.069 334.14 848.252 334.14C846.482 334.14 845 332.583 845 330.612C845 328.641 846.482 327.084 848.252 327.084C850.069 327.084 851.504 328.641 851.504 330.612Z" fill="#465C88" fill-opacity="0.4"/>
<path d="M878.428 330.612C878.428 332.583 876.993 334.14 875.176 334.14C873.406 334.14 871.924 332.583 871.924 330.612C871.924 328.641 873.406 327.084 875.176 327.084C876.993 327.084 878.428 328.641 878.428 330.612Z" fill="#465C88" fill-opacity="0.4"/>
<path d="M905.352 330.612C905.352 332.583 903.917 334.14 902.1 334.14C900.282 334.14 898.848 332.583 898.848 330.612C898.848 328.641 900.282 327.084 902.1 327.084C903.917 327.084 905.352 328.641 905.352 330.612Z" fill="#465C88" fill-opacity="0.4"/>
<path d="M932.276 330.612C932.276 332.583 930.793 334.14 929.024 334.14C927.207 334.14 925.772 332.583 925.772 330.612C925.772 328.641 927.207 327.084 929.024 327.084C930.793 327.084 932.276 328.641 932.276 330.612Z" fill="#465C88" fill-opacity="0.4"/>
<path d="M959.2 330.612C959.2 332.583 957.717 334.14 955.948 334.14C954.131 334.14 952.696 332.583 952.696 330.612C952.696 328.641 954.131 327.084 955.948 327.084C957.717 327.084 959.2 328.641 959.2 330.612Z" fill="#465C88" fill-opacity="0.4"/>
<path d="M986.076 330.612C986.076 332.583 984.641 334.14 982.824 334.14C981.055 334.14 979.62 332.583 979.62 330.612C979.62 328.641 981.055 327.084 982.824 327.084C984.641 327.084 986.076 328.641 986.076 330.612Z" fill="#465C88" fill-opacity="0.4"/>
<path d="M1013 330.612C1013 332.583 1011.57 334.14 1009.75 334.14C1007.98 334.14 1006.5 332.583 1006.5 330.612C1006.5 328.641 1007.98 327.084 1009.75 327.084C1011.57 327.084 1013 328.641 1013 330.612Z" fill="#465C88" fill-opacity="0.4"/>
<path d="M851.504 353.439C851.504 355.359 850.069 356.967 848.252 356.967C846.482 356.967 845 355.359 845 353.439C845 351.468 846.482 349.911 848.252 349.911C850.069 349.911 851.504 351.468 851.504 353.439Z" fill="#465C88" fill-opacity="0.4"/>
<path d="M878.428 353.439C878.428 355.359 876.993 356.967 875.176 356.967C873.406 356.967 871.924 355.359 871.924 353.439C871.924 351.468 873.406 349.911 875.176 349.911C876.993 349.911 878.428 351.468 878.428 353.439Z" fill="#465C88" fill-opacity="0.4"/>
<path d="M905.352 353.439C905.352 355.359 903.917 356.967 902.1 356.967C900.282 356.967 898.848 355.359 898.848 353.439C898.848 351.468 900.282 349.911 902.1 349.911C903.917 349.911 905.352 351.468 905.352 353.439Z" fill="#465C88" fill-opacity="0.4"/>
<path d="M932.276 353.439C932.276 355.359 930.793 356.967 929.024 356.967C927.207 356.967 925.772 355.359 925.772 353.439C925.772 351.468 927.207 349.911 929.024 349.911C930.793 349.911 932.276 351.468 932.276 353.439Z" fill="#465C88" fill-opacity="0.4"/>
<path d="M959.2 353.439C959.2 355.359 957.717 356.967 955.948 356.967C954.131 356.967 952.696 355.359 952.696 353.439C952.696 351.468 954.131 349.911 955.948 349.911C957.717 349.911 959.2 351.468 959.2 353.439Z" fill="#465C88" fill-opacity="0.4"/>
<path d="M986.076 353.439C986.076 355.359 984.641 356.967 982.824 356.967C981.055 356.967 979.62 355.359 979.62 353.439C979.62 351.468 981.055 349.911 982.824 349.911C984.641 349.911 986.076 351.468 986.076 353.439Z" fill="#465C88" fill-opacity="0.4"/>
<path d="M1013 353.439C1013 355.359 1011.57 356.967 1009.75 356.967C1007.98 356.967 1006.5 355.359 1006.5 353.439C1006.5 351.468 1007.98 349.911 1009.75 349.911C1011.57 349.911 1013 351.468 1013 353.439Z" fill="#465C88" fill-opacity="0.4"/>
<path d="M851.504 376.266C851.504 378.186 850.069 379.794 848.252 379.794C846.482 379.794 845 378.186 845 376.266C845 374.295 846.482 372.739 848.252 372.739C850.069 372.739 851.504 374.295 851.504 376.266Z" fill="#465C88" fill-opacity="0.4"/>
<path d="M878.428 376.266C878.428 378.186 876.993 379.794 875.176 379.794C873.406 379.794 871.924 378.186 871.924 376.266C871.924 374.295 873.406 372.739 875.176 372.739C876.993 372.739 878.428 374.295 878.428 376.266Z" fill="#465C88" fill-opacity="0.4"/>
<path d="M905.352 376.266C905.352 378.186 903.917 379.794 902.1 379.794C900.282 379.794 898.848 378.186 898.848 376.266C898.848 374.295 900.282 372.739 902.1 372.739C903.917 372.739 905.352 374.295 905.352 376.266Z" fill="#465C88" fill-opacity="0.4"/>
<path d="M932.276 376.266C932.276 378.186 930.793 379.794 929.024 379.794C927.207 379.794 925.772 378.186 925.772 376.266C925.772 374.295 927.207 372.739 929.024 372.739C930.793 372.739 932.276 374.295 932.276 376.266Z" fill="#465C88" fill-opacity="0.4"/>
<path d="M959.2 376.266C959.2 378.186 957.717 379.794 955.948 379.794C954.131 379.794 952.696 378.186 952.696 376.266C952.696 374.295 954.131 372.739 955.948 372.739C957.717 372.739 959.2 374.295 959.2 376.266Z" fill="#465C88" fill-opacity="0.4"/>
<path d="M986.076 376.266C986.076 378.186 984.641 379.794 982.824 379.794C981.055 379.794 979.62 378.186 979.62 376.266C979.62 374.295 981.055 372.739 982.824 372.739C984.641 372.739 986.076 374.295 986.076 376.266Z" fill="#465C88" fill-opacity="0.4"/>
<path d="M1013 376.266C1013 378.186 1011.57 379.794 1009.75 379.794C1007.98 379.794 1006.5 378.186 1006.5 376.266C1006.5 374.295 1007.98 372.739 1009.75 372.739C1011.57 372.739 1013 374.295 1013 376.266Z" fill="#465C88" fill-opacity="0.4"/>
<path d="M1041.5 216.476C1041.5 218.447 1040.07 220.004 1038.25 220.004C1036.48 220.004 1035 218.447 1035 216.476C1035 214.556 1036.48 213 1038.25 213C1040.07 213 1041.5 214.556 1041.5 216.476Z" fill="#465C88" fill-opacity="0.4"/>
<path d="M1068.43 216.476C1068.43 218.447 1066.99 220.004 1065.18 220.004C1063.41 220.004 1061.92 218.447 1061.92 216.476C1061.92 214.556 1063.41 213 1065.18 213C1066.99 213 1068.43 214.556 1068.43 216.476Z" fill="#465C88" fill-opacity="0.4"/>
<path d="M1095.35 216.476C1095.35 218.447 1093.92 220.004 1092.1 220.004C1090.28 220.004 1088.85 218.447 1088.85 216.476C1088.85 214.556 1090.28 213 1092.1 213C1093.92 213 1095.35 214.556 1095.35 216.476Z" fill="#465C88" fill-opacity="0.4"/>
<path d="M1122.28 216.476C1122.28 218.447 1120.79 220.004 1119.02 220.004C1117.21 220.004 1115.77 218.447 1115.77 216.476C1115.77 214.556 1117.21 213 1119.02 213C1120.79 213 1122.28 214.556 1122.28 216.476Z" fill="#465C88" fill-opacity="0.4"/>
<path d="M1149.2 216.476C1149.2 218.447 1147.72 220.004 1145.95 220.004C1144.13 220.004 1142.7 218.447 1142.7 216.476C1142.7 214.556 1144.13 213 1145.95 213C1147.72 213 1149.2 214.556 1149.2 216.476Z" fill="#465C88" fill-opacity="0.4"/>
<path d="M1176.08 216.476C1176.08 218.447 1174.64 220.004 1172.82 220.004C1171.05 220.004 1169.62 218.447 1169.62 216.476C1169.62 214.556 1171.05 213 1172.82 213C1174.64 213 1176.08 214.556 1176.08 216.476Z" fill="#465C88" fill-opacity="0.4"/>
<path d="M1203 216.476C1203 218.447 1201.57 220.004 1199.75 220.004C1197.98 220.004 1196.5 218.447 1196.5 216.476C1196.5 214.556 1197.98 213 1199.75 213C1201.57 213 1203 214.556 1203 216.476Z" fill="#465C88" fill-opacity="0.4"/>
<path d="M1041.5 239.303C1041.5 241.275 1040.07 242.831 1038.25 242.831C1036.48 242.831 1035 241.275 1035 239.303C1035 237.384 1036.48 235.775 1038.25 235.775C1040.07 235.775 1041.5 237.384 1041.5 239.303Z" fill="#465C88" fill-opacity="0.4"/>
<path d="M1068.43 239.303C1068.43 241.275 1066.99 242.831 1065.18 242.831C1063.41 242.831 1061.92 241.275 1061.92 239.303C1061.92 237.384 1063.41 235.775 1065.18 235.775C1066.99 235.775 1068.43 237.384 1068.43 239.303Z" fill="#465C88" fill-opacity="0.4"/>
<path d="M1095.35 239.303C1095.35 241.275 1093.92 242.831 1092.1 242.831C1090.28 242.831 1088.85 241.275 1088.85 239.303C1088.85 237.384 1090.28 235.775 1092.1 235.775C1093.92 235.775 1095.35 237.384 1095.35 239.303Z" fill="#465C88" fill-opacity="0.4"/>
<path d="M1122.28 239.303C1122.28 241.275 1120.79 242.831 1119.02 242.831C1117.21 242.831 1115.77 241.275 1115.77 239.303C1115.77 237.384 1117.21 235.775 1119.02 235.775C1120.79 235.775 1122.28 237.384 1122.28 239.303Z" fill="#465C88" fill-opacity="0.4"/>
<path d="M1149.2 239.303C1149.2 241.275 1147.72 242.831 1145.95 242.831C1144.13 242.831 1142.7 241.275 1142.7 239.303C1142.7 237.384 1144.13 235.775 1145.95 235.775C1147.72 235.775 1149.2 237.384 1149.2 239.303Z" fill="#465C88" fill-opacity="0.4"/>
<path d="M1176.08 239.303C1176.08 241.275 1174.64 242.831 1172.82 242.831C1171.05 242.831 1169.62 241.275 1169.62 239.303C1169.62 237.384 1171.05 235.775 1172.82 235.775C1174.64 235.775 1176.08 237.384 1176.08 239.303Z" fill="#465C88" fill-opacity="0.4"/>
<path d="M1203 239.303C1203 241.275 1201.57 242.831 1199.75 242.831C1197.98 242.831 1196.5 241.275 1196.5 239.303C1196.5 237.384 1197.98 235.775 1199.75 235.775C1201.57 235.775 1203 237.384 1203 239.303Z" fill="#465C88" fill-opacity="0.4"/>
<path d="M1041.5 262.13C1041.5 264.102 1040.07 265.658 1038.25 265.658C1036.48 265.658 1035 264.102 1035 262.13C1035 260.211 1036.48 258.603 1038.25 258.603C1040.07 258.603 1041.5 260.211 1041.5 262.13Z" fill="#465C88" fill-opacity="0.4"/>
<path d="M1068.43 262.13C1068.43 264.102 1066.99 265.658 1065.18 265.658C1063.41 265.658 1061.92 264.102 1061.92 262.13C1061.92 260.211 1063.41 258.603 1065.18 258.603C1066.99 258.603 1068.43 260.211 1068.43 262.13Z" fill="#465C88" fill-opacity="0.4"/>
<path d="M1095.35 262.13C1095.35 264.102 1093.92 265.658 1092.1 265.658C1090.28 265.658 1088.85 264.102 1088.85 262.13C1088.85 260.211 1090.28 258.603 1092.1 258.603C1093.92 258.603 1095.35 260.211 1095.35 262.13Z" fill="#465C88" fill-opacity="0.4"/>
<path d="M1122.28 262.13C1122.28 264.102 1120.79 265.658 1119.02 265.658C1117.21 265.658 1115.77 264.102 1115.77 262.13C1115.77 260.211 1117.21 258.603 1119.02 258.603C1120.79 258.603 1122.28 260.211 1122.28 262.13Z" fill="#465C88" fill-opacity="0.4"/>
<path d="M1149.2 262.13C1149.2 264.102 1147.72 265.658 1145.95 265.658C1144.13 265.658 1142.7 264.102 1142.7 262.13C1142.7 260.211 1144.13 258.603 1145.95 258.603C1147.72 258.603 1149.2 260.211 1149.2 262.13Z" fill="#465C88" fill-opacity="0.4"/>
<path d="M1176.08 262.13C1176.08 264.102 1174.64 265.658 1172.82 265.658C1171.05 265.658 1169.62 264.102 1169.62 262.13C1169.62 260.211 1171.05 258.603 1172.82 258.603C1174.64 258.603 1176.08 260.211 1176.08 262.13Z" fill="#465C88" fill-opacity="0.4"/>
<path d="M1203 262.13C1203 264.102 1201.57 265.658 1199.75 265.658C1197.98 265.658 1196.5 264.102 1196.5 262.13C1196.5 260.211 1197.98 258.603 1199.75 258.603C1201.57 258.603 1203 260.211 1203 262.13Z" fill="#465C88" fill-opacity="0.4"/>
<path d="M1041.5 284.958C1041.5 286.929 1040.07 288.485 1038.25 288.485C1036.48 288.485 1035 286.929 1035 284.958C1035 283.038 1036.48 281.43 1038.25 281.43C1040.07 281.43 1041.5 283.038 1041.5 284.958Z" fill="#465C88" fill-opacity="0.4"/>
<path d="M1068.43 284.958C1068.43 286.929 1066.99 288.485 1065.18 288.485C1063.41 288.485 1061.92 286.929 1061.92 284.958C1061.92 283.038 1063.41 281.43 1065.18 281.43C1066.99 281.43 1068.43 283.038 1068.43 284.958Z" fill="#465C88" fill-opacity="0.4"/>
<path d="M1095.35 284.958C1095.35 286.929 1093.92 288.485 1092.1 288.485C1090.28 288.485 1088.85 286.929 1088.85 284.958C1088.85 283.038 1090.28 281.43 1092.1 281.43C1093.92 281.43 1095.35 283.038 1095.35 284.958Z" fill="#465C88" fill-opacity="0.4"/>
<path d="M1122.28 284.958C1122.28 286.929 1120.79 288.485 1119.02 288.485C1117.21 288.485 1115.77 286.929 1115.77 284.958C1115.77 283.038 1117.21 281.43 1119.02 281.43C1120.79 281.43 1122.28 283.038 1122.28 284.958Z" fill="#465C88" fill-opacity="0.4"/>
<path d="M1149.2 284.958C1149.2 286.929 1147.72 288.485 1145.95 288.485C1144.13 288.485 1142.7 286.929 1142.7 284.958C1142.7 283.038 1144.13 281.43 1145.95 281.43C1147.72 281.43 1149.2 283.038 1149.2 284.958Z" fill="#465C88" fill-opacity="0.4"/>
<path d="M1176.08 284.958C1176.08 286.929 1174.64 288.485 1172.82 288.485C1171.05 288.485 1169.62 286.929 1169.62 284.958C1169.62 283.038 1171.05 281.43 1172.82 281.43C1174.64 281.43 1176.08 283.038 1176.08 284.958Z" fill="#465C88" fill-opacity="0.4"/>
<path d="M1203 284.958C1203 286.929 1201.57 288.485 1199.75 288.485C1197.98 288.485 1196.5 286.929 1196.5 284.958C1196.5 283.038 1197.98 281.43 1199.75 281.43C1201.57 281.43 1203 283.038 1203 284.958Z" fill="#465C88" fill-opacity="0.4"/>
<path d="M1041.5 307.785C1041.5 309.756 1040.07 311.313 1038.25 311.313C1036.48 311.313 1035 309.756 1035 307.785C1035 305.865 1036.48 304.257 1038.25 304.257C1040.07 304.257 1041.5 305.865 1041.5 307.785Z" fill="#465C88" fill-opacity="0.4"/>
<path d="M1068.43 307.785C1068.43 309.756 1066.99 311.313 1065.18 311.313C1063.41 311.313 1061.92 309.756 1061.92 307.785C1061.92 305.865 1063.41 304.257 1065.18 304.257C1066.99 304.257 1068.43 305.865 1068.43 307.785Z" fill="#465C88" fill-opacity="0.4"/>
<path d="M1095.35 307.785C1095.35 309.756 1093.92 311.313 1092.1 311.313C1090.28 311.313 1088.85 309.756 1088.85 307.785C1088.85 305.865 1090.28 304.257 1092.1 304.257C1093.92 304.257 1095.35 305.865 1095.35 307.785Z" fill="#465C88" fill-opacity="0.4"/>
<path d="M1122.28 307.785C1122.28 309.756 1120.79 311.313 1119.02 311.313C1117.21 311.313 1115.77 309.756 1115.77 307.785C1115.77 305.865 1117.21 304.257 1119.02 304.257C1120.79 304.257 1122.28 305.865 1122.28 307.785Z" fill="#465C88" fill-opacity="0.4"/>
<path d="M1149.2 307.785C1149.2 309.756 1147.72 311.313 1145.95 311.313C1144.13 311.313 1142.7 309.756 1142.7 307.785C1142.7 305.865 1144.13 304.257 1145.95 304.257C1147.72 304.257 1149.2 305.865 1149.2 307.785Z" fill="#465C88" fill-opacity="0.4"/>
<path d="M1176.08 307.785C1176.08 309.756 1174.64 311.313 1172.82 311.313C1171.05 311.313 1169.62 309.756 1169.62 307.785C1169.62 305.865 1171.05 304.257 1172.82 304.257C1174.64 304.257 1176.08 305.865 1176.08 307.785Z" fill="#465C88" fill-opacity="0.4"/>
<path d="M1203 307.785C1203 309.756 1201.57 311.313 1199.75 311.313C1197.98 311.313 1196.5 309.756 1196.5 307.785C1196.5 305.865 1197.98 304.257 1199.75 304.257C1201.57 304.257 1203 305.865 1203 307.785Z" fill="#465C88" fill-opacity="0.4"/>
<path d="M1041.5 330.612C1041.5 332.583 1040.07 334.14 1038.25 334.14C1036.48 334.14 1035 332.583 1035 330.612C1035 328.641 1036.48 327.084 1038.25 327.084C1040.07 327.084 1041.5 328.641 1041.5 330.612Z" fill="#465C88" fill-opacity="0.4"/>
<path d="M1068.43 330.612C1068.43 332.583 1066.99 334.14 1065.18 334.14C1063.41 334.14 1061.92 332.583 1061.92 330.612C1061.92 328.641 1063.41 327.084 1065.18 327.084C1066.99 327.084 1068.43 328.641 1068.43 330.612Z" fill="#465C88" fill-opacity="0.4"/>
<path d="M1095.35 330.612C1095.35 332.583 1093.92 334.14 1092.1 334.14C1090.28 334.14 1088.85 332.583 1088.85 330.612C1088.85 328.641 1090.28 327.084 1092.1 327.084C1093.92 327.084 1095.35 328.641 1095.35 330.612Z" fill="#465C88" fill-opacity="0.4"/>
<path d="M1122.28 330.612C1122.28 332.583 1120.79 334.14 1119.02 334.14C1117.21 334.14 1115.77 332.583 1115.77 330.612C1115.77 328.641 1117.21 327.084 1119.02 327.084C1120.79 327.084 1122.28 328.641 1122.28 330.612Z" fill="#465C88" fill-opacity="0.4"/>
<path d="M1149.2 330.612C1149.2 332.583 1147.72 334.14 1145.95 334.14C1144.13 334.14 1142.7 332.583 1142.7 330.612C1142.7 328.641 1144.13 327.084 1145.95 327.084C1147.72 327.084 1149.2 328.641 1149.2 330.612Z" fill="#465C88" fill-opacity="0.4"/>
<path d="M1176.08 330.612C1176.08 332.583 1174.64 334.14 1172.82 334.14C1171.05 334.14 1169.62 332.583 1169.62 330.612C1169.62 328.641 1171.05 327.084 1172.82 327.084C1174.64 327.084 1176.08 328.641 1176.08 330.612Z" fill="#465C88" fill-opacity="0.4"/>
<path d="M1203 330.612C1203 332.583 1201.57 334.14 1199.75 334.14C1197.98 334.14 1196.5 332.583 1196.5 330.612C1196.5 328.641 1197.98 327.084 1199.75 327.084C1201.57 327.084 1203 328.641 1203 330.612Z" fill="#465C88" fill-opacity="0.4"/>
<path d="M1041.5 353.439C1041.5 355.359 1040.07 356.967 1038.25 356.967C1036.48 356.967 1035 355.359 1035 353.439C1035 351.468 1036.48 349.911 1038.25 349.911C1040.07 349.911 1041.5 351.468 1041.5 353.439Z" fill="#465C88" fill-opacity="0.4"/>
<path d="M1068.43 353.439C1068.43 355.359 1066.99 356.967 1065.18 356.967C1063.41 356.967 1061.92 355.359 1061.92 353.439C1061.92 351.468 1063.41 349.911 1065.18 349.911C1066.99 349.911 1068.43 351.468 1068.43 353.439Z" fill="#465C88" fill-opacity="0.4"/>
<path d="M1095.35 353.439C1095.35 355.359 1093.92 356.967 1092.1 356.967C1090.28 356.967 1088.85 355.359 1088.85 353.439C1088.85 351.468 1090.28 349.911 1092.1 349.911C1093.92 349.911 1095.35 351.468 1095.35 353.439Z" fill="#465C88" fill-opacity="0.4"/>
<path d="M1122.28 353.439C1122.28 355.359 1120.79 356.967 1119.02 356.967C1117.21 356.967 1115.77 355.359 1115.77 353.439C1115.77 351.468 1117.21 349.911 1119.02 349.911C1120.79 349.911 1122.28 351.468 1122.28 353.439Z" fill="#465C88" fill-opacity="0.4"/>
<path d="M1149.2 353.439C1149.2 355.359 1147.72 356.967 1145.95 356.967C1144.13 356.967 1142.7 355.359 1142.7 353.439C1142.7 351.468 1144.13 349.911 1145.95 349.911C1147.72 349.911 1149.2 351.468 1149.2 353.439Z" fill="#465C88" fill-opacity="0.4"/>
<path d="M1176.08 353.439C1176.08 355.359 1174.64 356.967 1172.82 356.967C1171.05 356.967 1169.62 355.359 1169.62 353.439C1169.62 351.468 1171.05 349.911 1172.82 349.911C1174.64 349.911 1176.08 351.468 1176.08 353.439Z" fill="#465C88" fill-opacity="0.4"/>
<path d="M1203 353.439C1203 355.359 1201.57 356.967 1199.75 356.967C1197.98 356.967 1196.5 355.359 1196.5 353.439C1196.5 351.468 1197.98 349.911 1199.75 349.911C1201.57 349.911 1203 351.468 1203 353.439Z" fill="#465C88" fill-opacity="0.4"/>
<path d="M1041.5 376.266C1041.5 378.186 1040.07 379.794 1038.25 379.794C1036.48 379.794 1035 378.186 1035 376.266C1035 374.295 1036.48 372.739 1038.25 372.739C1040.07 372.739 1041.5 374.295 1041.5 376.266Z" fill="#465C88" fill-opacity="0.4"/>
<path d="M1068.43 376.266C1068.43 378.186 1066.99 379.794 1065.18 379.794C1063.41 379.794 1061.92 378.186 1061.92 376.266C1061.92 374.295 1063.41 372.739 1065.18 372.739C1066.99 372.739 1068.43 374.295 1068.43 376.266Z" fill="#465C88" fill-opacity="0.4"/>
<path d="M1095.35 376.266C1095.35 378.186 1093.92 379.794 1092.1 379.794C1090.28 379.794 1088.85 378.186 1088.85 376.266C1088.85 374.295 1090.28 372.739 1092.1 372.739C1093.92 372.739 1095.35 374.295 1095.35 376.266Z" fill="#465C88" fill-opacity="0.4"/>
<path d="M1122.28 376.266C1122.28 378.186 1120.79 379.794 1119.02 379.794C1117.21 379.794 1115.77 378.186 1115.77 376.266C1115.77 374.295 1117.21 372.739 1119.02 372.739C1120.79 372.739 1122.28 374.295 1122.28 376.266Z" fill="#465C88" fill-opacity="0.4"/>
<path d="M1149.2 376.266C1149.2 378.186 1147.72 379.794 1145.95 379.794C1144.13 379.794 1142.7 378.186 1142.7 376.266C1142.7 374.295 1144.13 372.739 1145.95 372.739C1147.72 372.739 1149.2 374.295 1149.2 376.266Z" fill="#465C88" fill-opacity="0.4"/>
<path d="M1176.08 376.266C1176.08 378.186 1174.64 379.794 1172.82 379.794C1171.05 379.794 1169.62 378.186 1169.62 376.266C1169.62 374.295 1171.05 372.739 1172.82 372.739C1174.64 372.739 1176.08 374.295 1176.08 376.266Z" fill="#465C88" fill-opacity="0.4"/>
<path d="M1203 376.266C1203 378.186 1201.57 379.794 1199.75 379.794C1197.98 379.794 1196.5 378.186 1196.5 376.266C1196.5 374.295 1197.98 372.739 1199.75 372.739C1201.57 372.739 1203 374.295 1203 376.266Z" fill="#465C88" fill-opacity="0.4"/>
<path d="M851.504 396.476C851.504 398.447 850.069 400.004 848.252 400.004C846.482 400.004 845 398.447 845 396.476C845 394.556 846.482 393 848.252 393C850.069 393 851.504 394.556 851.504 396.476Z" fill="#465C88" fill-opacity="0.4"/>
<path d="M878.428 396.476C878.428 398.447 876.993 400.004 875.176 400.004C873.406 400.004 871.924 398.447 871.924 396.476C871.924 394.556 873.406 393 875.176 393C876.993 393 878.428 394.556 878.428 396.476Z" fill="#465C88" fill-opacity="0.4"/>
<path d="M905.352 396.476C905.352 398.447 903.917 400.004 902.1 400.004C900.282 400.004 898.848 398.447 898.848 396.476C898.848 394.556 900.282 393 902.1 393C903.917 393 905.352 394.556 905.352 396.476Z" fill="#465C88" fill-opacity="0.4"/>
<path d="M932.276 396.476C932.276 398.447 930.793 400.004 929.024 400.004C927.207 400.004 925.772 398.447 925.772 396.476C925.772 394.556 927.207 393 929.024 393C930.793 393 932.276 394.556 932.276 396.476Z" fill="#465C88" fill-opacity="0.4"/>
<path d="M959.2 396.476C959.2 398.447 957.717 400.004 955.948 400.004C954.131 400.004 952.696 398.447 952.696 396.476C952.696 394.556 954.131 393 955.948 393C957.717 393 959.2 394.556 959.2 396.476Z" fill="#465C88" fill-opacity="0.4"/>
<path d="M986.076 396.476C986.076 398.447 984.641 400.004 982.824 400.004C981.055 400.004 979.62 398.447 979.62 396.476C979.62 394.556 981.055 393 982.824 393C984.641 393 986.076 394.556 986.076 396.476Z" fill="#465C88" fill-opacity="0.4"/>
<path d="M1013 396.476C1013 398.447 1011.57 400.004 1009.75 400.004C1007.98 400.004 1006.5 398.447 1006.5 396.476C1006.5 394.556 1007.98 393 1009.75 393C1011.57 393 1013 394.556 1013 396.476Z" fill="#465C88" fill-opacity="0.4"/>
<path d="M851.504 419.303C851.504 421.275 850.069 422.831 848.252 422.831C846.482 422.831 845 421.275 845 419.303C845 417.384 846.482 415.775 848.252 415.775C850.069 415.775 851.504 417.384 851.504 419.303Z" fill="#465C88" fill-opacity="0.4"/>
<path d="M878.428 419.303C878.428 421.275 876.993 422.831 875.176 422.831C873.406 422.831 871.924 421.275 871.924 419.303C871.924 417.384 873.406 415.775 875.176 415.775C876.993 415.775 878.428 417.384 878.428 419.303Z" fill="#465C88" fill-opacity="0.4"/>
<path d="M905.352 419.303C905.352 421.275 903.917 422.831 902.1 422.831C900.282 422.831 898.848 421.275 898.848 419.303C898.848 417.384 900.282 415.775 902.1 415.775C903.917 415.775 905.352 417.384 905.352 419.303Z" fill="#465C88" fill-opacity="0.4"/>
<path d="M932.276 419.303C932.276 421.275 930.793 422.831 929.024 422.831C927.207 422.831 925.772 421.275 925.772 419.303C925.772 417.384 927.207 415.775 929.024 415.775C930.793 415.775 932.276 417.384 932.276 419.303Z" fill="#465C88" fill-opacity="0.4"/>
<path d="M959.2 419.303C959.2 421.275 957.717 422.831 955.948 422.831C954.131 422.831 952.696 421.275 952.696 419.303C952.696 417.384 954.131 415.775 955.948 415.775C957.717 415.775 959.2 417.384 959.2 419.303Z" fill="#465C88" fill-opacity="0.4"/>
<path d="M986.076 419.303C986.076 421.275 984.641 422.831 982.824 422.831C981.055 422.831 979.62 421.275 979.62 419.303C979.62 417.384 981.055 415.775 982.824 415.775C984.641 415.775 986.076 417.384 986.076 419.303Z" fill="#465C88" fill-opacity="0.4"/>
<path d="M1013 419.303C1013 421.275 1011.57 422.831 1009.75 422.831C1007.98 422.831 1006.5 421.275 1006.5 419.303C1006.5 417.384 1007.98 415.775 1009.75 415.775C1011.57 415.775 1013 417.384 1013 419.303Z" fill="#465C88" fill-opacity="0.4"/>
<path d="M851.504 442.13C851.504 444.102 850.069 445.658 848.252 445.658C846.482 445.658 845 444.102 845 442.13C845 440.211 846.482 438.603 848.252 438.603C850.069 438.603 851.504 440.211 851.504 442.13Z" fill="#465C88" fill-opacity="0.4"/>
<path d="M878.428 442.13C878.428 444.102 876.993 445.658 875.176 445.658C873.406 445.658 871.924 444.102 871.924 442.13C871.924 440.211 873.406 438.603 875.176 438.603C876.993 438.603 878.428 440.211 878.428 442.13Z" fill="#465C88" fill-opacity="0.4"/>
<path d="M905.352 442.13C905.352 444.102 903.917 445.658 902.1 445.658C900.282 445.658 898.848 444.102 898.848 442.13C898.848 440.211 900.282 438.603 902.1 438.603C903.917 438.603 905.352 440.211 905.352 442.13Z" fill="#465C88" fill-opacity="0.4"/>
<path d="M932.276 442.13C932.276 444.102 930.793 445.658 929.024 445.658C927.207 445.658 925.772 444.102 925.772 442.13C925.772 440.211 927.207 438.603 929.024 438.603C930.793 438.603 932.276 440.211 932.276 442.13Z" fill="#465C88" fill-opacity="0.4"/>
<path d="M959.2 442.13C959.2 444.102 957.717 445.658 955.948 445.658C954.131 445.658 952.696 444.102 952.696 442.13C952.696 440.211 954.131 438.603 955.948 438.603C957.717 438.603 959.2 440.211 959.2 442.13Z" fill="#465C88" fill-opacity="0.4"/>
<path d="M986.076 442.13C986.076 444.102 984.641 445.658 982.824 445.658C981.055 445.658 979.62 444.102 979.62 442.13C979.62 440.211 981.055 438.603 982.824 438.603C984.641 438.603 986.076 440.211 986.076 442.13Z" fill="#465C88" fill-opacity="0.4"/>
<path d="M1013 442.13C1013 444.102 1011.57 445.658 1009.75 445.658C1007.98 445.658 1006.5 444.102 1006.5 442.13C1006.5 440.211 1007.98 438.603 1009.75 438.603C1011.57 438.603 1013 440.211 1013 442.13Z" fill="#465C88" fill-opacity="0.4"/>
<path d="M851.504 464.958C851.504 466.929 850.069 468.485 848.252 468.485C846.482 468.485 845 466.929 845 464.958C845 463.038 846.482 461.43 848.252 461.43C850.069 461.43 851.504 463.038 851.504 464.958Z" fill="#465C88" fill-opacity="0.4"/>
<path d="M878.428 464.958C878.428 466.929 876.993 468.485 875.176 468.485C873.406 468.485 871.924 466.929 871.924 464.958C871.924 463.038 873.406 461.43 875.176 461.43C876.993 461.43 878.428 463.038 878.428 464.958Z" fill="#465C88" fill-opacity="0.4"/>
<path d="M905.352 464.958C905.352 466.929 903.917 468.485 902.1 468.485C900.282 468.485 898.848 466.929 898.848 464.958C898.848 463.038 900.282 461.43 902.1 461.43C903.917 461.43 905.352 463.038 905.352 464.958Z" fill="#465C88" fill-opacity="0.4"/>
<path d="M932.276 464.958C932.276 466.929 930.793 468.485 929.024 468.485C927.207 468.485 925.772 466.929 925.772 464.958C925.772 463.038 927.207 461.43 929.024 461.43C930.793 461.43 932.276 463.038 932.276 464.958Z" fill="#465C88" fill-opacity="0.4"/>
<path d="M959.2 464.958C959.2 466.929 957.717 468.485 955.948 468.485C954.131 468.485 952.696 466.929 952.696 464.958C952.696 463.038 954.131 461.43 955.948 461.43C957.717 461.43 959.2 463.038 959.2 464.958Z" fill="#465C88" fill-opacity="0.4"/>
<path d="M986.076 464.958C986.076 466.929 984.641 468.485 982.824 468.485C981.055 468.485 979.62 466.929 979.62 464.958C979.62 463.038 981.055 461.43 982.824 461.43C984.641 461.43 986.076 463.038 986.076 464.958Z" fill="#465C88" fill-opacity="0.4"/>
<path d="M1013 464.958C1013 466.929 1011.57 468.485 1009.75 468.485C1007.98 468.485 1006.5 466.929 1006.5 464.958C1006.5 463.038 1007.98 461.43 1009.75 461.43C1011.57 461.43 1013 463.038 1013 464.958Z" fill="#465C88" fill-opacity="0.4"/>
<path d="M851.504 487.785C851.504 489.756 850.069 491.313 848.252 491.313C846.482 491.313 845 489.756 845 487.785C845 485.865 846.482 484.257 848.252 484.257C850.069 484.257 851.504 485.865 851.504 487.785Z" fill="#465C88" fill-opacity="0.4"/>
<path d="M878.428 487.785C878.428 489.756 876.993 491.313 875.176 491.313C873.406 491.313 871.924 489.756 871.924 487.785C871.924 485.865 873.406 484.257 875.176 484.257C876.993 484.257 878.428 485.865 878.428 487.785Z" fill="#465C88" fill-opacity="0.4"/>
<path d="M905.352 487.785C905.352 489.756 903.917 491.313 902.1 491.313C900.282 491.313 898.848 489.756 898.848 487.785C898.848 485.865 900.282 484.257 902.1 484.257C903.917 484.257 905.352 485.865 905.352 487.785Z" fill="#465C88" fill-opacity="0.4"/>
<path d="M932.276 487.785C932.276 489.756 930.793 491.313 929.024 491.313C927.207 491.313 925.772 489.756 925.772 487.785C925.772 485.865 927.207 484.257 929.024 484.257C930.793 484.257 932.276 485.865 932.276 487.785Z" fill="#465C88" fill-opacity="0.4"/>
<path d="M959.2 487.785C959.2 489.756 957.717 491.313 955.948 491.313C954.131 491.313 952.696 489.756 952.696 487.785C952.696 485.865 954.131 484.257 955.948 484.257C957.717 484.257 959.2 485.865 959.2 487.785Z" fill="#465C88" fill-opacity="0.4"/>
<path d="M986.076 487.785C986.076 489.756 984.641 491.313 982.824 491.313C981.055 491.313 979.62 489.756 979.62 487.785C979.62 485.865 981.055 484.257 982.824 484.257C984.641 484.257 986.076 485.865 986.076 487.785Z" fill="#465C88" fill-opacity="0.4"/>
<path d="M1013 487.785C1013 489.756 1011.57 491.313 1009.75 491.313C1007.98 491.313 1006.5 489.756 1006.5 487.785C1006.5 485.865 1007.98 484.257 1009.75 484.257C1011.57 484.257 1013 485.865 1013 487.785Z" fill="#465C88" fill-opacity="0.4"/>
<path d="M851.504 510.612C851.504 512.583 850.069 514.14 848.252 514.14C846.482 514.14 845 512.583 845 510.612C845 508.641 846.482 507.084 848.252 507.084C850.069 507.084 851.504 508.641 851.504 510.612Z" fill="#465C88" fill-opacity="0.4"/>
<path d="M878.428 510.612C878.428 512.583 876.993 514.14 875.176 514.14C873.406 514.14 871.924 512.583 871.924 510.612C871.924 508.641 873.406 507.084 875.176 507.084C876.993 507.084 878.428 508.641 878.428 510.612Z" fill="#465C88" fill-opacity="0.4"/>
<path d="M905.352 510.612C905.352 512.583 903.917 514.14 902.1 514.14C900.282 514.14 898.848 512.583 898.848 510.612C898.848 508.641 900.282 507.084 902.1 507.084C903.917 507.084 905.352 508.641 905.352 510.612Z" fill="#465C88" fill-opacity="0.4"/>
<path d="M932.276 510.612C932.276 512.583 930.793 514.14 929.024 514.14C927.207 514.14 925.772 512.583 925.772 510.612C925.772 508.641 927.207 507.084 929.024 507.084C930.793 507.084 932.276 508.641 932.276 510.612Z" fill="#465C88" fill-opacity="0.4"/>
<path d="M959.2 510.612C959.2 512.583 957.717 514.14 955.948 514.14C954.131 514.14 952.696 512.583 952.696 510.612C952.696 508.641 954.131 507.084 955.948 507.084C957.717 507.084 959.2 508.641 959.2 510.612Z" fill="#465C88" fill-opacity="0.4"/>
<path d="M986.076 510.612C986.076 512.583 984.641 514.14 982.824 514.14C981.055 514.14 979.62 512.583 979.62 510.612C979.62 508.641 981.055 507.084 982.824 507.084C984.641 507.084 986.076 508.641 986.076 510.612Z" fill="#465C88" fill-opacity="0.4"/>
<path d="M1013 510.612C1013 512.583 1011.57 514.14 1009.75 514.14C1007.98 514.14 1006.5 512.583 1006.5 510.612C1006.5 508.641 1007.98 507.084 1009.75 507.084C1011.57 507.084 1013 508.641 1013 510.612Z" fill="#465C88" fill-opacity="0.4"/>
<path d="M851.504 533.439C851.504 535.359 850.069 536.967 848.252 536.967C846.482 536.967 845 535.359 845 533.439C845 531.468 846.482 529.911 848.252 529.911C850.069 529.911 851.504 531.468 851.504 533.439Z" fill="#465C88" fill-opacity="0.4"/>
<path d="M878.428 533.439C878.428 535.359 876.993 536.967 875.176 536.967C873.406 536.967 871.924 535.359 871.924 533.439C871.924 531.468 873.406 529.911 875.176 529.911C876.993 529.911 878.428 531.468 878.428 533.439Z" fill="#465C88" fill-opacity="0.4"/>
<path d="M905.352 533.439C905.352 535.359 903.917 536.967 902.1 536.967C900.282 536.967 898.848 535.359 898.848 533.439C898.848 531.468 900.282 529.911 902.1 529.911C903.917 529.911 905.352 531.468 905.352 533.439Z" fill="#465C88" fill-opacity="0.4"/>
<path d="M932.276 533.439C932.276 535.359 930.793 536.967 929.024 536.967C927.207 536.967 925.772 535.359 925.772 533.439C925.772 531.468 927.207 529.911 929.024 529.911C930.793 529.911 932.276 531.468 932.276 533.439Z" fill="#465C88" fill-opacity="0.4"/>
<path d="M959.2 533.439C959.2 535.359 957.717 536.967 955.948 536.967C954.131 536.967 952.696 535.359 952.696 533.439C952.696 531.468 954.131 529.911 955.948 529.911C957.717 529.911 959.2 531.468 959.2 533.439Z" fill="#465C88" fill-opacity="0.4"/>
<path d="M986.076 533.439C986.076 535.359 984.641 536.967 982.824 536.967C981.055 536.967 979.62 535.359 979.62 533.439C979.62 531.468 981.055 529.911 982.824 529.911C984.641 529.911 986.076 531.468 986.076 533.439Z" fill="#465C88" fill-opacity="0.4"/>
<path d="M1013 533.439C1013 535.359 1011.57 536.967 1009.75 536.967C1007.98 536.967 1006.5 535.359 1006.5 533.439C1006.5 531.468 1007.98 529.911 1009.75 529.911C1011.57 529.911 1013 531.468 1013 533.439Z" fill="#465C88" fill-opacity="0.4"/>
<path d="M851.504 556.266C851.504 558.186 850.069 559.794 848.252 559.794C846.482 559.794 845 558.186 845 556.266C845 554.295 846.482 552.739 848.252 552.739C850.069 552.739 851.504 554.295 851.504 556.266Z" fill="#465C88" fill-opacity="0.4"/>
<path d="M878.428 556.266C878.428 558.186 876.993 559.794 875.176 559.794C873.406 559.794 871.924 558.186 871.924 556.266C871.924 554.295 873.406 552.739 875.176 552.739C876.993 552.739 878.428 554.295 878.428 556.266Z" fill="#465C88" fill-opacity="0.4"/>
<path d="M905.352 556.266C905.352 558.186 903.917 559.794 902.1 559.794C900.282 559.794 898.848 558.186 898.848 556.266C898.848 554.295 900.282 552.739 902.1 552.739C903.917 552.739 905.352 554.295 905.352 556.266Z" fill="#465C88" fill-opacity="0.4"/>
<path d="M932.276 556.266C932.276 558.186 930.793 559.794 929.024 559.794C927.207 559.794 925.772 558.186 925.772 556.266C925.772 554.295 927.207 552.739 929.024 552.739C930.793 552.739 932.276 554.295 932.276 556.266Z" fill="#465C88" fill-opacity="0.4"/>
<path d="M959.2 556.266C959.2 558.186 957.717 559.794 955.948 559.794C954.131 559.794 952.696 558.186 952.696 556.266C952.696 554.295 954.131 552.739 955.948 552.739C957.717 552.739 959.2 554.295 959.2 556.266Z" fill="#465C88" fill-opacity="0.4"/>
<path d="M986.076 556.266C986.076 558.186 984.641 559.794 982.824 559.794C981.055 559.794 979.62 558.186 979.62 556.266C979.62 554.295 981.055 552.739 982.824 552.739C984.641 552.739 986.076 554.295 986.076 556.266Z" fill="#465C88" fill-opacity="0.4"/>
<path d="M1013 556.266C1013 558.186 1011.57 559.794 1009.75 559.794C1007.98 559.794 1006.5 558.186 1006.5 556.266C1006.5 554.295 1007.98 552.739 1009.75 552.739C1011.57 552.739 1013 554.295 1013 556.266Z" fill="#465C88" fill-opacity="0.4"/>
<path d="M1041.5 396.476C1041.5 398.447 1040.07 400.004 1038.25 400.004C1036.48 400.004 1035 398.447 1035 396.476C1035 394.556 1036.48 393 1038.25 393C1040.07 393 1041.5 394.556 1041.5 396.476Z" fill="#465C88" fill-opacity="0.4"/>
<path d="M1068.43 396.476C1068.43 398.447 1066.99 400.004 1065.18 400.004C1063.41 400.004 1061.92 398.447 1061.92 396.476C1061.92 394.556 1063.41 393 1065.18 393C1066.99 393 1068.43 394.556 1068.43 396.476Z" fill="#465C88" fill-opacity="0.4"/>
<path d="M1095.35 396.476C1095.35 398.447 1093.92 400.004 1092.1 400.004C1090.28 400.004 1088.85 398.447 1088.85 396.476C1088.85 394.556 1090.28 393 1092.1 393C1093.92 393 1095.35 394.556 1095.35 396.476Z" fill="#465C88" fill-opacity="0.4"/>
<path d="M1122.28 396.476C1122.28 398.447 1120.79 400.004 1119.02 400.004C1117.21 400.004 1115.77 398.447 1115.77 396.476C1115.77 394.556 1117.21 393 1119.02 393C1120.79 393 1122.28 394.556 1122.28 396.476Z" fill="#465C88" fill-opacity="0.4"/>
<path d="M1149.2 396.476C1149.2 398.447 1147.72 400.004 1145.95 400.004C1144.13 400.004 1142.7 398.447 1142.7 396.476C1142.7 394.556 1144.13 393 1145.95 393C1147.72 393 1149.2 394.556 1149.2 396.476Z" fill="#465C88" fill-opacity="0.4"/>
<path d="M1176.08 396.476C1176.08 398.447 1174.64 400.004 1172.82 400.004C1171.05 400.004 1169.62 398.447 1169.62 396.476C1169.62 394.556 1171.05 393 1172.82 393C1174.64 393 1176.08 394.556 1176.08 396.476Z" fill="#465C88" fill-opacity="0.4"/>
<path d="M1203 396.476C1203 398.447 1201.57 400.004 1199.75 400.004C1197.98 400.004 1196.5 398.447 1196.5 396.476C1196.5 394.556 1197.98 393 1199.75 393C1201.57 393 1203 394.556 1203 396.476Z" fill="#465C88" fill-opacity="0.4"/>
<path d="M1041.5 419.303C1041.5 421.275 1040.07 422.831 1038.25 422.831C1036.48 422.831 1035 421.275 1035 419.303C1035 417.384 1036.48 415.775 1038.25 415.775C1040.07 415.775 1041.5 417.384 1041.5 419.303Z" fill="#465C88" fill-opacity="0.4"/>
<path d="M1068.43 419.303C1068.43 421.275 1066.99 422.831 1065.18 422.831C1063.41 422.831 1061.92 421.275 1061.92 419.303C1061.92 417.384 1063.41 415.775 1065.18 415.775C1066.99 415.775 1068.43 417.384 1068.43 419.303Z" fill="#465C88" fill-opacity="0.4"/>
<path d="M1095.35 419.303C1095.35 421.275 1093.92 422.831 1092.1 422.831C1090.28 422.831 1088.85 421.275 1088.85 419.303C1088.85 417.384 1090.28 415.775 1092.1 415.775C1093.92 415.775 1095.35 417.384 1095.35 419.303Z" fill="#465C88" fill-opacity="0.4"/>
<path d="M1122.28 419.303C1122.28 421.275 1120.79 422.831 1119.02 422.831C1117.21 422.831 1115.77 421.275 1115.77 419.303C1115.77 417.384 1117.21 415.775 1119.02 415.775C1120.79 415.775 1122.28 417.384 1122.28 419.303Z" fill="#465C88" fill-opacity="0.4"/>
<path d="M1149.2 419.303C1149.2 421.275 1147.72 422.831 1145.95 422.831C1144.13 422.831 1142.7 421.275 1142.7 419.303C1142.7 417.384 1144.13 415.775 1145.95 415.775C1147.72 415.775 1149.2 417.384 1149.2 419.303Z" fill="#465C88" fill-opacity="0.4"/>
<path d="M1176.08 419.303C1176.08 421.275 1174.64 422.831 1172.82 422.831C1171.05 422.831 1169.62 421.275 1169.62 419.303C1169.62 417.384 1171.05 415.775 1172.82 415.775C1174.64 415.775 1176.08 417.384 1176.08 419.303Z" fill="#465C88" fill-opacity="0.4"/>
<path d="M1203 419.303C1203 421.275 1201.57 422.831 1199.75 422.831C1197.98 422.831 1196.5 421.275 1196.5 419.303C1196.5 417.384 1197.98 415.775 1199.75 415.775C1201.57 415.775 1203 417.384 1203 419.303Z" fill="#465C88" fill-opacity="0.4"/>
<path d="M1041.5 442.13C1041.5 444.102 1040.07 445.658 1038.25 445.658C1036.48 445.658 1035 444.102 1035 442.13C1035 440.211 1036.48 438.603 1038.25 438.603C1040.07 438.603 1041.5 440.211 1041.5 442.13Z" fill="#465C88" fill-opacity="0.4"/>
<path d="M1068.43 442.13C1068.43 444.102 1066.99 445.658 1065.18 445.658C1063.41 445.658 1061.92 444.102 1061.92 442.13C1061.92 440.211 1063.41 438.603 1065.18 438.603C1066.99 438.603 1068.43 440.211 1068.43 442.13Z" fill="#465C88" fill-opacity="0.4"/>
<path d="M1095.35 442.13C1095.35 444.102 1093.92 445.658 1092.1 445.658C1090.28 445.658 1088.85 444.102 1088.85 442.13C1088.85 440.211 1090.28 438.603 1092.1 438.603C1093.92 438.603 1095.35 440.211 1095.35 442.13Z" fill="#465C88" fill-opacity="0.4"/>
<path d="M1122.28 442.13C1122.28 444.102 1120.79 445.658 1119.02 445.658C1117.21 445.658 1115.77 444.102 1115.77 442.13C1115.77 440.211 1117.21 438.603 1119.02 438.603C1120.79 438.603 1122.28 440.211 1122.28 442.13Z" fill="#465C88" fill-opacity="0.4"/>
<path d="M1149.2 442.13C1149.2 444.102 1147.72 445.658 1145.95 445.658C1144.13 445.658 1142.7 444.102 1142.7 442.13C1142.7 440.211 1144.13 438.603 1145.95 438.603C1147.72 438.603 1149.2 440.211 1149.2 442.13Z" fill="#465C88" fill-opacity="0.4"/>
<path d="M1176.08 442.13C1176.08 444.102 1174.64 445.658 1172.82 445.658C1171.05 445.658 1169.62 444.102 1169.62 442.13C1169.62 440.211 1171.05 438.603 1172.82 438.603C1174.64 438.603 1176.08 440.211 1176.08 442.13Z" fill="#465C88" fill-opacity="0.4"/>
<path d="M1203 442.13C1203 444.102 1201.57 445.658 1199.75 445.658C1197.98 445.658 1196.5 444.102 1196.5 442.13C1196.5 440.211 1197.98 438.603 1199.75 438.603C1201.57 438.603 1203 440.211 1203 442.13Z" fill="#465C88" fill-opacity="0.4"/>
<path d="M1041.5 464.958C1041.5 466.929 1040.07 468.485 1038.25 468.485C1036.48 468.485 1035 466.929 1035 464.958C1035 463.038 1036.48 461.43 1038.25 461.43C1040.07 461.43 1041.5 463.038 1041.5 464.958Z" fill="#465C88" fill-opacity="0.4"/>
<path d="M1068.43 464.958C1068.43 466.929 1066.99 468.485 1065.18 468.485C1063.41 468.485 1061.92 466.929 1061.92 464.958C1061.92 463.038 1063.41 461.43 1065.18 461.43C1066.99 461.43 1068.43 463.038 1068.43 464.958Z" fill="#465C88" fill-opacity="0.4"/>
<path d="M1095.35 464.958C1095.35 466.929 1093.92 468.485 1092.1 468.485C1090.28 468.485 1088.85 466.929 1088.85 464.958C1088.85 463.038 1090.28 461.43 1092.1 461.43C1093.92 461.43 1095.35 463.038 1095.35 464.958Z" fill="#465C88" fill-opacity="0.4"/>
<path d="M1122.28 464.958C1122.28 466.929 1120.79 468.485 1119.02 468.485C1117.21 468.485 1115.77 466.929 1115.77 464.958C1115.77 463.038 1117.21 461.43 1119.02 461.43C1120.79 461.43 1122.28 463.038 1122.28 464.958Z" fill="#465C88" fill-opacity="0.4"/>
<path d="M1149.2 464.958C1149.2 466.929 1147.72 468.485 1145.95 468.485C1144.13 468.485 1142.7 466.929 1142.7 464.958C1142.7 463.038 1144.13 461.43 1145.95 461.43C1147.72 461.43 1149.2 463.038 1149.2 464.958Z" fill="#465C88" fill-opacity="0.4"/>
<path d="M1176.08 464.958C1176.08 466.929 1174.64 468.485 1172.82 468.485C1171.05 468.485 1169.62 466.929 1169.62 464.958C1169.62 463.038 1171.05 461.43 1172.82 461.43C1174.64 461.43 1176.08 463.038 1176.08 464.958Z" fill="#465C88" fill-opacity="0.4"/>
<path d="M1203 464.958C1203 466.929 1201.57 468.485 1199.75 468.485C1197.98 468.485 1196.5 466.929 1196.5 464.958C1196.5 463.038 1197.98 461.43 1199.75 461.43C1201.57 461.43 1203 463.038 1203 464.958Z" fill="#465C88" fill-opacity="0.4"/>
<path d="M1041.5 487.785C1041.5 489.756 1040.07 491.313 1038.25 491.313C1036.48 491.313 1035 489.756 1035 487.785C1035 485.865 1036.48 484.257 1038.25 484.257C1040.07 484.257 1041.5 485.865 1041.5 487.785Z" fill="#465C88" fill-opacity="0.4"/>
<path d="M1068.43 487.785C1068.43 489.756 1066.99 491.313 1065.18 491.313C1063.41 491.313 1061.92 489.756 1061.92 487.785C1061.92 485.865 1063.41 484.257 1065.18 484.257C1066.99 484.257 1068.43 485.865 1068.43 487.785Z" fill="#465C88" fill-opacity="0.4"/>
<path d="M1095.35 487.785C1095.35 489.756 1093.92 491.313 1092.1 491.313C1090.28 491.313 1088.85 489.756 1088.85 487.785C1088.85 485.865 1090.28 484.257 1092.1 484.257C1093.92 484.257 1095.35 485.865 1095.35 487.785Z" fill="#465C88" fill-opacity="0.4"/>
<path d="M1122.28 487.785C1122.28 489.756 1120.79 491.313 1119.02 491.313C1117.21 491.313 1115.77 489.756 1115.77 487.785C1115.77 485.865 1117.21 484.257 1119.02 484.257C1120.79 484.257 1122.28 485.865 1122.28 487.785Z" fill="#465C88" fill-opacity="0.4"/>
<path d="M1149.2 487.785C1149.2 489.756 1147.72 491.313 1145.95 491.313C1144.13 491.313 1142.7 489.756 1142.7 487.785C1142.7 485.865 1144.13 484.257 1145.95 484.257C1147.72 484.257 1149.2 485.865 1149.2 487.785Z" fill="#465C88" fill-opacity="0.4"/>
<path d="M1176.08 487.785C1176.08 489.756 1174.64 491.313 1172.82 491.313C1171.05 491.313 1169.62 489.756 1169.62 487.785C1169.62 485.865 1171.05 484.257 1172.82 484.257C1174.64 484.257 1176.08 485.865 1176.08 487.785Z" fill="#465C88" fill-opacity="0.4"/>
<path d="M1203 487.785C1203 489.756 1201.57 491.313 1199.75 491.313C1197.98 491.313 1196.5 489.756 1196.5 487.785C1196.5 485.865 1197.98 484.257 1199.75 484.257C1201.57 484.257 1203 485.865 1203 487.785Z" fill="#465C88" fill-opacity="0.4"/>
<path d="M1041.5 510.612C1041.5 512.583 1040.07 514.14 1038.25 514.14C1036.48 514.14 1035 512.583 1035 510.612C1035 508.641 1036.48 507.084 1038.25 507.084C1040.07 507.084 1041.5 508.641 1041.5 510.612Z" fill="#465C88" fill-opacity="0.4"/>
<path d="M1068.43 510.612C1068.43 512.583 1066.99 514.14 1065.18 514.14C1063.41 514.14 1061.92 512.583 1061.92 510.612C1061.92 508.641 1063.41 507.084 1065.18 507.084C1066.99 507.084 1068.43 508.641 1068.43 510.612Z" fill="#465C88" fill-opacity="0.4"/>
<path d="M1095.35 510.612C1095.35 512.583 1093.92 514.14 1092.1 514.14C1090.28 514.14 1088.85 512.583 1088.85 510.612C1088.85 508.641 1090.28 507.084 1092.1 507.084C1093.92 507.084 1095.35 508.641 1095.35 510.612Z" fill="#465C88" fill-opacity="0.4"/>
<path d="M1122.28 510.612C1122.28 512.583 1120.79 514.14 1119.02 514.14C1117.21 514.14 1115.77 512.583 1115.77 510.612C1115.77 508.641 1117.21 507.084 1119.02 507.084C1120.79 507.084 1122.28 508.641 1122.28 510.612Z" fill="#465C88" fill-opacity="0.4"/>
<path d="M1149.2 510.612C1149.2 512.583 1147.72 514.14 1145.95 514.14C1144.13 514.14 1142.7 512.583 1142.7 510.612C1142.7 508.641 1144.13 507.084 1145.95 507.084C1147.72 507.084 1149.2 508.641 1149.2 510.612Z" fill="#465C88" fill-opacity="0.4"/>
<path d="M1176.08 510.612C1176.08 512.583 1174.64 514.14 1172.82 514.14C1171.05 514.14 1169.62 512.583 1169.62 510.612C1169.62 508.641 1171.05 507.084 1172.82 507.084C1174.64 507.084 1176.08 508.641 1176.08 510.612Z" fill="#465C88" fill-opacity="0.4"/>
<path d="M1203 510.612C1203 512.583 1201.57 514.14 1199.75 514.14C1197.98 514.14 1196.5 512.583 1196.5 510.612C1196.5 508.641 1197.98 507.084 1199.75 507.084C1201.57 507.084 1203 508.641 1203 510.612Z" fill="#465C88" fill-opacity="0.4"/>
<path d="M1041.5 533.439C1041.5 535.359 1040.07 536.967 1038.25 536.967C1036.48 536.967 1035 535.359 1035 533.439C1035 531.468 1036.48 529.911 1038.25 529.911C1040.07 529.911 1041.5 531.468 1041.5 533.439Z" fill="#465C88" fill-opacity="0.4"/>
<path d="M1068.43 533.439C1068.43 535.359 1066.99 536.967 1065.18 536.967C1063.41 536.967 1061.92 535.359 1061.92 533.439C1061.92 531.468 1063.41 529.911 1065.18 529.911C1066.99 529.911 1068.43 531.468 1068.43 533.439Z" fill="#465C88" fill-opacity="0.4"/>
<path d="M1095.35 533.439C1095.35 535.359 1093.92 536.967 1092.1 536.967C1090.28 536.967 1088.85 535.359 1088.85 533.439C1088.85 531.468 1090.28 529.911 1092.1 529.911C1093.92 529.911 1095.35 531.468 1095.35 533.439Z" fill="#465C88" fill-opacity="0.4"/>
<path d="M1122.28 533.439C1122.28 535.359 1120.79 536.967 1119.02 536.967C1117.21 536.967 1115.77 535.359 1115.77 533.439C1115.77 531.468 1117.21 529.911 1119.02 529.911C1120.79 529.911 1122.28 531.468 1122.28 533.439Z" fill="#465C88" fill-opacity="0.4"/>
<path d="M1149.2 533.439C1149.2 535.359 1147.72 536.967 1145.95 536.967C1144.13 536.967 1142.7 535.359 1142.7 533.439C1142.7 531.468 1144.13 529.911 1145.95 529.911C1147.72 529.911 1149.2 531.468 1149.2 533.439Z" fill="#465C88" fill-opacity="0.4"/>
<path d="M1176.08 533.439C1176.08 535.359 1174.64 536.967 1172.82 536.967C1171.05 536.967 1169.62 535.359 1169.62 533.439C1169.62 531.468 1171.05 529.911 1172.82 529.911C1174.64 529.911 1176.08 531.468 1176.08 533.439Z" fill="#465C88" fill-opacity="0.4"/>
<path d="M1203 533.439C1203 535.359 1201.57 536.967 1199.75 536.967C1197.98 536.967 1196.5 535.359 1196.5 533.439C1196.5 531.468 1197.98 529.911 1199.75 529.911C1201.57 529.911 1203 531.468 1203 533.439Z" fill="#465C88" fill-opacity="0.4"/>
<path d="M1041.5 556.266C1041.5 558.186 1040.07 559.794 1038.25 559.794C1036.48 559.794 1035 558.186 1035 556.266C1035 554.295 1036.48 552.739 1038.25 552.739C1040.07 552.739 1041.5 554.295 1041.5 556.266Z" fill="#465C88" fill-opacity="0.4"/>
<path d="M1068.43 556.266C1068.43 558.186 1066.99 559.794 1065.18 559.794C1063.41 559.794 1061.92 558.186 1061.92 556.266C1061.92 554.295 1063.41 552.739 1065.18 552.739C1066.99 552.739 1068.43 554.295 1068.43 556.266Z" fill="#465C88" fill-opacity="0.4"/>
<path d="M1095.35 556.266C1095.35 558.186 1093.92 559.794 1092.1 559.794C1090.28 559.794 1088.85 558.186 1088.85 556.266C1088.85 554.295 1090.28 552.739 1092.1 552.739C1093.92 552.739 1095.35 554.295 1095.35 556.266Z" fill="#465C88" fill-opacity="0.4"/>
<path d="M1122.28 556.266C1122.28 558.186 1120.79 559.794 1119.02 559.794C1117.21 559.794 1115.77 558.186 1115.77 556.266C1115.77 554.295 1117.21 552.739 1119.02 552.739C1120.79 552.739 1122.28 554.295 1122.28 556.266Z" fill="#465C88" fill-opacity="0.4"/>
<path d="M1149.2 556.266C1149.2 558.186 1147.72 559.794 1145.95 559.794C1144.13 559.794 1142.7 558.186 1142.7 556.266C1142.7 554.295 1144.13 552.739 1145.95 552.739C1147.72 552.739 1149.2 554.295 1149.2 556.266Z" fill="#465C88" fill-opacity="0.4"/>
<path d="M1176.08 556.266C1176.08 558.186 1174.64 559.794 1172.82 559.794C1171.05 559.794 1169.62 558.186 1169.62 556.266C1169.62 554.295 1171.05 552.739 1172.82 552.739C1174.64 552.739 1176.08 554.295 1176.08 556.266Z" fill="#465C88" fill-opacity="0.4"/>
<path d="M1203 556.266C1203 558.186 1201.57 559.794 1199.75 559.794C1197.98 559.794 1196.5 558.186 1196.5 556.266C1196.5 554.295 1197.98 552.739 1199.75 552.739C1201.57 552.739 1203 554.295 1203 556.266Z" fill="#465C88" fill-opacity="0.4"/>
<path d="M1354.05 696L1367.6 707.054L1354.05 718.109L1367.6 729.163L1354.05 740.218L1327.03 718.109L1354.05 696Z" stroke="#06202B" stroke-opacity="0.2" stroke-width="4" stroke-miterlimit="10"/>
<path d="M1390.13 696L1403.67 707.054L1390.13 718.109L1403.67 729.163L1390.13 740.218L1376.58 729.163L1363.04 718.109L1390.13 696Z" stroke="#06202B" stroke-opacity="0.2" stroke-width="4" stroke-miterlimit="10"/>
<path d="M1426.13 696L1439.68 707.054L1426.13 718.109L1439.68 729.163L1426.13 740.218L1412.59 729.163L1399.04 718.109L1412.59 707.054L1426.13 696Z" stroke="#06202B" stroke-opacity="0.2" stroke-width="4" stroke-miterlimit="10"/>
<path d="M1246.03 696L1259.57 707.054L1246.03 718.109L1259.57 729.163L1246.03 740.218L1219 718.109L1246.03 696Z" stroke="#06202B" stroke-opacity="0.2" stroke-width="4" stroke-miterlimit="10"/>
<path d="M1282.1 696L1295.64 707.054L1282.1 718.109L1295.64 729.163L1282.1 740.218L1268.55 729.163L1255.01 718.109L1282.1 696Z" stroke="#06202B" stroke-opacity="0.2" stroke-width="4" stroke-miterlimit="10"/>
<path d="M1318.11 696L1331.65 707.054L1318.11 718.109L1331.65 729.163L1318.11 740.218L1304.56 729.163L1291.02 718.109L1304.56 707.054L1318.11 696Z" stroke="#06202B" stroke-opacity="0.2" stroke-width="4" stroke-miterlimit="10"/>
</g>
<defs>
<clipPath id="clip0_136_604">
<rect width="1440" height="1024" fill="white"/>
</clipPath>
</defs>
</svg>
