<svg width="1439" height="743" viewBox="0 0 1439 743" fill="none" xmlns="http://www.w3.org/2000/svg">
<path d="M562 695.838L519.828 723.889C503.371 734.704 476.628 734.704 460.171 723.889L447.828 715.665C431.371 704.737 404.628 704.737 388.171 715.665L375.828 723.889C359.371 734.704 332.628 734.704 316.171 723.889L303.828 715.665C287.371 704.737 260.628 704.737 244.171 715.665L231.828 723.889C215.371 734.704 188.628 734.704 172.171 723.889L159.828 715.665C143.371 704.737 116.628 704.737 100.171 715.665L87.8284 723.889C71.3713 734.704 44.6283 734.704 28.1712 723.889L-14 695.838" stroke="#465C88" stroke-opacity="0.4" stroke-width="4" stroke-miterlimit="10"/>
<path d="M562 666.322L519.828 694.373C503.371 705.301 476.628 705.301 460.171 694.373L447.828 686.149C431.371 675.222 404.628 675.222 388.171 686.149L375.828 694.373C359.371 705.301 332.628 705.301 316.171 694.373L303.828 686.149C287.371 675.222 260.628 675.222 244.171 686.149L231.828 694.373C215.371 705.301 188.628 705.301 172.171 694.373L159.828 686.149C143.371 675.222 116.628 675.222 100.171 686.149L87.8284 694.373C71.3713 705.301 44.6283 705.301 28.1712 694.373L-14 666.322" stroke="#465C88" stroke-opacity="0.4" stroke-width="4" stroke-miterlimit="10"/>
<path d="M562 636.919L519.828 664.857C503.371 675.785 476.628 675.785 460.171 664.857L447.828 656.746C431.371 645.819 404.628 645.819 388.171 656.746L375.828 664.857C359.371 675.785 332.628 675.785 316.171 664.857L303.828 656.746C287.371 645.819 260.628 645.819 244.171 656.746L231.828 664.857C215.371 675.785 188.628 675.785 172.171 664.857L159.828 656.746C143.371 645.819 116.628 645.819 100.171 656.746L87.8284 664.857C71.3713 675.785 44.6283 675.785 28.1712 664.857L-14 636.919" stroke="#465C88" stroke-opacity="0.4" stroke-width="4" stroke-miterlimit="10"/>
<path d="M562 607.403L519.828 635.454C503.371 646.382 476.628 646.382 460.171 635.454L447.828 627.231C431.371 616.303 404.628 616.303 388.171 627.231L375.828 635.454C359.371 646.382 332.628 646.382 316.171 635.454L303.828 627.231C287.371 616.303 260.628 616.303 244.171 627.231L231.828 635.454C215.371 646.382 188.628 646.382 172.171 635.454L159.828 627.231C143.371 616.303 116.628 616.303 100.171 627.231L87.8284 635.454C71.3713 646.382 44.6283 646.382 28.1712 635.454L-14 607.403" stroke="#465C88" stroke-opacity="0.4" stroke-width="4" stroke-miterlimit="10"/>
<path d="M562 578L519.828 605.938C503.371 616.866 476.628 616.866 460.171 605.938L447.828 597.827C431.371 586.9 404.628 586.9 388.171 597.827L375.828 605.938C359.371 616.866 332.628 616.866 316.171 605.938L303.828 597.827C287.371 586.9 260.628 586.9 244.171 597.827L231.828 605.939C215.371 616.866 188.628 616.866 172.171 605.939L159.828 597.827C143.371 586.9 116.628 586.9 100.171 597.827L87.8284 605.939C71.3713 616.866 44.6283 616.866 28.1712 605.939L-14 578" stroke="#465C88" stroke-opacity="0.4" stroke-width="4" stroke-miterlimit="10"/>
<path d="M847.504 216.476C847.504 218.447 846.069 220.004 844.252 220.004C842.482 220.004 841 218.447 841 216.476C841 214.556 842.482 213 844.252 213C846.069 213 847.504 214.556 847.504 216.476Z" fill="#465C88" fill-opacity="0.4"/>
<path d="M874.428 216.476C874.428 218.447 872.993 220.004 871.176 220.004C869.406 220.004 867.924 218.447 867.924 216.476C867.924 214.556 869.406 213 871.176 213C872.993 213 874.428 214.556 874.428 216.476Z" fill="#465C88" fill-opacity="0.4"/>
<path d="M901.352 216.476C901.352 218.447 899.917 220.004 898.1 220.004C896.283 220.004 894.848 218.447 894.848 216.476C894.848 214.556 896.283 213 898.1 213C899.917 213 901.352 214.556 901.352 216.476Z" fill="#465C88" fill-opacity="0.4"/>
<path d="M928.276 216.476C928.276 218.447 926.793 220.004 925.024 220.004C923.207 220.004 921.772 218.447 921.772 216.476C921.772 214.556 923.207 213 925.024 213C926.793 213 928.276 214.556 928.276 216.476Z" fill="#465C88" fill-opacity="0.4"/>
<path d="M955.2 216.476C955.2 218.447 953.717 220.004 951.948 220.004C950.131 220.004 948.696 218.447 948.696 216.476C948.696 214.556 950.131 213 951.948 213C953.717 213 955.2 214.556 955.2 216.476Z" fill="#465C88" fill-opacity="0.4"/>
<path d="M982.076 216.476C982.076 218.447 980.641 220.004 978.824 220.004C977.055 220.004 975.62 218.447 975.62 216.476C975.62 214.556 977.055 213 978.824 213C980.641 213 982.076 214.556 982.076 216.476Z" fill="#465C88" fill-opacity="0.4"/>
<path d="M1009 216.476C1009 218.447 1007.57 220.004 1005.75 220.004C1003.98 220.004 1002.5 218.447 1002.5 216.476C1002.5 214.556 1003.98 213 1005.75 213C1007.57 213 1009 214.556 1009 216.476Z" fill="#465C88" fill-opacity="0.4"/>
<path d="M847.504 239.303C847.504 241.275 846.069 242.831 844.252 242.831C842.482 242.831 841 241.275 841 239.303C841 237.384 842.482 235.775 844.252 235.775C846.069 235.775 847.504 237.384 847.504 239.303Z" fill="#465C88" fill-opacity="0.4"/>
<path d="M874.428 239.303C874.428 241.275 872.993 242.831 871.176 242.831C869.406 242.831 867.924 241.275 867.924 239.303C867.924 237.384 869.406 235.775 871.176 235.775C872.993 235.775 874.428 237.384 874.428 239.303Z" fill="#465C88" fill-opacity="0.4"/>
<path d="M901.352 239.303C901.352 241.275 899.917 242.831 898.1 242.831C896.283 242.831 894.848 241.275 894.848 239.303C894.848 237.384 896.283 235.775 898.1 235.775C899.917 235.775 901.352 237.384 901.352 239.303Z" fill="#465C88" fill-opacity="0.4"/>
<path d="M928.276 239.303C928.276 241.275 926.793 242.831 925.024 242.831C923.207 242.831 921.772 241.275 921.772 239.303C921.772 237.384 923.207 235.775 925.024 235.775C926.793 235.775 928.276 237.384 928.276 239.303Z" fill="#465C88" fill-opacity="0.4"/>
<path d="M955.2 239.303C955.2 241.275 953.717 242.831 951.948 242.831C950.131 242.831 948.696 241.275 948.696 239.303C948.696 237.384 950.131 235.775 951.948 235.775C953.717 235.775 955.2 237.384 955.2 239.303Z" fill="#465C88" fill-opacity="0.4"/>
<path d="M982.076 239.303C982.076 241.275 980.641 242.831 978.824 242.831C977.055 242.831 975.62 241.275 975.62 239.303C975.62 237.384 977.055 235.775 978.824 235.775C980.641 235.775 982.076 237.384 982.076 239.303Z" fill="#465C88" fill-opacity="0.4"/>
<path d="M1009 239.303C1009 241.275 1007.57 242.831 1005.75 242.831C1003.98 242.831 1002.5 241.275 1002.5 239.303C1002.5 237.384 1003.98 235.775 1005.75 235.775C1007.57 235.775 1009 237.384 1009 239.303Z" fill="#465C88" fill-opacity="0.4"/>
<path d="M847.504 262.13C847.504 264.102 846.069 265.658 844.252 265.658C842.482 265.658 841 264.102 841 262.13C841 260.211 842.482 258.603 844.252 258.603C846.069 258.603 847.504 260.211 847.504 262.13Z" fill="#465C88" fill-opacity="0.4"/>
<path d="M874.428 262.13C874.428 264.102 872.993 265.658 871.176 265.658C869.406 265.658 867.924 264.102 867.924 262.13C867.924 260.211 869.406 258.603 871.176 258.603C872.993 258.603 874.428 260.211 874.428 262.13Z" fill="#465C88" fill-opacity="0.4"/>
<path d="M901.352 262.13C901.352 264.102 899.917 265.658 898.1 265.658C896.283 265.658 894.848 264.102 894.848 262.13C894.848 260.211 896.283 258.603 898.1 258.603C899.917 258.603 901.352 260.211 901.352 262.13Z" fill="#465C88" fill-opacity="0.4"/>
<path d="M928.276 262.13C928.276 264.102 926.793 265.658 925.024 265.658C923.207 265.658 921.772 264.102 921.772 262.13C921.772 260.211 923.207 258.603 925.024 258.603C926.793 258.603 928.276 260.211 928.276 262.13Z" fill="#465C88" fill-opacity="0.4"/>
<path d="M955.2 262.13C955.2 264.102 953.717 265.658 951.948 265.658C950.131 265.658 948.696 264.102 948.696 262.13C948.696 260.211 950.131 258.603 951.948 258.603C953.717 258.603 955.2 260.211 955.2 262.13Z" fill="#465C88" fill-opacity="0.4"/>
<path d="M982.076 262.13C982.076 264.102 980.641 265.658 978.824 265.658C977.055 265.658 975.62 264.102 975.62 262.13C975.62 260.211 977.055 258.603 978.824 258.603C980.641 258.603 982.076 260.211 982.076 262.13Z" fill="#465C88" fill-opacity="0.4"/>
<path d="M1009 262.13C1009 264.102 1007.57 265.658 1005.75 265.658C1003.98 265.658 1002.5 264.102 1002.5 262.13C1002.5 260.211 1003.98 258.603 1005.75 258.603C1007.57 258.603 1009 260.211 1009 262.13Z" fill="#465C88" fill-opacity="0.4"/>
<path d="M847.504 284.958C847.504 286.929 846.069 288.485 844.252 288.485C842.482 288.485 841 286.929 841 284.958C841 283.038 842.482 281.43 844.252 281.43C846.069 281.43 847.504 283.038 847.504 284.958Z" fill="#465C88" fill-opacity="0.4"/>
<path d="M874.428 284.958C874.428 286.929 872.993 288.485 871.176 288.485C869.406 288.485 867.924 286.929 867.924 284.958C867.924 283.038 869.406 281.43 871.176 281.43C872.993 281.43 874.428 283.038 874.428 284.958Z" fill="#465C88" fill-opacity="0.4"/>
<path d="M901.352 284.958C901.352 286.929 899.917 288.485 898.1 288.485C896.283 288.485 894.848 286.929 894.848 284.958C894.848 283.038 896.283 281.43 898.1 281.43C899.917 281.43 901.352 283.038 901.352 284.958Z" fill="#465C88" fill-opacity="0.4"/>
<path d="M928.276 284.958C928.276 286.929 926.793 288.485 925.024 288.485C923.207 288.485 921.772 286.929 921.772 284.958C921.772 283.038 923.207 281.43 925.024 281.43C926.793 281.43 928.276 283.038 928.276 284.958Z" fill="#465C88" fill-opacity="0.4"/>
<path d="M955.2 284.958C955.2 286.929 953.717 288.485 951.948 288.485C950.131 288.485 948.696 286.929 948.696 284.958C948.696 283.038 950.131 281.43 951.948 281.43C953.717 281.43 955.2 283.038 955.2 284.958Z" fill="#465C88" fill-opacity="0.4"/>
<path d="M982.076 284.958C982.076 286.929 980.641 288.485 978.824 288.485C977.055 288.485 975.62 286.929 975.62 284.958C975.62 283.038 977.055 281.43 978.824 281.43C980.641 281.43 982.076 283.038 982.076 284.958Z" fill="#465C88" fill-opacity="0.4"/>
<path d="M1009 284.958C1009 286.929 1007.57 288.485 1005.75 288.485C1003.98 288.485 1002.5 286.929 1002.5 284.958C1002.5 283.038 1003.98 281.43 1005.75 281.43C1007.57 281.43 1009 283.038 1009 284.958Z" fill="#465C88" fill-opacity="0.4"/>
<path d="M847.504 307.785C847.504 309.756 846.069 311.313 844.252 311.313C842.482 311.313 841 309.756 841 307.785C841 305.865 842.482 304.257 844.252 304.257C846.069 304.257 847.504 305.865 847.504 307.785Z" fill="#465C88" fill-opacity="0.4"/>
<path d="M874.428 307.785C874.428 309.756 872.993 311.313 871.176 311.313C869.406 311.313 867.924 309.756 867.924 307.785C867.924 305.865 869.406 304.257 871.176 304.257C872.993 304.257 874.428 305.865 874.428 307.785Z" fill="#465C88" fill-opacity="0.4"/>
<path d="M901.352 307.785C901.352 309.756 899.917 311.313 898.1 311.313C896.283 311.313 894.848 309.756 894.848 307.785C894.848 305.865 896.283 304.257 898.1 304.257C899.917 304.257 901.352 305.865 901.352 307.785Z" fill="#465C88" fill-opacity="0.4"/>
<path d="M928.276 307.785C928.276 309.756 926.793 311.313 925.024 311.313C923.207 311.313 921.772 309.756 921.772 307.785C921.772 305.865 923.207 304.257 925.024 304.257C926.793 304.257 928.276 305.865 928.276 307.785Z" fill="#465C88" fill-opacity="0.4"/>
<path d="M955.2 307.785C955.2 309.756 953.717 311.313 951.948 311.313C950.131 311.313 948.696 309.756 948.696 307.785C948.696 305.865 950.131 304.257 951.948 304.257C953.717 304.257 955.2 305.865 955.2 307.785Z" fill="#465C88" fill-opacity="0.4"/>
<path d="M982.076 307.785C982.076 309.756 980.641 311.313 978.824 311.313C977.055 311.313 975.62 309.756 975.62 307.785C975.62 305.865 977.055 304.257 978.824 304.257C980.641 304.257 982.076 305.865 982.076 307.785Z" fill="#465C88" fill-opacity="0.4"/>
<path d="M1009 307.785C1009 309.756 1007.57 311.313 1005.75 311.313C1003.98 311.313 1002.5 309.756 1002.5 307.785C1002.5 305.865 1003.98 304.257 1005.75 304.257C1007.57 304.257 1009 305.865 1009 307.785Z" fill="#465C88" fill-opacity="0.4"/>
<path d="M847.504 330.612C847.504 332.583 846.069 334.14 844.252 334.14C842.482 334.14 841 332.583 841 330.612C841 328.641 842.482 327.084 844.252 327.084C846.069 327.084 847.504 328.641 847.504 330.612Z" fill="#465C88" fill-opacity="0.4"/>
<path d="M874.428 330.612C874.428 332.583 872.993 334.14 871.176 334.14C869.406 334.14 867.924 332.583 867.924 330.612C867.924 328.641 869.406 327.084 871.176 327.084C872.993 327.084 874.428 328.641 874.428 330.612Z" fill="#465C88" fill-opacity="0.4"/>
<path d="M901.352 330.612C901.352 332.583 899.917 334.14 898.1 334.14C896.283 334.14 894.848 332.583 894.848 330.612C894.848 328.641 896.283 327.084 898.1 327.084C899.917 327.084 901.352 328.641 901.352 330.612Z" fill="#465C88" fill-opacity="0.4"/>
<path d="M928.276 330.612C928.276 332.583 926.793 334.14 925.024 334.14C923.207 334.14 921.772 332.583 921.772 330.612C921.772 328.641 923.207 327.084 925.024 327.084C926.793 327.084 928.276 328.641 928.276 330.612Z" fill="#465C88" fill-opacity="0.4"/>
<path d="M955.2 330.612C955.2 332.583 953.717 334.14 951.948 334.14C950.131 334.14 948.696 332.583 948.696 330.612C948.696 328.641 950.131 327.084 951.948 327.084C953.717 327.084 955.2 328.641 955.2 330.612Z" fill="#465C88" fill-opacity="0.4"/>
<path d="M982.076 330.612C982.076 332.583 980.641 334.14 978.824 334.14C977.055 334.14 975.62 332.583 975.62 330.612C975.62 328.641 977.055 327.084 978.824 327.084C980.641 327.084 982.076 328.641 982.076 330.612Z" fill="#465C88" fill-opacity="0.4"/>
<path d="M1009 330.612C1009 332.583 1007.57 334.14 1005.75 334.14C1003.98 334.14 1002.5 332.583 1002.5 330.612C1002.5 328.641 1003.98 327.084 1005.75 327.084C1007.57 327.084 1009 328.641 1009 330.612Z" fill="#465C88" fill-opacity="0.4"/>
<path d="M847.504 353.439C847.504 355.359 846.069 356.967 844.252 356.967C842.482 356.967 841 355.359 841 353.439C841 351.468 842.482 349.911 844.252 349.911C846.069 349.911 847.504 351.468 847.504 353.439Z" fill="#465C88" fill-opacity="0.4"/>
<path d="M874.428 353.439C874.428 355.359 872.993 356.967 871.176 356.967C869.406 356.967 867.924 355.359 867.924 353.439C867.924 351.468 869.406 349.911 871.176 349.911C872.993 349.911 874.428 351.468 874.428 353.439Z" fill="#465C88" fill-opacity="0.4"/>
<path d="M901.352 353.439C901.352 355.359 899.917 356.967 898.1 356.967C896.283 356.967 894.848 355.359 894.848 353.439C894.848 351.468 896.283 349.911 898.1 349.911C899.917 349.911 901.352 351.468 901.352 353.439Z" fill="#465C88" fill-opacity="0.4"/>
<path d="M928.276 353.439C928.276 355.359 926.793 356.967 925.024 356.967C923.207 356.967 921.772 355.359 921.772 353.439C921.772 351.468 923.207 349.911 925.024 349.911C926.793 349.911 928.276 351.468 928.276 353.439Z" fill="#465C88" fill-opacity="0.4"/>
<path d="M955.2 353.439C955.2 355.359 953.717 356.967 951.948 356.967C950.131 356.967 948.696 355.359 948.696 353.439C948.696 351.468 950.131 349.911 951.948 349.911C953.717 349.911 955.2 351.468 955.2 353.439Z" fill="#465C88" fill-opacity="0.4"/>
<path d="M982.076 353.439C982.076 355.359 980.641 356.967 978.824 356.967C977.055 356.967 975.62 355.359 975.62 353.439C975.62 351.468 977.055 349.911 978.824 349.911C980.641 349.911 982.076 351.468 982.076 353.439Z" fill="#465C88" fill-opacity="0.4"/>
<path d="M1009 353.439C1009 355.359 1007.57 356.967 1005.75 356.967C1003.98 356.967 1002.5 355.359 1002.5 353.439C1002.5 351.468 1003.98 349.911 1005.75 349.911C1007.57 349.911 1009 351.468 1009 353.439Z" fill="#465C88" fill-opacity="0.4"/>
<path d="M847.504 376.266C847.504 378.186 846.069 379.794 844.252 379.794C842.482 379.794 841 378.186 841 376.266C841 374.295 842.482 372.739 844.252 372.739C846.069 372.739 847.504 374.295 847.504 376.266Z" fill="#465C88" fill-opacity="0.4"/>
<path d="M874.428 376.266C874.428 378.186 872.993 379.794 871.176 379.794C869.406 379.794 867.924 378.186 867.924 376.266C867.924 374.295 869.406 372.739 871.176 372.739C872.993 372.739 874.428 374.295 874.428 376.266Z" fill="#465C88" fill-opacity="0.4"/>
<path d="M901.352 376.266C901.352 378.186 899.917 379.794 898.1 379.794C896.283 379.794 894.848 378.186 894.848 376.266C894.848 374.295 896.283 372.739 898.1 372.739C899.917 372.739 901.352 374.295 901.352 376.266Z" fill="#465C88" fill-opacity="0.4"/>
<path d="M928.276 376.266C928.276 378.186 926.793 379.794 925.024 379.794C923.207 379.794 921.772 378.186 921.772 376.266C921.772 374.295 923.207 372.739 925.024 372.739C926.793 372.739 928.276 374.295 928.276 376.266Z" fill="#465C88" fill-opacity="0.4"/>
<path d="M955.2 376.266C955.2 378.186 953.717 379.794 951.948 379.794C950.131 379.794 948.696 378.186 948.696 376.266C948.696 374.295 950.131 372.739 951.948 372.739C953.717 372.739 955.2 374.295 955.2 376.266Z" fill="#465C88" fill-opacity="0.4"/>
<path d="M982.076 376.266C982.076 378.186 980.641 379.794 978.824 379.794C977.055 379.794 975.62 378.186 975.62 376.266C975.62 374.295 977.055 372.739 978.824 372.739C980.641 372.739 982.076 374.295 982.076 376.266Z" fill="#465C88" fill-opacity="0.4"/>
<path d="M1009 376.266C1009 378.186 1007.57 379.794 1005.75 379.794C1003.98 379.794 1002.5 378.186 1002.5 376.266C1002.5 374.295 1003.98 372.739 1005.75 372.739C1007.57 372.739 1009 374.295 1009 376.266Z" fill="#465C88" fill-opacity="0.4"/>
<path d="M1037.5 216.476C1037.5 218.447 1036.07 220.004 1034.25 220.004C1032.48 220.004 1031 218.447 1031 216.476C1031 214.556 1032.48 213 1034.25 213C1036.07 213 1037.5 214.556 1037.5 216.476Z" fill="#465C88" fill-opacity="0.4"/>
<path d="M1064.43 216.476C1064.43 218.447 1062.99 220.004 1061.18 220.004C1059.41 220.004 1057.92 218.447 1057.92 216.476C1057.92 214.556 1059.41 213 1061.18 213C1062.99 213 1064.43 214.556 1064.43 216.476Z" fill="#465C88" fill-opacity="0.4"/>
<path d="M1091.35 216.476C1091.35 218.447 1089.92 220.004 1088.1 220.004C1086.28 220.004 1084.85 218.447 1084.85 216.476C1084.85 214.556 1086.28 213 1088.1 213C1089.92 213 1091.35 214.556 1091.35 216.476Z" fill="#465C88" fill-opacity="0.4"/>
<path d="M1118.28 216.476C1118.28 218.447 1116.79 220.004 1115.02 220.004C1113.21 220.004 1111.77 218.447 1111.77 216.476C1111.77 214.556 1113.21 213 1115.02 213C1116.79 213 1118.28 214.556 1118.28 216.476Z" fill="#465C88" fill-opacity="0.4"/>
<path d="M1145.2 216.476C1145.2 218.447 1143.72 220.004 1141.95 220.004C1140.13 220.004 1138.7 218.447 1138.7 216.476C1138.7 214.556 1140.13 213 1141.95 213C1143.72 213 1145.2 214.556 1145.2 216.476Z" fill="#465C88" fill-opacity="0.4"/>
<path d="M1172.08 216.476C1172.08 218.447 1170.64 220.004 1168.82 220.004C1167.05 220.004 1165.62 218.447 1165.62 216.476C1165.62 214.556 1167.05 213 1168.82 213C1170.64 213 1172.08 214.556 1172.08 216.476Z" fill="#465C88" fill-opacity="0.4"/>
<path d="M1199 216.476C1199 218.447 1197.57 220.004 1195.75 220.004C1193.98 220.004 1192.5 218.447 1192.5 216.476C1192.5 214.556 1193.98 213 1195.75 213C1197.57 213 1199 214.556 1199 216.476Z" fill="#465C88" fill-opacity="0.4"/>
<path d="M1037.5 239.303C1037.5 241.275 1036.07 242.831 1034.25 242.831C1032.48 242.831 1031 241.275 1031 239.303C1031 237.384 1032.48 235.775 1034.25 235.775C1036.07 235.775 1037.5 237.384 1037.5 239.303Z" fill="#465C88" fill-opacity="0.4"/>
<path d="M1064.43 239.303C1064.43 241.275 1062.99 242.831 1061.18 242.831C1059.41 242.831 1057.92 241.275 1057.92 239.303C1057.92 237.384 1059.41 235.775 1061.18 235.775C1062.99 235.775 1064.43 237.384 1064.43 239.303Z" fill="#465C88" fill-opacity="0.4"/>
<path d="M1091.35 239.303C1091.35 241.275 1089.92 242.831 1088.1 242.831C1086.28 242.831 1084.85 241.275 1084.85 239.303C1084.85 237.384 1086.28 235.775 1088.1 235.775C1089.92 235.775 1091.35 237.384 1091.35 239.303Z" fill="#465C88" fill-opacity="0.4"/>
<path d="M1118.28 239.303C1118.28 241.275 1116.79 242.831 1115.02 242.831C1113.21 242.831 1111.77 241.275 1111.77 239.303C1111.77 237.384 1113.21 235.775 1115.02 235.775C1116.79 235.775 1118.28 237.384 1118.28 239.303Z" fill="#465C88" fill-opacity="0.4"/>
<path d="M1145.2 239.303C1145.2 241.275 1143.72 242.831 1141.95 242.831C1140.13 242.831 1138.7 241.275 1138.7 239.303C1138.7 237.384 1140.13 235.775 1141.95 235.775C1143.72 235.775 1145.2 237.384 1145.2 239.303Z" fill="#465C88" fill-opacity="0.4"/>
<path d="M1172.08 239.303C1172.08 241.275 1170.64 242.831 1168.82 242.831C1167.05 242.831 1165.62 241.275 1165.62 239.303C1165.62 237.384 1167.05 235.775 1168.82 235.775C1170.64 235.775 1172.08 237.384 1172.08 239.303Z" fill="#465C88" fill-opacity="0.4"/>
<path d="M1199 239.303C1199 241.275 1197.57 242.831 1195.75 242.831C1193.98 242.831 1192.5 241.275 1192.5 239.303C1192.5 237.384 1193.98 235.775 1195.75 235.775C1197.57 235.775 1199 237.384 1199 239.303Z" fill="#465C88" fill-opacity="0.4"/>
<path d="M1037.5 262.13C1037.5 264.102 1036.07 265.658 1034.25 265.658C1032.48 265.658 1031 264.102 1031 262.13C1031 260.211 1032.48 258.603 1034.25 258.603C1036.07 258.603 1037.5 260.211 1037.5 262.13Z" fill="#465C88" fill-opacity="0.4"/>
<path d="M1064.43 262.13C1064.43 264.102 1062.99 265.658 1061.18 265.658C1059.41 265.658 1057.92 264.102 1057.92 262.13C1057.92 260.211 1059.41 258.603 1061.18 258.603C1062.99 258.603 1064.43 260.211 1064.43 262.13Z" fill="#465C88" fill-opacity="0.4"/>
<path d="M1091.35 262.13C1091.35 264.102 1089.92 265.658 1088.1 265.658C1086.28 265.658 1084.85 264.102 1084.85 262.13C1084.85 260.211 1086.28 258.603 1088.1 258.603C1089.92 258.603 1091.35 260.211 1091.35 262.13Z" fill="#465C88" fill-opacity="0.4"/>
<path d="M1118.28 262.13C1118.28 264.102 1116.79 265.658 1115.02 265.658C1113.21 265.658 1111.77 264.102 1111.77 262.13C1111.77 260.211 1113.21 258.603 1115.02 258.603C1116.79 258.603 1118.28 260.211 1118.28 262.13Z" fill="#465C88" fill-opacity="0.4"/>
<path d="M1145.2 262.13C1145.2 264.102 1143.72 265.658 1141.95 265.658C1140.13 265.658 1138.7 264.102 1138.7 262.13C1138.7 260.211 1140.13 258.603 1141.95 258.603C1143.72 258.603 1145.2 260.211 1145.2 262.13Z" fill="#465C88" fill-opacity="0.4"/>
<path d="M1172.08 262.13C1172.08 264.102 1170.64 265.658 1168.82 265.658C1167.05 265.658 1165.62 264.102 1165.62 262.13C1165.62 260.211 1167.05 258.603 1168.82 258.603C1170.64 258.603 1172.08 260.211 1172.08 262.13Z" fill="#465C88" fill-opacity="0.4"/>
<path d="M1199 262.13C1199 264.102 1197.57 265.658 1195.75 265.658C1193.98 265.658 1192.5 264.102 1192.5 262.13C1192.5 260.211 1193.98 258.603 1195.75 258.603C1197.57 258.603 1199 260.211 1199 262.13Z" fill="#465C88" fill-opacity="0.4"/>
<path d="M1037.5 284.958C1037.5 286.929 1036.07 288.485 1034.25 288.485C1032.48 288.485 1031 286.929 1031 284.958C1031 283.038 1032.48 281.43 1034.25 281.43C1036.07 281.43 1037.5 283.038 1037.5 284.958Z" fill="#465C88" fill-opacity="0.4"/>
<path d="M1064.43 284.958C1064.43 286.929 1062.99 288.485 1061.18 288.485C1059.41 288.485 1057.92 286.929 1057.92 284.958C1057.92 283.038 1059.41 281.43 1061.18 281.43C1062.99 281.43 1064.43 283.038 1064.43 284.958Z" fill="#465C88" fill-opacity="0.4"/>
<path d="M1091.35 284.958C1091.35 286.929 1089.92 288.485 1088.1 288.485C1086.28 288.485 1084.85 286.929 1084.85 284.958C1084.85 283.038 1086.28 281.43 1088.1 281.43C1089.92 281.43 1091.35 283.038 1091.35 284.958Z" fill="#465C88" fill-opacity="0.4"/>
<path d="M1118.28 284.958C1118.28 286.929 1116.79 288.485 1115.02 288.485C1113.21 288.485 1111.77 286.929 1111.77 284.958C1111.77 283.038 1113.21 281.43 1115.02 281.43C1116.79 281.43 1118.28 283.038 1118.28 284.958Z" fill="#465C88" fill-opacity="0.4"/>
<path d="M1145.2 284.958C1145.2 286.929 1143.72 288.485 1141.95 288.485C1140.13 288.485 1138.7 286.929 1138.7 284.958C1138.7 283.038 1140.13 281.43 1141.95 281.43C1143.72 281.43 1145.2 283.038 1145.2 284.958Z" fill="#465C88" fill-opacity="0.4"/>
<path d="M1172.08 284.958C1172.08 286.929 1170.64 288.485 1168.82 288.485C1167.05 288.485 1165.62 286.929 1165.62 284.958C1165.62 283.038 1167.05 281.43 1168.82 281.43C1170.64 281.43 1172.08 283.038 1172.08 284.958Z" fill="#465C88" fill-opacity="0.4"/>
<path d="M1199 284.958C1199 286.929 1197.57 288.485 1195.75 288.485C1193.98 288.485 1192.5 286.929 1192.5 284.958C1192.5 283.038 1193.98 281.43 1195.75 281.43C1197.57 281.43 1199 283.038 1199 284.958Z" fill="#465C88" fill-opacity="0.4"/>
<path d="M1037.5 307.785C1037.5 309.756 1036.07 311.313 1034.25 311.313C1032.48 311.313 1031 309.756 1031 307.785C1031 305.865 1032.48 304.257 1034.25 304.257C1036.07 304.257 1037.5 305.865 1037.5 307.785Z" fill="#465C88" fill-opacity="0.4"/>
<path d="M1064.43 307.785C1064.43 309.756 1062.99 311.313 1061.18 311.313C1059.41 311.313 1057.92 309.756 1057.92 307.785C1057.92 305.865 1059.41 304.257 1061.18 304.257C1062.99 304.257 1064.43 305.865 1064.43 307.785Z" fill="#465C88" fill-opacity="0.4"/>
<path d="M1091.35 307.785C1091.35 309.756 1089.92 311.313 1088.1 311.313C1086.28 311.313 1084.85 309.756 1084.85 307.785C1084.85 305.865 1086.28 304.257 1088.1 304.257C1089.92 304.257 1091.35 305.865 1091.35 307.785Z" fill="#465C88" fill-opacity="0.4"/>
<path d="M1118.28 307.785C1118.28 309.756 1116.79 311.313 1115.02 311.313C1113.21 311.313 1111.77 309.756 1111.77 307.785C1111.77 305.865 1113.21 304.257 1115.02 304.257C1116.79 304.257 1118.28 305.865 1118.28 307.785Z" fill="#465C88" fill-opacity="0.4"/>
<path d="M1145.2 307.785C1145.2 309.756 1143.72 311.313 1141.95 311.313C1140.13 311.313 1138.7 309.756 1138.7 307.785C1138.7 305.865 1140.13 304.257 1141.95 304.257C1143.72 304.257 1145.2 305.865 1145.2 307.785Z" fill="#465C88" fill-opacity="0.4"/>
<path d="M1172.08 307.785C1172.08 309.756 1170.64 311.313 1168.82 311.313C1167.05 311.313 1165.62 309.756 1165.62 307.785C1165.62 305.865 1167.05 304.257 1168.82 304.257C1170.64 304.257 1172.08 305.865 1172.08 307.785Z" fill="#465C88" fill-opacity="0.4"/>
<path d="M1199 307.785C1199 309.756 1197.57 311.313 1195.75 311.313C1193.98 311.313 1192.5 309.756 1192.5 307.785C1192.5 305.865 1193.98 304.257 1195.75 304.257C1197.57 304.257 1199 305.865 1199 307.785Z" fill="#465C88" fill-opacity="0.4"/>
<path d="M1037.5 330.612C1037.5 332.583 1036.07 334.14 1034.25 334.14C1032.48 334.14 1031 332.583 1031 330.612C1031 328.641 1032.48 327.084 1034.25 327.084C1036.07 327.084 1037.5 328.641 1037.5 330.612Z" fill="#465C88" fill-opacity="0.4"/>
<path d="M1064.43 330.612C1064.43 332.583 1062.99 334.14 1061.18 334.14C1059.41 334.14 1057.92 332.583 1057.92 330.612C1057.92 328.641 1059.41 327.084 1061.18 327.084C1062.99 327.084 1064.43 328.641 1064.43 330.612Z" fill="#465C88" fill-opacity="0.4"/>
<path d="M1091.35 330.612C1091.35 332.583 1089.92 334.14 1088.1 334.14C1086.28 334.14 1084.85 332.583 1084.85 330.612C1084.85 328.641 1086.28 327.084 1088.1 327.084C1089.92 327.084 1091.35 328.641 1091.35 330.612Z" fill="#465C88" fill-opacity="0.4"/>
<path d="M1118.28 330.612C1118.28 332.583 1116.79 334.14 1115.02 334.14C1113.21 334.14 1111.77 332.583 1111.77 330.612C1111.77 328.641 1113.21 327.084 1115.02 327.084C1116.79 327.084 1118.28 328.641 1118.28 330.612Z" fill="#465C88" fill-opacity="0.4"/>
<path d="M1145.2 330.612C1145.2 332.583 1143.72 334.14 1141.95 334.14C1140.13 334.14 1138.7 332.583 1138.7 330.612C1138.7 328.641 1140.13 327.084 1141.95 327.084C1143.72 327.084 1145.2 328.641 1145.2 330.612Z" fill="#465C88" fill-opacity="0.4"/>
<path d="M1172.08 330.612C1172.08 332.583 1170.64 334.14 1168.82 334.14C1167.05 334.14 1165.62 332.583 1165.62 330.612C1165.62 328.641 1167.05 327.084 1168.82 327.084C1170.64 327.084 1172.08 328.641 1172.08 330.612Z" fill="#465C88" fill-opacity="0.4"/>
<path d="M1199 330.612C1199 332.583 1197.57 334.14 1195.75 334.14C1193.98 334.14 1192.5 332.583 1192.5 330.612C1192.5 328.641 1193.98 327.084 1195.75 327.084C1197.57 327.084 1199 328.641 1199 330.612Z" fill="#465C88" fill-opacity="0.4"/>
<path d="M1037.5 353.439C1037.5 355.359 1036.07 356.967 1034.25 356.967C1032.48 356.967 1031 355.359 1031 353.439C1031 351.468 1032.48 349.911 1034.25 349.911C1036.07 349.911 1037.5 351.468 1037.5 353.439Z" fill="#465C88" fill-opacity="0.4"/>
<path d="M1064.43 353.439C1064.43 355.359 1062.99 356.967 1061.18 356.967C1059.41 356.967 1057.92 355.359 1057.92 353.439C1057.92 351.468 1059.41 349.911 1061.18 349.911C1062.99 349.911 1064.43 351.468 1064.43 353.439Z" fill="#465C88" fill-opacity="0.4"/>
<path d="M1091.35 353.439C1091.35 355.359 1089.92 356.967 1088.1 356.967C1086.28 356.967 1084.85 355.359 1084.85 353.439C1084.85 351.468 1086.28 349.911 1088.1 349.911C1089.92 349.911 1091.35 351.468 1091.35 353.439Z" fill="#465C88" fill-opacity="0.4"/>
<path d="M1118.28 353.439C1118.28 355.359 1116.79 356.967 1115.02 356.967C1113.21 356.967 1111.77 355.359 1111.77 353.439C1111.77 351.468 1113.21 349.911 1115.02 349.911C1116.79 349.911 1118.28 351.468 1118.28 353.439Z" fill="#465C88" fill-opacity="0.4"/>
<path d="M1145.2 353.439C1145.2 355.359 1143.72 356.967 1141.95 356.967C1140.13 356.967 1138.7 355.359 1138.7 353.439C1138.7 351.468 1140.13 349.911 1141.95 349.911C1143.72 349.911 1145.2 351.468 1145.2 353.439Z" fill="#465C88" fill-opacity="0.4"/>
<path d="M1172.08 353.439C1172.08 355.359 1170.64 356.967 1168.82 356.967C1167.05 356.967 1165.62 355.359 1165.62 353.439C1165.62 351.468 1167.05 349.911 1168.82 349.911C1170.64 349.911 1172.08 351.468 1172.08 353.439Z" fill="#465C88" fill-opacity="0.4"/>
<path d="M1199 353.439C1199 355.359 1197.57 356.967 1195.75 356.967C1193.98 356.967 1192.5 355.359 1192.5 353.439C1192.5 351.468 1193.98 349.911 1195.75 349.911C1197.57 349.911 1199 351.468 1199 353.439Z" fill="#465C88" fill-opacity="0.4"/>
<path d="M1037.5 376.266C1037.5 378.186 1036.07 379.794 1034.25 379.794C1032.48 379.794 1031 378.186 1031 376.266C1031 374.295 1032.48 372.739 1034.25 372.739C1036.07 372.739 1037.5 374.295 1037.5 376.266Z" fill="#465C88" fill-opacity="0.4"/>
<path d="M1064.43 376.266C1064.43 378.186 1062.99 379.794 1061.18 379.794C1059.41 379.794 1057.92 378.186 1057.92 376.266C1057.92 374.295 1059.41 372.739 1061.18 372.739C1062.99 372.739 1064.43 374.295 1064.43 376.266Z" fill="#465C88" fill-opacity="0.4"/>
<path d="M1091.35 376.266C1091.35 378.186 1089.92 379.794 1088.1 379.794C1086.28 379.794 1084.85 378.186 1084.85 376.266C1084.85 374.295 1086.28 372.739 1088.1 372.739C1089.92 372.739 1091.35 374.295 1091.35 376.266Z" fill="#465C88" fill-opacity="0.4"/>
<path d="M1118.28 376.266C1118.28 378.186 1116.79 379.794 1115.02 379.794C1113.21 379.794 1111.77 378.186 1111.77 376.266C1111.77 374.295 1113.21 372.739 1115.02 372.739C1116.79 372.739 1118.28 374.295 1118.28 376.266Z" fill="#465C88" fill-opacity="0.4"/>
<path d="M1145.2 376.266C1145.2 378.186 1143.72 379.794 1141.95 379.794C1140.13 379.794 1138.7 378.186 1138.7 376.266C1138.7 374.295 1140.13 372.739 1141.95 372.739C1143.72 372.739 1145.2 374.295 1145.2 376.266Z" fill="#465C88" fill-opacity="0.4"/>
<path d="M1172.08 376.266C1172.08 378.186 1170.64 379.794 1168.82 379.794C1167.05 379.794 1165.62 378.186 1165.62 376.266C1165.62 374.295 1167.05 372.739 1168.82 372.739C1170.64 372.739 1172.08 374.295 1172.08 376.266Z" fill="#465C88" fill-opacity="0.4"/>
<path d="M1199 376.266C1199 378.186 1197.57 379.794 1195.75 379.794C1193.98 379.794 1192.5 378.186 1192.5 376.266C1192.5 374.295 1193.98 372.739 1195.75 372.739C1197.57 372.739 1199 374.295 1199 376.266Z" fill="#465C88" fill-opacity="0.4"/>
<path d="M847.504 396.476C847.504 398.447 846.069 400.004 844.252 400.004C842.482 400.004 841 398.447 841 396.476C841 394.556 842.482 393 844.252 393C846.069 393 847.504 394.556 847.504 396.476Z" fill="#465C88" fill-opacity="0.4"/>
<path d="M874.428 396.476C874.428 398.447 872.993 400.004 871.176 400.004C869.406 400.004 867.924 398.447 867.924 396.476C867.924 394.556 869.406 393 871.176 393C872.993 393 874.428 394.556 874.428 396.476Z" fill="#465C88" fill-opacity="0.4"/>
<path d="M901.352 396.476C901.352 398.447 899.917 400.004 898.1 400.004C896.283 400.004 894.848 398.447 894.848 396.476C894.848 394.556 896.283 393 898.1 393C899.917 393 901.352 394.556 901.352 396.476Z" fill="#465C88" fill-opacity="0.4"/>
<path d="M928.276 396.476C928.276 398.447 926.793 400.004 925.024 400.004C923.207 400.004 921.772 398.447 921.772 396.476C921.772 394.556 923.207 393 925.024 393C926.793 393 928.276 394.556 928.276 396.476Z" fill="#465C88" fill-opacity="0.4"/>
<path d="M955.2 396.476C955.2 398.447 953.717 400.004 951.948 400.004C950.131 400.004 948.696 398.447 948.696 396.476C948.696 394.556 950.131 393 951.948 393C953.717 393 955.2 394.556 955.2 396.476Z" fill="#465C88" fill-opacity="0.4"/>
<path d="M982.076 396.476C982.076 398.447 980.641 400.004 978.824 400.004C977.055 400.004 975.62 398.447 975.62 396.476C975.62 394.556 977.055 393 978.824 393C980.641 393 982.076 394.556 982.076 396.476Z" fill="#465C88" fill-opacity="0.4"/>
<path d="M1009 396.476C1009 398.447 1007.57 400.004 1005.75 400.004C1003.98 400.004 1002.5 398.447 1002.5 396.476C1002.5 394.556 1003.98 393 1005.75 393C1007.57 393 1009 394.556 1009 396.476Z" fill="#465C88" fill-opacity="0.4"/>
<path d="M847.504 419.303C847.504 421.275 846.069 422.831 844.252 422.831C842.482 422.831 841 421.275 841 419.303C841 417.384 842.482 415.775 844.252 415.775C846.069 415.775 847.504 417.384 847.504 419.303Z" fill="#465C88" fill-opacity="0.4"/>
<path d="M874.428 419.303C874.428 421.275 872.993 422.831 871.176 422.831C869.406 422.831 867.924 421.275 867.924 419.303C867.924 417.384 869.406 415.775 871.176 415.775C872.993 415.775 874.428 417.384 874.428 419.303Z" fill="#465C88" fill-opacity="0.4"/>
<path d="M901.352 419.303C901.352 421.275 899.917 422.831 898.1 422.831C896.283 422.831 894.848 421.275 894.848 419.303C894.848 417.384 896.283 415.775 898.1 415.775C899.917 415.775 901.352 417.384 901.352 419.303Z" fill="#465C88" fill-opacity="0.4"/>
<path d="M928.276 419.303C928.276 421.275 926.793 422.831 925.024 422.831C923.207 422.831 921.772 421.275 921.772 419.303C921.772 417.384 923.207 415.775 925.024 415.775C926.793 415.775 928.276 417.384 928.276 419.303Z" fill="#465C88" fill-opacity="0.4"/>
<path d="M955.2 419.303C955.2 421.275 953.717 422.831 951.948 422.831C950.131 422.831 948.696 421.275 948.696 419.303C948.696 417.384 950.131 415.775 951.948 415.775C953.717 415.775 955.2 417.384 955.2 419.303Z" fill="#465C88" fill-opacity="0.4"/>
<path d="M982.076 419.303C982.076 421.275 980.641 422.831 978.824 422.831C977.055 422.831 975.62 421.275 975.62 419.303C975.62 417.384 977.055 415.775 978.824 415.775C980.641 415.775 982.076 417.384 982.076 419.303Z" fill="#465C88" fill-opacity="0.4"/>
<path d="M1009 419.303C1009 421.275 1007.57 422.831 1005.75 422.831C1003.98 422.831 1002.5 421.275 1002.5 419.303C1002.5 417.384 1003.98 415.775 1005.75 415.775C1007.57 415.775 1009 417.384 1009 419.303Z" fill="#465C88" fill-opacity="0.4"/>
<path d="M847.504 442.13C847.504 444.102 846.069 445.658 844.252 445.658C842.482 445.658 841 444.102 841 442.13C841 440.211 842.482 438.603 844.252 438.603C846.069 438.603 847.504 440.211 847.504 442.13Z" fill="#465C88" fill-opacity="0.4"/>
<path d="M874.428 442.13C874.428 444.102 872.993 445.658 871.176 445.658C869.406 445.658 867.924 444.102 867.924 442.13C867.924 440.211 869.406 438.603 871.176 438.603C872.993 438.603 874.428 440.211 874.428 442.13Z" fill="#465C88" fill-opacity="0.4"/>
<path d="M901.352 442.13C901.352 444.102 899.917 445.658 898.1 445.658C896.283 445.658 894.848 444.102 894.848 442.13C894.848 440.211 896.283 438.603 898.1 438.603C899.917 438.603 901.352 440.211 901.352 442.13Z" fill="#465C88" fill-opacity="0.4"/>
<path d="M928.276 442.13C928.276 444.102 926.793 445.658 925.024 445.658C923.207 445.658 921.772 444.102 921.772 442.13C921.772 440.211 923.207 438.603 925.024 438.603C926.793 438.603 928.276 440.211 928.276 442.13Z" fill="#465C88" fill-opacity="0.4"/>
<path d="M955.2 442.13C955.2 444.102 953.717 445.658 951.948 445.658C950.131 445.658 948.696 444.102 948.696 442.13C948.696 440.211 950.131 438.603 951.948 438.603C953.717 438.603 955.2 440.211 955.2 442.13Z" fill="#465C88" fill-opacity="0.4"/>
<path d="M982.076 442.13C982.076 444.102 980.641 445.658 978.824 445.658C977.055 445.658 975.62 444.102 975.62 442.13C975.62 440.211 977.055 438.603 978.824 438.603C980.641 438.603 982.076 440.211 982.076 442.13Z" fill="#465C88" fill-opacity="0.4"/>
<path d="M1009 442.13C1009 444.102 1007.57 445.658 1005.75 445.658C1003.98 445.658 1002.5 444.102 1002.5 442.13C1002.5 440.211 1003.98 438.603 1005.75 438.603C1007.57 438.603 1009 440.211 1009 442.13Z" fill="#465C88" fill-opacity="0.4"/>
<path d="M847.504 464.958C847.504 466.929 846.069 468.485 844.252 468.485C842.482 468.485 841 466.929 841 464.958C841 463.038 842.482 461.43 844.252 461.43C846.069 461.43 847.504 463.038 847.504 464.958Z" fill="#465C88" fill-opacity="0.4"/>
<path d="M874.428 464.958C874.428 466.929 872.993 468.485 871.176 468.485C869.406 468.485 867.924 466.929 867.924 464.958C867.924 463.038 869.406 461.43 871.176 461.43C872.993 461.43 874.428 463.038 874.428 464.958Z" fill="#465C88" fill-opacity="0.4"/>
<path d="M901.352 464.958C901.352 466.929 899.917 468.485 898.1 468.485C896.283 468.485 894.848 466.929 894.848 464.958C894.848 463.038 896.283 461.43 898.1 461.43C899.917 461.43 901.352 463.038 901.352 464.958Z" fill="#465C88" fill-opacity="0.4"/>
<path d="M928.276 464.958C928.276 466.929 926.793 468.485 925.024 468.485C923.207 468.485 921.772 466.929 921.772 464.958C921.772 463.038 923.207 461.43 925.024 461.43C926.793 461.43 928.276 463.038 928.276 464.958Z" fill="#465C88" fill-opacity="0.4"/>
<path d="M955.2 464.958C955.2 466.929 953.717 468.485 951.948 468.485C950.131 468.485 948.696 466.929 948.696 464.958C948.696 463.038 950.131 461.43 951.948 461.43C953.717 461.43 955.2 463.038 955.2 464.958Z" fill="#465C88" fill-opacity="0.4"/>
<path d="M982.076 464.958C982.076 466.929 980.641 468.485 978.824 468.485C977.055 468.485 975.62 466.929 975.62 464.958C975.62 463.038 977.055 461.43 978.824 461.43C980.641 461.43 982.076 463.038 982.076 464.958Z" fill="#465C88" fill-opacity="0.4"/>
<path d="M1009 464.958C1009 466.929 1007.57 468.485 1005.75 468.485C1003.98 468.485 1002.5 466.929 1002.5 464.958C1002.5 463.038 1003.98 461.43 1005.75 461.43C1007.57 461.43 1009 463.038 1009 464.958Z" fill="#465C88" fill-opacity="0.4"/>
<path d="M847.504 487.785C847.504 489.756 846.069 491.313 844.252 491.313C842.482 491.313 841 489.756 841 487.785C841 485.865 842.482 484.257 844.252 484.257C846.069 484.257 847.504 485.865 847.504 487.785Z" fill="#465C88" fill-opacity="0.4"/>
<path d="M874.428 487.785C874.428 489.756 872.993 491.313 871.176 491.313C869.406 491.313 867.924 489.756 867.924 487.785C867.924 485.865 869.406 484.257 871.176 484.257C872.993 484.257 874.428 485.865 874.428 487.785Z" fill="#465C88" fill-opacity="0.4"/>
<path d="M901.352 487.785C901.352 489.756 899.917 491.313 898.1 491.313C896.283 491.313 894.848 489.756 894.848 487.785C894.848 485.865 896.283 484.257 898.1 484.257C899.917 484.257 901.352 485.865 901.352 487.785Z" fill="#465C88" fill-opacity="0.4"/>
<path d="M928.276 487.785C928.276 489.756 926.793 491.313 925.024 491.313C923.207 491.313 921.772 489.756 921.772 487.785C921.772 485.865 923.207 484.257 925.024 484.257C926.793 484.257 928.276 485.865 928.276 487.785Z" fill="#465C88" fill-opacity="0.4"/>
<path d="M955.2 487.785C955.2 489.756 953.717 491.313 951.948 491.313C950.131 491.313 948.696 489.756 948.696 487.785C948.696 485.865 950.131 484.257 951.948 484.257C953.717 484.257 955.2 485.865 955.2 487.785Z" fill="#465C88" fill-opacity="0.4"/>
<path d="M982.076 487.785C982.076 489.756 980.641 491.313 978.824 491.313C977.055 491.313 975.62 489.756 975.62 487.785C975.62 485.865 977.055 484.257 978.824 484.257C980.641 484.257 982.076 485.865 982.076 487.785Z" fill="#465C88" fill-opacity="0.4"/>
<path d="M1009 487.785C1009 489.756 1007.57 491.313 1005.75 491.313C1003.98 491.313 1002.5 489.756 1002.5 487.785C1002.5 485.865 1003.98 484.257 1005.75 484.257C1007.57 484.257 1009 485.865 1009 487.785Z" fill="#465C88" fill-opacity="0.4"/>
<path d="M847.504 510.612C847.504 512.583 846.069 514.14 844.252 514.14C842.482 514.14 841 512.583 841 510.612C841 508.641 842.482 507.084 844.252 507.084C846.069 507.084 847.504 508.641 847.504 510.612Z" fill="#465C88" fill-opacity="0.4"/>
<path d="M874.428 510.612C874.428 512.583 872.993 514.14 871.176 514.14C869.406 514.14 867.924 512.583 867.924 510.612C867.924 508.641 869.406 507.084 871.176 507.084C872.993 507.084 874.428 508.641 874.428 510.612Z" fill="#465C88" fill-opacity="0.4"/>
<path d="M901.352 510.612C901.352 512.583 899.917 514.14 898.1 514.14C896.283 514.14 894.848 512.583 894.848 510.612C894.848 508.641 896.283 507.084 898.1 507.084C899.917 507.084 901.352 508.641 901.352 510.612Z" fill="#465C88" fill-opacity="0.4"/>
<path d="M928.276 510.612C928.276 512.583 926.793 514.14 925.024 514.14C923.207 514.14 921.772 512.583 921.772 510.612C921.772 508.641 923.207 507.084 925.024 507.084C926.793 507.084 928.276 508.641 928.276 510.612Z" fill="#465C88" fill-opacity="0.4"/>
<path d="M955.2 510.612C955.2 512.583 953.717 514.14 951.948 514.14C950.131 514.14 948.696 512.583 948.696 510.612C948.696 508.641 950.131 507.084 951.948 507.084C953.717 507.084 955.2 508.641 955.2 510.612Z" fill="#465C88" fill-opacity="0.4"/>
<path d="M982.076 510.612C982.076 512.583 980.641 514.14 978.824 514.14C977.055 514.14 975.62 512.583 975.62 510.612C975.62 508.641 977.055 507.084 978.824 507.084C980.641 507.084 982.076 508.641 982.076 510.612Z" fill="#465C88" fill-opacity="0.4"/>
<path d="M1009 510.612C1009 512.583 1007.57 514.14 1005.75 514.14C1003.98 514.14 1002.5 512.583 1002.5 510.612C1002.5 508.641 1003.98 507.084 1005.75 507.084C1007.57 507.084 1009 508.641 1009 510.612Z" fill="#465C88" fill-opacity="0.4"/>
<path d="M847.504 533.439C847.504 535.359 846.069 536.967 844.252 536.967C842.482 536.967 841 535.359 841 533.439C841 531.468 842.482 529.911 844.252 529.911C846.069 529.911 847.504 531.468 847.504 533.439Z" fill="#465C88" fill-opacity="0.4"/>
<path d="M874.428 533.439C874.428 535.359 872.993 536.967 871.176 536.967C869.406 536.967 867.924 535.359 867.924 533.439C867.924 531.468 869.406 529.911 871.176 529.911C872.993 529.911 874.428 531.468 874.428 533.439Z" fill="#465C88" fill-opacity="0.4"/>
<path d="M901.352 533.439C901.352 535.359 899.917 536.967 898.1 536.967C896.283 536.967 894.848 535.359 894.848 533.439C894.848 531.468 896.283 529.911 898.1 529.911C899.917 529.911 901.352 531.468 901.352 533.439Z" fill="#465C88" fill-opacity="0.4"/>
<path d="M928.276 533.439C928.276 535.359 926.793 536.967 925.024 536.967C923.207 536.967 921.772 535.359 921.772 533.439C921.772 531.468 923.207 529.911 925.024 529.911C926.793 529.911 928.276 531.468 928.276 533.439Z" fill="#465C88" fill-opacity="0.4"/>
<path d="M955.2 533.439C955.2 535.359 953.717 536.967 951.948 536.967C950.131 536.967 948.696 535.359 948.696 533.439C948.696 531.468 950.131 529.911 951.948 529.911C953.717 529.911 955.2 531.468 955.2 533.439Z" fill="#465C88" fill-opacity="0.4"/>
<path d="M982.076 533.439C982.076 535.359 980.641 536.967 978.824 536.967C977.055 536.967 975.62 535.359 975.62 533.439C975.62 531.468 977.055 529.911 978.824 529.911C980.641 529.911 982.076 531.468 982.076 533.439Z" fill="#465C88" fill-opacity="0.4"/>
<path d="M1009 533.439C1009 535.359 1007.57 536.967 1005.75 536.967C1003.98 536.967 1002.5 535.359 1002.5 533.439C1002.5 531.468 1003.98 529.911 1005.75 529.911C1007.57 529.911 1009 531.468 1009 533.439Z" fill="#465C88" fill-opacity="0.4"/>
<path d="M847.504 556.266C847.504 558.186 846.069 559.794 844.252 559.794C842.482 559.794 841 558.186 841 556.266C841 554.295 842.482 552.739 844.252 552.739C846.069 552.739 847.504 554.295 847.504 556.266Z" fill="#465C88" fill-opacity="0.4"/>
<path d="M874.428 556.266C874.428 558.186 872.993 559.794 871.176 559.794C869.406 559.794 867.924 558.186 867.924 556.266C867.924 554.295 869.406 552.739 871.176 552.739C872.993 552.739 874.428 554.295 874.428 556.266Z" fill="#465C88" fill-opacity="0.4"/>
<path d="M901.352 556.266C901.352 558.186 899.917 559.794 898.1 559.794C896.283 559.794 894.848 558.186 894.848 556.266C894.848 554.295 896.283 552.739 898.1 552.739C899.917 552.739 901.352 554.295 901.352 556.266Z" fill="#465C88" fill-opacity="0.4"/>
<path d="M928.276 556.266C928.276 558.186 926.793 559.794 925.024 559.794C923.207 559.794 921.772 558.186 921.772 556.266C921.772 554.295 923.207 552.739 925.024 552.739C926.793 552.739 928.276 554.295 928.276 556.266Z" fill="#465C88" fill-opacity="0.4"/>
<path d="M955.2 556.266C955.2 558.186 953.717 559.794 951.948 559.794C950.131 559.794 948.696 558.186 948.696 556.266C948.696 554.295 950.131 552.739 951.948 552.739C953.717 552.739 955.2 554.295 955.2 556.266Z" fill="#465C88" fill-opacity="0.4"/>
<path d="M982.076 556.266C982.076 558.186 980.641 559.794 978.824 559.794C977.055 559.794 975.62 558.186 975.62 556.266C975.62 554.295 977.055 552.739 978.824 552.739C980.641 552.739 982.076 554.295 982.076 556.266Z" fill="#465C88" fill-opacity="0.4"/>
<path d="M1009 556.266C1009 558.186 1007.57 559.794 1005.75 559.794C1003.98 559.794 1002.5 558.186 1002.5 556.266C1002.5 554.295 1003.98 552.739 1005.75 552.739C1007.57 552.739 1009 554.295 1009 556.266Z" fill="#465C88" fill-opacity="0.4"/>
<path d="M1037.5 396.476C1037.5 398.447 1036.07 400.004 1034.25 400.004C1032.48 400.004 1031 398.447 1031 396.476C1031 394.556 1032.48 393 1034.25 393C1036.07 393 1037.5 394.556 1037.5 396.476Z" fill="#465C88" fill-opacity="0.4"/>
<path d="M1064.43 396.476C1064.43 398.447 1062.99 400.004 1061.18 400.004C1059.41 400.004 1057.92 398.447 1057.92 396.476C1057.92 394.556 1059.41 393 1061.18 393C1062.99 393 1064.43 394.556 1064.43 396.476Z" fill="#465C88" fill-opacity="0.4"/>
<path d="M1091.35 396.476C1091.35 398.447 1089.92 400.004 1088.1 400.004C1086.28 400.004 1084.85 398.447 1084.85 396.476C1084.85 394.556 1086.28 393 1088.1 393C1089.92 393 1091.35 394.556 1091.35 396.476Z" fill="#465C88" fill-opacity="0.4"/>
<path d="M1118.28 396.476C1118.28 398.447 1116.79 400.004 1115.02 400.004C1113.21 400.004 1111.77 398.447 1111.77 396.476C1111.77 394.556 1113.21 393 1115.02 393C1116.79 393 1118.28 394.556 1118.28 396.476Z" fill="#465C88" fill-opacity="0.4"/>
<path d="M1145.2 396.476C1145.2 398.447 1143.72 400.004 1141.95 400.004C1140.13 400.004 1138.7 398.447 1138.7 396.476C1138.7 394.556 1140.13 393 1141.95 393C1143.72 393 1145.2 394.556 1145.2 396.476Z" fill="#465C88" fill-opacity="0.4"/>
<path d="M1172.08 396.476C1172.08 398.447 1170.64 400.004 1168.82 400.004C1167.05 400.004 1165.62 398.447 1165.62 396.476C1165.62 394.556 1167.05 393 1168.82 393C1170.64 393 1172.08 394.556 1172.08 396.476Z" fill="#465C88" fill-opacity="0.4"/>
<path d="M1199 396.476C1199 398.447 1197.57 400.004 1195.75 400.004C1193.98 400.004 1192.5 398.447 1192.5 396.476C1192.5 394.556 1193.98 393 1195.75 393C1197.57 393 1199 394.556 1199 396.476Z" fill="#465C88" fill-opacity="0.4"/>
<path d="M1037.5 419.303C1037.5 421.275 1036.07 422.831 1034.25 422.831C1032.48 422.831 1031 421.275 1031 419.303C1031 417.384 1032.48 415.775 1034.25 415.775C1036.07 415.775 1037.5 417.384 1037.5 419.303Z" fill="#465C88" fill-opacity="0.4"/>
<path d="M1064.43 419.303C1064.43 421.275 1062.99 422.831 1061.18 422.831C1059.41 422.831 1057.92 421.275 1057.92 419.303C1057.92 417.384 1059.41 415.775 1061.18 415.775C1062.99 415.775 1064.43 417.384 1064.43 419.303Z" fill="#465C88" fill-opacity="0.4"/>
<path d="M1091.35 419.303C1091.35 421.275 1089.92 422.831 1088.1 422.831C1086.28 422.831 1084.85 421.275 1084.85 419.303C1084.85 417.384 1086.28 415.775 1088.1 415.775C1089.92 415.775 1091.35 417.384 1091.35 419.303Z" fill="#465C88" fill-opacity="0.4"/>
<path d="M1118.28 419.303C1118.28 421.275 1116.79 422.831 1115.02 422.831C1113.21 422.831 1111.77 421.275 1111.77 419.303C1111.77 417.384 1113.21 415.775 1115.02 415.775C1116.79 415.775 1118.28 417.384 1118.28 419.303Z" fill="#465C88" fill-opacity="0.4"/>
<path d="M1145.2 419.303C1145.2 421.275 1143.72 422.831 1141.95 422.831C1140.13 422.831 1138.7 421.275 1138.7 419.303C1138.7 417.384 1140.13 415.775 1141.95 415.775C1143.72 415.775 1145.2 417.384 1145.2 419.303Z" fill="#465C88" fill-opacity="0.4"/>
<path d="M1172.08 419.303C1172.08 421.275 1170.64 422.831 1168.82 422.831C1167.05 422.831 1165.62 421.275 1165.62 419.303C1165.62 417.384 1167.05 415.775 1168.82 415.775C1170.64 415.775 1172.08 417.384 1172.08 419.303Z" fill="#465C88" fill-opacity="0.4"/>
<path d="M1199 419.303C1199 421.275 1197.57 422.831 1195.75 422.831C1193.98 422.831 1192.5 421.275 1192.5 419.303C1192.5 417.384 1193.98 415.775 1195.75 415.775C1197.57 415.775 1199 417.384 1199 419.303Z" fill="#465C88" fill-opacity="0.4"/>
<path d="M1037.5 442.13C1037.5 444.102 1036.07 445.658 1034.25 445.658C1032.48 445.658 1031 444.102 1031 442.13C1031 440.211 1032.48 438.603 1034.25 438.603C1036.07 438.603 1037.5 440.211 1037.5 442.13Z" fill="#465C88" fill-opacity="0.4"/>
<path d="M1064.43 442.13C1064.43 444.102 1062.99 445.658 1061.18 445.658C1059.41 445.658 1057.92 444.102 1057.92 442.13C1057.92 440.211 1059.41 438.603 1061.18 438.603C1062.99 438.603 1064.43 440.211 1064.43 442.13Z" fill="#465C88" fill-opacity="0.4"/>
<path d="M1091.35 442.13C1091.35 444.102 1089.92 445.658 1088.1 445.658C1086.28 445.658 1084.85 444.102 1084.85 442.13C1084.85 440.211 1086.28 438.603 1088.1 438.603C1089.92 438.603 1091.35 440.211 1091.35 442.13Z" fill="#465C88" fill-opacity="0.4"/>
<path d="M1118.28 442.13C1118.28 444.102 1116.79 445.658 1115.02 445.658C1113.21 445.658 1111.77 444.102 1111.77 442.13C1111.77 440.211 1113.21 438.603 1115.02 438.603C1116.79 438.603 1118.28 440.211 1118.28 442.13Z" fill="#465C88" fill-opacity="0.4"/>
<path d="M1145.2 442.13C1145.2 444.102 1143.72 445.658 1141.95 445.658C1140.13 445.658 1138.7 444.102 1138.7 442.13C1138.7 440.211 1140.13 438.603 1141.95 438.603C1143.72 438.603 1145.2 440.211 1145.2 442.13Z" fill="#465C88" fill-opacity="0.4"/>
<path d="M1172.08 442.13C1172.08 444.102 1170.64 445.658 1168.82 445.658C1167.05 445.658 1165.62 444.102 1165.62 442.13C1165.62 440.211 1167.05 438.603 1168.82 438.603C1170.64 438.603 1172.08 440.211 1172.08 442.13Z" fill="#465C88" fill-opacity="0.4"/>
<path d="M1199 442.13C1199 444.102 1197.57 445.658 1195.75 445.658C1193.98 445.658 1192.5 444.102 1192.5 442.13C1192.5 440.211 1193.98 438.603 1195.75 438.603C1197.57 438.603 1199 440.211 1199 442.13Z" fill="#465C88" fill-opacity="0.4"/>
<path d="M1037.5 464.958C1037.5 466.929 1036.07 468.485 1034.25 468.485C1032.48 468.485 1031 466.929 1031 464.958C1031 463.038 1032.48 461.43 1034.25 461.43C1036.07 461.43 1037.5 463.038 1037.5 464.958Z" fill="#465C88" fill-opacity="0.4"/>
<path d="M1064.43 464.958C1064.43 466.929 1062.99 468.485 1061.18 468.485C1059.41 468.485 1057.92 466.929 1057.92 464.958C1057.92 463.038 1059.41 461.43 1061.18 461.43C1062.99 461.43 1064.43 463.038 1064.43 464.958Z" fill="#465C88" fill-opacity="0.4"/>
<path d="M1091.35 464.958C1091.35 466.929 1089.92 468.485 1088.1 468.485C1086.28 468.485 1084.85 466.929 1084.85 464.958C1084.85 463.038 1086.28 461.43 1088.1 461.43C1089.92 461.43 1091.35 463.038 1091.35 464.958Z" fill="#465C88" fill-opacity="0.4"/>
<path d="M1118.28 464.958C1118.28 466.929 1116.79 468.485 1115.02 468.485C1113.21 468.485 1111.77 466.929 1111.77 464.958C1111.77 463.038 1113.21 461.43 1115.02 461.43C1116.79 461.43 1118.28 463.038 1118.28 464.958Z" fill="#465C88" fill-opacity="0.4"/>
<path d="M1145.2 464.958C1145.2 466.929 1143.72 468.485 1141.95 468.485C1140.13 468.485 1138.7 466.929 1138.7 464.958C1138.7 463.038 1140.13 461.43 1141.95 461.43C1143.72 461.43 1145.2 463.038 1145.2 464.958Z" fill="#465C88" fill-opacity="0.4"/>
<path d="M1172.08 464.958C1172.08 466.929 1170.64 468.485 1168.82 468.485C1167.05 468.485 1165.62 466.929 1165.62 464.958C1165.62 463.038 1167.05 461.43 1168.82 461.43C1170.64 461.43 1172.08 463.038 1172.08 464.958Z" fill="#465C88" fill-opacity="0.4"/>
<path d="M1199 464.958C1199 466.929 1197.57 468.485 1195.75 468.485C1193.98 468.485 1192.5 466.929 1192.5 464.958C1192.5 463.038 1193.98 461.43 1195.75 461.43C1197.57 461.43 1199 463.038 1199 464.958Z" fill="#465C88" fill-opacity="0.4"/>
<path d="M1037.5 487.785C1037.5 489.756 1036.07 491.313 1034.25 491.313C1032.48 491.313 1031 489.756 1031 487.785C1031 485.865 1032.48 484.257 1034.25 484.257C1036.07 484.257 1037.5 485.865 1037.5 487.785Z" fill="#465C88" fill-opacity="0.4"/>
<path d="M1064.43 487.785C1064.43 489.756 1062.99 491.313 1061.18 491.313C1059.41 491.313 1057.92 489.756 1057.92 487.785C1057.92 485.865 1059.41 484.257 1061.18 484.257C1062.99 484.257 1064.43 485.865 1064.43 487.785Z" fill="#465C88" fill-opacity="0.4"/>
<path d="M1091.35 487.785C1091.35 489.756 1089.92 491.313 1088.1 491.313C1086.28 491.313 1084.85 489.756 1084.85 487.785C1084.85 485.865 1086.28 484.257 1088.1 484.257C1089.92 484.257 1091.35 485.865 1091.35 487.785Z" fill="#465C88" fill-opacity="0.4"/>
<path d="M1118.28 487.785C1118.28 489.756 1116.79 491.313 1115.02 491.313C1113.21 491.313 1111.77 489.756 1111.77 487.785C1111.77 485.865 1113.21 484.257 1115.02 484.257C1116.79 484.257 1118.28 485.865 1118.28 487.785Z" fill="#465C88" fill-opacity="0.4"/>
<path d="M1145.2 487.785C1145.2 489.756 1143.72 491.313 1141.95 491.313C1140.13 491.313 1138.7 489.756 1138.7 487.785C1138.7 485.865 1140.13 484.257 1141.95 484.257C1143.72 484.257 1145.2 485.865 1145.2 487.785Z" fill="#465C88" fill-opacity="0.4"/>
<path d="M1172.08 487.785C1172.08 489.756 1170.64 491.313 1168.82 491.313C1167.05 491.313 1165.62 489.756 1165.62 487.785C1165.62 485.865 1167.05 484.257 1168.82 484.257C1170.64 484.257 1172.08 485.865 1172.08 487.785Z" fill="#465C88" fill-opacity="0.4"/>
<path d="M1199 487.785C1199 489.756 1197.57 491.313 1195.75 491.313C1193.98 491.313 1192.5 489.756 1192.5 487.785C1192.5 485.865 1193.98 484.257 1195.75 484.257C1197.57 484.257 1199 485.865 1199 487.785Z" fill="#465C88" fill-opacity="0.4"/>
<path d="M1037.5 510.612C1037.5 512.583 1036.07 514.14 1034.25 514.14C1032.48 514.14 1031 512.583 1031 510.612C1031 508.641 1032.48 507.084 1034.25 507.084C1036.07 507.084 1037.5 508.641 1037.5 510.612Z" fill="#465C88" fill-opacity="0.4"/>
<path d="M1064.43 510.612C1064.43 512.583 1062.99 514.14 1061.18 514.14C1059.41 514.14 1057.92 512.583 1057.92 510.612C1057.92 508.641 1059.41 507.084 1061.18 507.084C1062.99 507.084 1064.43 508.641 1064.43 510.612Z" fill="#465C88" fill-opacity="0.4"/>
<path d="M1091.35 510.612C1091.35 512.583 1089.92 514.14 1088.1 514.14C1086.28 514.14 1084.85 512.583 1084.85 510.612C1084.85 508.641 1086.28 507.084 1088.1 507.084C1089.92 507.084 1091.35 508.641 1091.35 510.612Z" fill="#465C88" fill-opacity="0.4"/>
<path d="M1118.28 510.612C1118.28 512.583 1116.79 514.14 1115.02 514.14C1113.21 514.14 1111.77 512.583 1111.77 510.612C1111.77 508.641 1113.21 507.084 1115.02 507.084C1116.79 507.084 1118.28 508.641 1118.28 510.612Z" fill="#465C88" fill-opacity="0.4"/>
<path d="M1145.2 510.612C1145.2 512.583 1143.72 514.14 1141.95 514.14C1140.13 514.14 1138.7 512.583 1138.7 510.612C1138.7 508.641 1140.13 507.084 1141.95 507.084C1143.72 507.084 1145.2 508.641 1145.2 510.612Z" fill="#465C88" fill-opacity="0.4"/>
<path d="M1172.08 510.612C1172.08 512.583 1170.64 514.14 1168.82 514.14C1167.05 514.14 1165.62 512.583 1165.62 510.612C1165.62 508.641 1167.05 507.084 1168.82 507.084C1170.64 507.084 1172.08 508.641 1172.08 510.612Z" fill="#465C88" fill-opacity="0.4"/>
<path d="M1199 510.612C1199 512.583 1197.57 514.14 1195.75 514.14C1193.98 514.14 1192.5 512.583 1192.5 510.612C1192.5 508.641 1193.98 507.084 1195.75 507.084C1197.57 507.084 1199 508.641 1199 510.612Z" fill="#465C88" fill-opacity="0.4"/>
<path d="M1037.5 533.439C1037.5 535.359 1036.07 536.967 1034.25 536.967C1032.48 536.967 1031 535.359 1031 533.439C1031 531.468 1032.48 529.911 1034.25 529.911C1036.07 529.911 1037.5 531.468 1037.5 533.439Z" fill="#465C88" fill-opacity="0.4"/>
<path d="M1064.43 533.439C1064.43 535.359 1062.99 536.967 1061.18 536.967C1059.41 536.967 1057.92 535.359 1057.92 533.439C1057.92 531.468 1059.41 529.911 1061.18 529.911C1062.99 529.911 1064.43 531.468 1064.43 533.439Z" fill="#465C88" fill-opacity="0.4"/>
<path d="M1091.35 533.439C1091.35 535.359 1089.92 536.967 1088.1 536.967C1086.28 536.967 1084.85 535.359 1084.85 533.439C1084.85 531.468 1086.28 529.911 1088.1 529.911C1089.92 529.911 1091.35 531.468 1091.35 533.439Z" fill="#465C88" fill-opacity="0.4"/>
<path d="M1118.28 533.439C1118.28 535.359 1116.79 536.967 1115.02 536.967C1113.21 536.967 1111.77 535.359 1111.77 533.439C1111.77 531.468 1113.21 529.911 1115.02 529.911C1116.79 529.911 1118.28 531.468 1118.28 533.439Z" fill="#465C88" fill-opacity="0.4"/>
<path d="M1145.2 533.439C1145.2 535.359 1143.72 536.967 1141.95 536.967C1140.13 536.967 1138.7 535.359 1138.7 533.439C1138.7 531.468 1140.13 529.911 1141.95 529.911C1143.72 529.911 1145.2 531.468 1145.2 533.439Z" fill="#465C88" fill-opacity="0.4"/>
<path d="M1172.08 533.439C1172.08 535.359 1170.64 536.967 1168.82 536.967C1167.05 536.967 1165.62 535.359 1165.62 533.439C1165.62 531.468 1167.05 529.911 1168.82 529.911C1170.64 529.911 1172.08 531.468 1172.08 533.439Z" fill="#465C88" fill-opacity="0.4"/>
<path d="M1199 533.439C1199 535.359 1197.57 536.967 1195.75 536.967C1193.98 536.967 1192.5 535.359 1192.5 533.439C1192.5 531.468 1193.98 529.911 1195.75 529.911C1197.57 529.911 1199 531.468 1199 533.439Z" fill="#465C88" fill-opacity="0.4"/>
<path d="M1037.5 556.266C1037.5 558.186 1036.07 559.794 1034.25 559.794C1032.48 559.794 1031 558.186 1031 556.266C1031 554.295 1032.48 552.739 1034.25 552.739C1036.07 552.739 1037.5 554.295 1037.5 556.266Z" fill="#465C88" fill-opacity="0.4"/>
<path d="M1064.43 556.266C1064.43 558.186 1062.99 559.794 1061.18 559.794C1059.41 559.794 1057.92 558.186 1057.92 556.266C1057.92 554.295 1059.41 552.739 1061.18 552.739C1062.99 552.739 1064.43 554.295 1064.43 556.266Z" fill="#465C88" fill-opacity="0.4"/>
<path d="M1091.35 556.266C1091.35 558.186 1089.92 559.794 1088.1 559.794C1086.28 559.794 1084.85 558.186 1084.85 556.266C1084.85 554.295 1086.28 552.739 1088.1 552.739C1089.92 552.739 1091.35 554.295 1091.35 556.266Z" fill="#465C88" fill-opacity="0.4"/>
<path d="M1118.28 556.266C1118.28 558.186 1116.79 559.794 1115.02 559.794C1113.21 559.794 1111.77 558.186 1111.77 556.266C1111.77 554.295 1113.21 552.739 1115.02 552.739C1116.79 552.739 1118.28 554.295 1118.28 556.266Z" fill="#465C88" fill-opacity="0.4"/>
<path d="M1145.2 556.266C1145.2 558.186 1143.72 559.794 1141.95 559.794C1140.13 559.794 1138.7 558.186 1138.7 556.266C1138.7 554.295 1140.13 552.739 1141.95 552.739C1143.72 552.739 1145.2 554.295 1145.2 556.266Z" fill="#465C88" fill-opacity="0.4"/>
<path d="M1172.08 556.266C1172.08 558.186 1170.64 559.794 1168.82 559.794C1167.05 559.794 1165.62 558.186 1165.62 556.266C1165.62 554.295 1167.05 552.739 1168.82 552.739C1170.64 552.739 1172.08 554.295 1172.08 556.266Z" fill="#465C88" fill-opacity="0.4"/>
<path d="M1199 556.266C1199 558.186 1197.57 559.794 1195.75 559.794C1193.98 559.794 1192.5 558.186 1192.5 556.266C1192.5 554.295 1193.98 552.739 1195.75 552.739C1197.57 552.739 1199 554.295 1199 556.266Z" fill="#465C88" fill-opacity="0.4"/>
<path d="M1350.05 696L1363.6 707.054L1350.05 718.109L1363.6 729.163L1350.05 740.218L1323.03 718.109L1350.05 696Z" stroke="#06202B" stroke-opacity="0.2" stroke-width="4" stroke-miterlimit="10"/>
<path d="M1386.13 696L1399.67 707.054L1386.13 718.109L1399.67 729.163L1386.13 740.218L1372.58 729.163L1359.04 718.109L1386.13 696Z" stroke="#06202B" stroke-opacity="0.2" stroke-width="4" stroke-miterlimit="10"/>
<path d="M1422.13 696L1435.68 707.054L1422.13 718.109L1435.68 729.163L1422.13 740.218L1408.59 729.163L1395.04 718.109L1408.59 707.054L1422.13 696Z" stroke="#06202B" stroke-opacity="0.2" stroke-width="4" stroke-miterlimit="10"/>
<path d="M1242.03 696L1255.57 707.054L1242.03 718.109L1255.57 729.163L1242.03 740.218L1215 718.109L1242.03 696Z" stroke="#06202B" stroke-opacity="0.2" stroke-width="4" stroke-miterlimit="10"/>
<path d="M1278.1 696L1291.64 707.054L1278.1 718.109L1291.64 729.163L1278.1 740.218L1264.55 729.163L1251.01 718.109L1278.1 696Z" stroke="#06202B" stroke-opacity="0.2" stroke-width="4" stroke-miterlimit="10"/>
<path d="M1314.11 696L1327.65 707.054L1314.11 718.109L1327.65 729.163L1314.11 740.218L1300.56 729.163L1287.02 718.109L1300.56 707.054L1314.11 696Z" stroke="#06202B" stroke-opacity="0.2" stroke-width="4" stroke-miterlimit="10"/>
<path fill-rule="evenodd" clip-rule="evenodd" d="M0.499874 147.283C-32.4605 147.283 -59.2827 120.46 -59.2827 87.5C-59.2827 54.5396 -32.4605 27.7174 0.499874 27.7174C33.4602 27.7174 60.2825 54.5396 60.2825 87.5C60.2825 120.46 33.4602 147.283 0.499874 147.283ZM0.499874 29.0281C-31.7252 29.0281 -57.9719 55.2749 -57.9719 87.5C-57.9719 119.757 -31.7252 146.004 0.499874 146.004C32.7569 146.004 58.9718 119.757 58.9718 87.5C58.9718 55.2749 32.7569 29.0281 0.499874 29.0281Z" fill="#06202B" fill-opacity="0.3"/>
<path d="M0.499512 28.2174C33.1836 28.2174 59.7825 54.8156 59.7827 87.4996C59.7827 120.184 33.1837 146.783 0.499512 146.783C-32.1845 146.783 -58.7827 120.184 -58.7827 87.4996C-58.7825 54.8157 -32.1844 28.2176 0.499512 28.2174ZM0.499512 28.528C-32.0014 28.5282 -58.472 54.9987 -58.4722 87.4996C-58.4722 120.032 -32.0017 146.503 0.499512 146.504C33.033 146.504 59.4722 120.032 59.4722 87.4996C59.472 54.9988 33.0327 28.528 0.499512 28.528Z" stroke="#06202B" stroke-opacity="0.3"/>
<path fill-rule="evenodd" clip-rule="evenodd" d="M0.499947 153.037C-35.6254 153.037 -65.0051 123.625 -65.0051 87.5C-65.0051 51.3747 -35.6254 21.9949 0.499947 21.9949C36.6253 21.9949 66.037 51.3747 66.037 87.5C66.037 123.625 36.6253 153.037 0.499947 153.037ZM0.499947 23.4335C-34.8261 23.4335 -63.5665 52.1739 -63.5665 87.5C-63.5665 122.858 -34.8261 151.598 0.499947 151.598C35.858 151.598 64.5984 122.858 64.5984 87.5C64.5984 52.1739 35.858 23.4335 0.499947 23.4335Z" fill="#06202B" fill-opacity="0.3"/>
<path d="M0.499756 22.4949C36.3492 22.4949 65.5367 51.651 65.5369 87.4998C65.5369 123.349 36.3489 152.537 0.499756 152.537C-35.349 152.537 -64.5051 123.349 -64.5051 87.4998C-64.505 51.6508 -35.3493 22.495 0.499756 22.4949ZM0.499756 22.9334C-35.1023 22.9335 -64.0665 51.8977 -64.0667 87.4998C-64.0667 123.134 -35.1025 152.098 0.499756 152.098C36.1339 152.098 65.0984 123.134 65.0984 87.4998C65.0983 51.8975 36.1337 22.9334 0.499756 22.9334Z" stroke="#06202B" stroke-opacity="0.3"/>
<path fill-rule="evenodd" clip-rule="evenodd" d="M0.500015 157.577C-18.202 157.577 -35.7851 150.288 -49.0204 137.052C-62.2557 123.817 -69.5447 106.234 -69.5447 87.5C-69.5447 68.798 -62.2557 51.2148 -49.0204 37.9795C-35.7851 24.7443 -18.202 17.4552 0.500015 17.4552C19.234 17.4552 36.8171 24.7443 50.0524 37.9795C63.2877 51.2148 70.5768 68.798 70.5768 87.5C70.5768 106.234 63.2877 123.817 50.0524 137.052C36.8171 150.288 19.234 157.577 0.500015 157.577ZM0.500015 18.9578C-37.2877 18.9578 -68.0421 49.7123 -68.0421 87.5C-68.0421 125.288 -37.2877 156.042 0.500015 156.042C38.2877 156.042 69.0422 125.288 69.0422 87.5C69.0422 49.7123 38.2877 18.9578 0.500015 18.9578Z" fill="#06202B" fill-opacity="0.3"/>
<path d="M0.500244 17.9552C19.1014 17.9553 36.557 25.1918 49.6985 38.3332C62.8401 51.4748 70.0764 68.9309 70.0764 87.5002C70.0764 106.101 62.84 123.557 49.6985 136.698C36.557 149.84 19.1015 157.076 0.500244 157.076C-18.069 157.076 -35.5251 149.84 -48.6667 136.698C-61.8082 123.557 -69.0446 106.101 -69.0447 87.5002C-69.0447 68.9309 -61.8084 51.4748 -48.6667 38.3332C-35.5251 25.1915 -18.069 17.9552 0.500244 17.9552ZM0.500244 18.4582C-37.5636 18.4582 -68.5417 49.4363 -68.5417 87.5002C-68.5417 125.564 -37.5636 156.542 0.500244 156.542C38.5639 156.542 69.5422 125.564 69.5422 87.5002C69.5422 49.4364 38.564 18.4583 0.500244 18.4582Z" stroke="#06202B" stroke-opacity="0.3"/>
<path fill-rule="evenodd" clip-rule="evenodd" d="M0.500061 162.308C-19.4808 162.308 -38.2787 154.54 -52.4091 140.409C-66.5396 126.279 -74.3081 107.481 -74.3081 87.5C-74.3081 67.5192 -66.5396 48.7212 -52.4091 34.5908C-38.2787 20.4604 -19.4808 12.6918 0.500061 12.6918C20.4809 12.6918 39.2788 20.4604 53.4093 34.5908C67.5397 48.7212 75.3082 67.5192 75.3082 87.5C75.3082 107.481 67.5397 126.279 53.4093 140.409C39.2788 154.54 20.4809 162.308 0.500061 162.308ZM0.500061 14.3223C-39.8452 14.3223 -72.6776 47.1547 -72.6776 87.5C-72.6776 127.877 -39.8452 160.71 0.500061 160.71C40.8773 160.71 73.6778 127.877 73.6778 87.5C73.6778 47.1547 40.8773 14.3223 0.500061 14.3223Z" fill="#06202B" fill-opacity="0.3"/>
<path d="M0.500488 13.1918C20.3488 13.1919 39.0198 20.9084 53.0562 34.9448C67.0923 48.9812 74.8081 67.6521 74.8081 87.5004C74.808 107.349 67.0925 126.02 53.0562 140.056C39.0198 154.092 20.3488 161.808 0.500488 161.808C-19.3478 161.808 -38.0188 154.092 -52.0552 140.056C-66.0915 126.02 -73.808 107.349 -73.8081 87.5004C-73.8081 67.6519 -66.0916 48.9812 -52.0552 34.9448C-38.0187 20.9083 -19.348 13.1918 0.500488 13.1918ZM0.500488 13.8227C-40.1209 13.8227 -73.1772 46.879 -73.1772 87.5004C-73.177 128.153 -40.1209 161.209 0.500488 161.209C41.1538 161.209 74.178 128.153 74.1782 87.5004C74.1782 46.8793 41.1538 13.8229 0.500488 13.8227Z" stroke="#06202B" stroke-opacity="0.3"/>
<path fill-rule="evenodd" clip-rule="evenodd" d="M0.49987 167.519C-20.8556 167.519 -40.9643 159.207 -56.0538 144.086C-71.1753 128.964 -79.4873 108.887 -79.4873 87.5C-79.4873 66.1445 -71.1753 46.0358 -56.0538 30.9463C-40.9643 15.8248 -20.8556 7.51279 0.49987 7.51279C21.8873 7.51279 41.9641 15.8248 57.0855 30.9463C72.207 46.0358 80.5191 66.1445 80.5191 87.5C80.5191 108.887 72.207 128.964 57.0855 144.086C41.9641 159.207 21.8873 167.519 0.49987 167.519ZM0.49987 9.23914C-42.6587 9.23914 -77.7609 44.3414 -77.7609 87.5C-77.7609 130.659 -42.6587 165.761 0.49987 165.761C43.6584 165.761 78.7608 130.659 78.7608 87.5C78.7608 44.3414 43.6584 9.23914 0.49987 9.23914Z" fill="#06202B" fill-opacity="0.3"/>
<path d="M0.5 8.01279C21.4229 8.01282 41.081 16.0162 56.0244 30.6007L56.7324 31.2999C71.7596 46.2953 80.0195 66.2769 80.0195 87.5001C80.0195 108.755 71.76 128.705 56.7324 143.733C41.7048 158.76 21.7549 167.02 0.5 167.02C-20.3916 167.02 -40.0796 159.016 -54.9932 144.432L-55.7002 143.733L-56.3994 143.025C-70.9839 128.081 -78.9873 108.423 -78.9873 87.5001C-78.9873 66.6087 -70.9841 46.9205 -56.4004 32.0069L-55.7002 31.2999C-40.7048 16.2727 -20.7232 8.01279 0.5 8.01279ZM0.5 8.73935C-42.9347 8.73935 -78.2607 44.0654 -78.2607 87.5001C-78.2607 130.935 -42.9347 166.261 0.5 166.261C43.9346 166.261 79.2607 130.935 79.2607 87.5001C79.2607 44.0654 43.9346 8.73942 0.5 8.73935Z" stroke="#06202B" stroke-opacity="0.3"/>
<path fill-rule="evenodd" clip-rule="evenodd" d="M0.499992 171.292C-21.8785 171.292 -42.9143 162.596 -58.7391 146.771C-74.5639 130.946 -83.2915 109.879 -83.2915 87.5C-83.2915 65.1215 -74.5639 44.0857 -58.7391 28.2609C-42.9143 12.4361 -21.8785 3.70844 0.499992 3.70844C22.8785 3.70844 43.9463 12.4361 59.7711 28.2609C75.5959 44.0857 84.2916 65.1215 84.2916 87.5C84.2916 109.879 75.5959 130.946 59.7711 146.771C43.9463 162.596 22.8785 171.292 0.499992 171.292ZM0.499992 5.53071C-44.7046 5.53071 -81.4693 42.2954 -81.4693 87.5C-81.4693 132.705 -44.7046 169.469 0.499992 169.469C45.7046 169.469 82.4693 132.705 82.4693 87.5C82.4693 42.2954 45.7046 5.53071 0.499992 5.53071Z" fill="#06202B" fill-opacity="0.3"/>
<path d="M0.499512 4.20844C22.7454 4.20844 43.6864 12.8836 59.4175 28.6147C75.1483 44.3455 83.7915 65.2543 83.7915 87.5004C83.7914 109.747 75.1481 130.687 59.4175 146.417C43.6868 162.148 22.7459 170.791 0.499512 170.791C-21.7464 170.791 -42.6545 162.148 -58.3853 146.417C-74.1162 130.686 -82.7914 109.746 -82.7915 87.5004C-82.7915 65.2547 -74.1164 44.3459 -58.3853 28.6147C-42.6542 12.8836 -21.746 4.20856 0.499512 4.20844ZM0.499512 5.0307C-44.981 5.03096 -81.9692 42.0199 -81.9692 87.5004C-81.969 132.981 -44.9809 169.969 0.499512 169.969C45.9801 169.969 82.969 132.981 82.9692 87.5004C82.9692 42.0197 45.9803 5.0307 0.499512 5.0307Z" stroke="#06202B" stroke-opacity="0.3"/>
<path fill-rule="evenodd" clip-rule="evenodd" d="M0.499962 175C-22.8696 175 -44.8325 165.921 -61.3606 149.393C-77.8888 132.864 -87 110.87 -87 87.5C-87 64.1304 -77.8888 42.1675 -61.3606 25.6394C-44.8325 9.11127 -22.8696 0 0.499962 0C23.8695 0 45.8644 9.11127 62.3925 25.6394C78.9207 42.1675 88 64.1304 88 87.5C88 110.87 78.9207 132.864 62.3925 149.393C45.8644 165.921 23.8695 175 0.499962 175ZM0.499962 1.91816C-46.6867 1.91816 -85.0818 40.3133 -85.0818 87.5C-85.0818 134.719 -46.6867 173.114 0.499962 173.114C47.7186 173.114 86.1138 134.719 86.1138 87.5C86.1138 40.3133 47.7186 1.91816 0.499962 1.91816Z" fill="#06202B" fill-opacity="0.3"/>
<path d="M0.5 0.5C23.7369 0.50001 45.6047 9.5588 62.0391 25.9932C78.4732 42.4273 87.5 64.2629 87.5 87.5C87.5 110.737 78.4731 132.605 62.0391 149.039C45.605 165.473 23.7374 174.5 0.5 174.5C-22.7371 174.5 -44.5727 165.473 -61.0068 149.039C-77.4412 132.605 -86.5 110.737 -86.5 87.5C-86.5 64.2633 -77.4414 42.4277 -61.0068 25.9932C-44.5723 9.55866 -22.7367 0.5 0.5 0.5ZM0.5 1.41797C-46.9628 1.41797 -85.582 40.0372 -85.582 87.5C-85.582 134.995 -46.963 173.614 0.5 173.614C47.9948 173.614 86.6143 134.995 86.6143 87.5C86.6143 40.0371 47.9947 1.41799 0.5 1.41797Z" stroke="#06202B" stroke-opacity="0.3"/>
<mask id="path-250-inside-1_57_6086" fill="white">
<path fill-rule="evenodd" clip-rule="evenodd" d="M0.499973 119.086C-16.8913 119.086 -31.0537 104.923 -31.0537 87.5C-31.0537 70.1087 -16.8913 55.9463 0.499973 55.9463C17.9232 55.9463 32.0857 70.1087 32.0857 87.5C32.0857 104.923 17.9232 119.086 0.499973 119.086ZM0.499973 56.6176C-16.5397 56.6176 -30.3823 70.4604 -30.3823 87.5C-30.3823 104.54 -16.5397 118.382 0.499973 118.382C17.5396 118.382 31.3823 104.54 31.3823 87.5C31.3823 70.4604 17.5396 56.6176 0.499973 56.6176Z"/>
</mask>
<path fill-rule="evenodd" clip-rule="evenodd" d="M0.499973 119.086C-16.8913 119.086 -31.0537 104.923 -31.0537 87.5C-31.0537 70.1087 -16.8913 55.9463 0.499973 55.9463C17.9232 55.9463 32.0857 70.1087 32.0857 87.5C32.0857 104.923 17.9232 119.086 0.499973 119.086ZM0.499973 56.6176C-16.5397 56.6176 -30.3823 70.4604 -30.3823 87.5C-30.3823 104.54 -16.5397 118.382 0.499973 118.382C17.5396 118.382 31.3823 104.54 31.3823 87.5C31.3823 70.4604 17.5396 56.6176 0.499973 56.6176Z" fill="#06202B" fill-opacity="0.3"/>
<path d="M0.499973 119.086V118.086C-16.3384 118.086 -30.0537 104.372 -30.0537 87.5H-31.0537H-32.0537C-32.0537 105.475 -17.4443 120.086 0.499973 120.086V119.086ZM-31.0537 87.5H-30.0537C-30.0537 70.661 -16.339 56.9463 0.499973 56.9463V55.9463V54.9463C-17.4436 54.9463 -32.0537 69.5564 -32.0537 87.5H-31.0537ZM0.499973 55.9463V56.9463C17.3716 56.9463 31.0857 70.6617 31.0857 87.5H32.0857H33.0857C33.0857 69.5558 18.4749 54.9463 0.499973 54.9463V55.9463ZM32.0857 87.5H31.0857C31.0857 104.371 17.371 118.086 0.499973 118.086V119.086V120.086C18.4755 120.086 33.0857 105.476 33.0857 87.5H32.0857ZM0.499973 56.6176V55.6176C-17.092 55.6176 -31.3823 69.9081 -31.3823 87.5H-30.3823H-29.3823C-29.3823 71.0127 -15.9874 57.6176 0.499973 57.6176V56.6176ZM-30.3823 87.5H-31.3823C-31.3823 105.092 -17.092 119.382 0.499973 119.382V118.382V117.382C-15.9874 117.382 -29.3823 103.987 -29.3823 87.5H-30.3823ZM0.499973 118.382V119.382C18.0919 119.382 32.3823 105.092 32.3823 87.5H31.3823H30.3823C30.3823 103.987 16.9873 117.382 0.499973 117.382V118.382ZM31.3823 87.5H32.3823C32.3823 69.9081 18.0919 55.6176 0.499973 55.6176V56.6176V57.6176C16.9873 57.6176 30.3823 71.0127 30.3823 87.5H31.3823Z" fill="#06202B" fill-opacity="0.3" mask="url(#path-250-inside-1_57_6086)"/>
<mask id="path-252-inside-2_57_6086" fill="white">
<path fill-rule="evenodd" clip-rule="evenodd" d="M0.499901 123.881C-19.5449 123.881 -35.8811 107.577 -35.8811 87.5C-35.8811 67.4553 -19.5449 51.1189 0.499901 51.1189C20.5766 51.1189 36.881 67.4553 36.881 87.5C36.881 107.577 20.5766 123.881 0.499901 123.881ZM0.499901 51.9182C-19.1293 51.9182 -35.0819 67.8709 -35.0819 87.5C-35.0819 107.129 -19.1293 123.114 0.499901 123.114C20.1291 123.114 36.1138 107.129 36.1138 87.5C36.1138 67.8709 20.1291 51.9182 0.499901 51.9182Z"/>
</mask>
<path fill-rule="evenodd" clip-rule="evenodd" d="M0.499901 123.881C-19.5449 123.881 -35.8811 107.577 -35.8811 87.5C-35.8811 67.4553 -19.5449 51.1189 0.499901 51.1189C20.5766 51.1189 36.881 67.4553 36.881 87.5C36.881 107.577 20.5766 123.881 0.499901 123.881ZM0.499901 51.9182C-19.1293 51.9182 -35.0819 67.8709 -35.0819 87.5C-35.0819 107.129 -19.1293 123.114 0.499901 123.114C20.1291 123.114 36.1138 107.129 36.1138 87.5C36.1138 67.8709 20.1291 51.9182 0.499901 51.9182Z" fill="#06202B" fill-opacity="0.3"/>
<path d="M0.499901 123.881V122.881C-18.9931 122.881 -34.8811 107.024 -34.8811 87.5H-35.8811H-36.8811C-36.8811 108.13 -20.0966 124.881 0.499901 124.881V123.881ZM-35.8811 87.5H-34.8811C-34.8811 68.0075 -18.9926 52.1189 0.499901 52.1189V51.1189V50.1189C-20.0971 50.1189 -36.8811 66.903 -36.8811 87.5H-35.8811ZM0.499901 51.1189V52.1189C20.0238 52.1189 35.881 68.007 35.881 87.5H36.881H37.881C37.881 66.9035 21.1295 50.1189 0.499901 50.1189V51.1189ZM36.881 87.5H35.881C35.881 107.024 20.0243 122.881 0.499901 122.881V123.881V124.881C21.1289 124.881 37.881 108.129 37.881 87.5H36.881ZM0.499901 51.9182V50.9182C-19.6815 50.9182 -36.0819 67.3186 -36.0819 87.5H-35.0819H-34.0819C-34.0819 68.4231 -18.577 52.9182 0.499901 52.9182V51.9182ZM-35.0819 87.5H-36.0819C-36.0819 107.68 -19.6827 124.114 0.499901 124.114V123.114V122.114C-18.5758 122.114 -34.0819 106.578 -34.0819 87.5H-35.0819ZM0.499901 123.114V124.114C20.6813 124.114 37.1138 107.681 37.1138 87.5H36.1138H35.1138C35.1138 106.577 19.5768 122.114 0.499901 122.114V123.114ZM36.1138 87.5H37.1138C37.1138 67.3174 20.6802 50.9182 0.499901 50.9182V51.9182V52.9182C19.5779 52.9182 35.1138 68.4243 35.1138 87.5H36.1138Z" fill="#06202B" fill-opacity="0.3" mask="url(#path-252-inside-2_57_6086)"/>
<mask id="path-254-inside-3_57_6086" fill="white">
<path fill-rule="evenodd" clip-rule="evenodd" d="M0.499969 129.092C-22.422 129.092 -41.092 110.454 -41.092 87.5C-41.092 64.578 -22.422 45.9079 0.499969 45.9079C23.4539 45.9079 42.0921 64.578 42.0921 87.5C42.0921 110.454 23.4539 129.092 0.499969 129.092ZM0.499969 46.835C-21.9425 46.835 -40.165 65.0575 -40.165 87.5C-40.165 109.942 -21.9425 128.197 0.499969 128.197C22.9424 128.197 41.1969 109.942 41.1969 87.5C41.1969 65.0575 22.9424 46.835 0.499969 46.835Z"/>
</mask>
<path fill-rule="evenodd" clip-rule="evenodd" d="M0.499969 129.092C-22.422 129.092 -41.092 110.454 -41.092 87.5C-41.092 64.578 -22.422 45.9079 0.499969 45.9079C23.4539 45.9079 42.0921 64.578 42.0921 87.5C42.0921 110.454 23.4539 129.092 0.499969 129.092ZM0.499969 46.835C-21.9425 46.835 -40.165 65.0575 -40.165 87.5C-40.165 109.942 -21.9425 128.197 0.499969 128.197C22.9424 128.197 41.1969 109.942 41.1969 87.5C41.1969 65.0575 22.9424 46.835 0.499969 46.835Z" fill="#06202B" fill-opacity="0.3"/>
<path d="M0.499969 129.092V128.092C-21.8702 128.092 -40.092 109.901 -40.092 87.5H-41.092H-42.092C-42.092 111.007 -22.9738 130.092 0.499969 130.092V129.092ZM-41.092 87.5H-40.092C-40.092 65.1303 -21.8697 46.9079 0.499969 46.9079V45.9079V44.9079C-22.9743 44.9079 -42.092 64.0257 -42.092 87.5H-41.092ZM0.499969 45.9079V46.9079C22.9011 46.9079 41.0921 65.1298 41.0921 87.5H42.0921H43.0921C43.0921 64.0262 24.0067 44.9079 0.499969 44.9079V45.9079ZM42.0921 87.5H41.0921C41.0921 109.902 22.9016 128.092 0.499969 128.092V129.092V130.092C24.0062 130.092 43.0921 111.006 43.0921 87.5H42.0921ZM0.499969 46.835V45.835C-22.4948 45.835 -41.165 64.5053 -41.165 87.5H-40.165H-39.165C-39.165 65.6098 -21.3902 47.835 0.499969 47.835V46.835ZM-40.165 87.5H-41.165C-41.165 110.494 -22.4958 129.197 0.499969 129.197V128.197V127.197C-21.3892 127.197 -39.165 109.391 -39.165 87.5H-40.165ZM0.499969 128.197V129.197C23.4947 129.197 42.1969 110.495 42.1969 87.5H41.1969H40.1969C40.1969 109.39 22.3901 127.197 0.499969 127.197V128.197ZM41.1969 87.5H42.1969C42.1969 64.5042 23.4937 45.835 0.499969 45.835V46.835V47.835C22.3912 47.835 40.1969 65.6108 40.1969 87.5H41.1969Z" fill="#06202B" fill-opacity="0.3" mask="url(#path-254-inside-3_57_6086)"/>
<mask id="path-256-inside-4_57_6086" fill="white">
<path fill-rule="evenodd" clip-rule="evenodd" d="M0.500029 114.194C-14.2058 114.194 -26.1943 102.238 -26.1943 87.5C-26.1943 72.7941 -14.2058 60.8056 0.500029 60.8056C15.2379 60.8056 27.1944 72.7941 27.1944 87.5C27.1944 102.238 15.2379 114.194 0.500029 114.194ZM0.500029 61.3811C-13.8862 61.3811 -25.6189 73.1138 -25.6189 87.5C-25.6189 101.918 -13.8862 113.619 0.500029 113.619C14.9182 113.619 26.619 101.918 26.619 87.5C26.619 73.1138 14.9182 61.3811 0.500029 61.3811Z"/>
</mask>
<path fill-rule="evenodd" clip-rule="evenodd" d="M0.500029 114.194C-14.2058 114.194 -26.1943 102.238 -26.1943 87.5C-26.1943 72.7941 -14.2058 60.8056 0.500029 60.8056C15.2379 60.8056 27.1944 72.7941 27.1944 87.5C27.1944 102.238 15.2379 114.194 0.500029 114.194ZM0.500029 61.3811C-13.8862 61.3811 -25.6189 73.1138 -25.6189 87.5C-25.6189 101.918 -13.8862 113.619 0.500029 113.619C14.9182 113.619 26.619 101.918 26.619 87.5C26.619 73.1138 14.9182 61.3811 0.500029 61.3811Z" fill="#06202B" fill-opacity="0.3"/>
<path d="M0.500029 114.194V113.194C-13.6543 113.194 -25.1943 101.685 -25.1943 87.5H-26.1943H-27.1943C-27.1943 102.791 -14.7574 115.194 0.500029 115.194V114.194ZM-26.1943 87.5H-25.1943C-25.1943 73.3464 -13.6536 61.8056 0.500029 61.8056V60.8056V59.8056C-14.7581 59.8056 -27.1943 72.2418 -27.1943 87.5H-26.1943ZM0.500029 60.8056V61.8056C14.6848 61.8056 26.1944 73.3456 26.1944 87.5H27.1944H28.1944C28.1944 72.2426 15.7909 59.8056 0.500029 59.8056V60.8056ZM27.1944 87.5H26.1944C26.1944 101.686 14.6856 113.194 0.500029 113.194V114.194V115.194C15.7902 115.194 28.1944 102.79 28.1944 87.5H27.1944ZM0.500029 61.3811V60.3811C-14.4384 60.3811 -26.6189 72.5615 -26.6189 87.5H-25.6189H-24.6189C-24.6189 73.6661 -13.3339 62.3811 0.500029 62.3811V61.3811ZM-25.6189 87.5H-26.6189C-26.6189 102.471 -14.4376 114.619 0.500029 114.619V113.619V112.619C-13.3347 112.619 -24.6189 101.365 -24.6189 87.5H-25.6189ZM0.500029 113.619V114.619C15.4705 114.619 27.619 102.47 27.619 87.5H26.619H25.619C25.619 101.366 14.3659 112.619 0.500029 112.619V113.619ZM26.619 87.5H27.619C27.619 72.5623 15.4713 60.3811 0.500029 60.3811V61.3811V62.3811C14.3651 62.3811 25.619 73.6653 25.619 87.5H26.619Z" fill="#06202B" fill-opacity="0.3" mask="url(#path-256-inside-4_57_6086)"/>
<mask id="path-258-inside-5_57_6086" fill="white">
<path fill-rule="evenodd" clip-rule="evenodd" d="M0.499872 109.143C-11.4247 109.143 -21.1113 99.4246 -21.1113 87.5C-21.1113 75.5755 -11.4247 65.8887 0.499872 65.8887C12.4244 65.8887 22.1432 75.5755 22.1432 87.5C22.1432 99.4246 12.4244 109.143 0.499872 109.143ZM0.499872 66.3683C-11.1689 66.3683 -20.6318 75.8312 -20.6318 87.5C-20.6318 99.1688 -11.1689 108.664 0.499872 108.664C12.1687 108.664 21.6636 99.1688 21.6636 87.5C21.6636 75.8312 12.1687 66.3683 0.499872 66.3683Z"/>
</mask>
<path fill-rule="evenodd" clip-rule="evenodd" d="M0.499872 109.143C-11.4247 109.143 -21.1113 99.4246 -21.1113 87.5C-21.1113 75.5755 -11.4247 65.8887 0.499872 65.8887C12.4244 65.8887 22.1432 75.5755 22.1432 87.5C22.1432 99.4246 12.4244 109.143 0.499872 109.143ZM0.499872 66.3683C-11.1689 66.3683 -20.6318 75.8312 -20.6318 87.5C-20.6318 99.1688 -11.1689 108.664 0.499872 108.664C12.1687 108.664 21.6636 99.1688 21.6636 87.5C21.6636 75.8312 12.1687 66.3683 0.499872 66.3683Z" fill="#06202B" fill-opacity="0.3"/>
<path d="M0.499872 109.143V108.143C-10.8705 108.143 -20.1113 98.8742 -20.1113 87.5H-21.1113H-22.1113C-22.1113 99.9749 -11.9789 110.143 0.499872 110.143V109.143ZM-21.1113 87.5H-20.1113C-20.1113 76.1277 -10.8724 66.8887 0.499872 66.8887V65.8887V64.8887C-11.977 64.8887 -22.1113 75.0232 -22.1113 87.5H-21.1113ZM0.499872 65.8887V66.8887C11.8741 66.8887 21.1432 76.1297 21.1432 87.5H22.1432H23.1432C23.1432 75.0213 12.9748 64.8887 0.499872 64.8887V65.8887ZM22.1432 87.5H21.1432C21.1432 98.8723 11.8721 108.143 0.499872 108.143V109.143V110.143C12.9767 110.143 23.1432 99.9768 23.1432 87.5H22.1432ZM0.499872 66.3683V65.3683C-11.7212 65.3683 -21.6318 75.2789 -21.6318 87.5H-20.6318H-19.6318C-19.6318 76.3835 -10.6166 67.3683 0.499872 67.3683V66.3683ZM-20.6318 87.5H-21.6318C-21.6318 99.7191 -11.7232 109.664 0.499872 109.664V108.664V107.664C-10.6147 107.664 -19.6318 98.6185 -19.6318 87.5H-20.6318ZM0.499872 108.664V109.664C12.7209 109.664 22.6636 99.7211 22.6636 87.5H21.6636H20.6636C20.6636 98.6165 11.6164 107.664 0.499872 107.664V108.664ZM21.6636 87.5H22.6636C22.6636 75.277 12.719 65.3683 0.499872 65.3683V66.3683V67.3683C11.6184 67.3683 20.6636 76.3855 20.6636 87.5H21.6636Z" fill="#06202B" fill-opacity="0.3" mask="url(#path-258-inside-5_57_6086)"/>
<mask id="path-260-inside-6_57_6086" fill="white">
<path fill-rule="evenodd" clip-rule="evenodd" d="M0.499855 106.17C-9.79426 106.17 -18.1382 97.7941 -18.1382 87.5C-18.1382 77.2059 -9.79426 68.8619 0.499855 68.8619C10.794 68.8619 19.17 77.2059 19.17 87.5C19.17 97.7941 10.794 106.17 0.499855 106.17ZM0.499855 69.2455C-9.57047 69.2455 -17.7546 77.4297 -17.7546 87.5C-17.7546 97.5703 -9.57047 105.754 0.499855 105.754C10.5702 105.754 18.7544 97.5703 18.7544 87.5C18.7544 77.4297 10.5702 69.2455 0.499855 69.2455Z"/>
</mask>
<path fill-rule="evenodd" clip-rule="evenodd" d="M0.499855 106.17C-9.79426 106.17 -18.1382 97.7941 -18.1382 87.5C-18.1382 77.2059 -9.79426 68.8619 0.499855 68.8619C10.794 68.8619 19.17 77.2059 19.17 87.5C19.17 97.7941 10.794 106.17 0.499855 106.17ZM0.499855 69.2455C-9.57047 69.2455 -17.7546 77.4297 -17.7546 87.5C-17.7546 97.5703 -9.57047 105.754 0.499855 105.754C10.5702 105.754 18.7544 97.5703 18.7544 87.5C18.7544 77.4297 10.5702 69.2455 0.499855 69.2455Z" fill="#06202B" fill-opacity="0.3"/>
<path d="M0.499855 106.17V105.17C-9.23974 105.17 -17.1382 97.2441 -17.1382 87.5H-18.1382H-19.1382C-19.1382 98.3442 -10.3488 107.17 0.499855 107.17V106.17ZM-18.1382 87.5H-17.1382C-17.1382 77.7582 -9.24197 69.8619 0.499855 69.8619V68.8619V67.8619C-10.3465 67.8619 -19.1382 76.6536 -19.1382 87.5H-18.1382ZM0.499855 68.8619V69.8619C10.2439 69.8619 18.17 77.7604 18.17 87.5H19.17H20.17C20.17 76.6514 11.344 67.8619 0.499855 67.8619V68.8619ZM19.17 87.5H18.17C18.17 97.2418 10.2417 105.17 0.499855 105.17V106.17V107.17C11.3463 107.17 20.17 98.3464 20.17 87.5H19.17ZM0.499855 69.2455V68.2455C-10.1228 68.2455 -18.7546 76.8774 -18.7546 87.5H-17.7546H-16.7546C-16.7546 77.9819 -9.01818 70.2455 0.499855 70.2455V69.2455ZM-17.7546 87.5H-18.7546C-18.7546 98.1226 -10.1228 106.754 0.499855 106.754V105.754V104.754C-9.01819 104.754 -16.7546 97.018 -16.7546 87.5H-17.7546ZM0.499855 105.754V106.754C11.1225 106.754 19.7544 98.1226 19.7544 87.5H18.7544H17.7544C17.7544 97.018 10.0179 104.754 0.499855 104.754V105.754ZM18.7544 87.5H19.7544C19.7544 76.8774 11.1225 68.2455 0.499855 68.2455V69.2455V70.2455C10.0179 70.2455 17.7544 77.9819 17.7544 87.5H18.7544Z" fill="#06202B" fill-opacity="0.3" mask="url(#path-260-inside-6_57_6086)"/>
<mask id="path-262-inside-7_57_6086" fill="white">
<path fill-rule="evenodd" clip-rule="evenodd" d="M0.500042 103.932C-8.54727 103.932 -15.9001 96.5473 -15.9001 87.5C-15.9001 78.4527 -8.54727 71.0997 0.500042 71.0997C9.54735 71.0997 16.9323 78.4527 16.9323 87.5C16.9323 96.5473 9.54735 103.932 0.500042 103.932ZM0.500042 71.4514C-8.35545 71.4514 -15.5485 78.6445 -15.5485 87.5C-15.5485 96.3555 -8.35545 103.549 0.500042 103.549C9.35554 103.549 16.5487 96.3555 16.5487 87.5C16.5487 78.6445 9.35554 71.4514 0.500042 71.4514Z"/>
</mask>
<path fill-rule="evenodd" clip-rule="evenodd" d="M0.500042 103.932C-8.54727 103.932 -15.9001 96.5473 -15.9001 87.5C-15.9001 78.4527 -8.54727 71.0997 0.500042 71.0997C9.54735 71.0997 16.9323 78.4527 16.9323 87.5C16.9323 96.5473 9.54735 103.932 0.500042 103.932ZM0.500042 71.4514C-8.35545 71.4514 -15.5485 78.6445 -15.5485 87.5C-15.5485 96.3555 -8.35545 103.549 0.500042 103.549C9.35554 103.549 16.5487 96.3555 16.5487 87.5C16.5487 78.6445 9.35554 71.4514 0.500042 71.4514Z" fill="#06202B" fill-opacity="0.3"/>
<path d="M0.500042 103.932V102.932C-7.99245 102.932 -14.9001 95.9976 -14.9001 87.5H-15.9001H-16.9001C-16.9001 97.0971 -9.10209 104.932 0.500042 104.932V103.932ZM-15.9001 87.5H-14.9001C-14.9001 79.005 -7.99498 72.0997 0.500042 72.0997V71.0997V70.0997C-9.09956 70.0997 -16.9001 77.9004 -16.9001 87.5H-15.9001ZM0.500042 71.0997V72.0997C8.99761 72.0997 15.9323 79.0075 15.9323 87.5H16.9323H17.9323C17.9323 77.8979 10.0971 70.0997 0.500042 70.0997V71.0997ZM16.9323 87.5H15.9323C15.9323 95.995 8.99508 102.932 0.500042 102.932V103.932V104.932C10.0996 104.932 17.9323 97.0996 17.9323 87.5H16.9323ZM0.500042 71.4514V70.4514C-8.90774 70.4514 -16.5485 78.0922 -16.5485 87.5H-15.5485H-14.5485C-14.5485 79.1968 -7.80317 72.4514 0.500042 72.4514V71.4514ZM-15.5485 87.5H-16.5485C-16.5485 96.9078 -8.90774 104.549 0.500042 104.549V103.549V102.549C-7.80317 102.549 -14.5485 95.8032 -14.5485 87.5H-15.5485ZM0.500042 103.549V104.549C9.90782 104.549 17.5487 96.9078 17.5487 87.5H16.5487H15.5487C15.5487 95.8032 8.80326 102.549 0.500042 102.549V103.549ZM16.5487 87.5H17.5487C17.5487 78.0922 9.90782 70.4514 0.500042 70.4514V71.4514V72.4514C8.80326 72.4514 15.5487 79.1968 15.5487 87.5H16.5487Z" fill="#06202B" fill-opacity="0.3" mask="url(#path-262-inside-7_57_6086)"/>
<mask id="path-264-inside-8_57_6086" fill="white">
<path fill-rule="evenodd" clip-rule="evenodd" d="M0.499927 100.128C-6.43741 100.128 -12.0959 94.4693 -12.0959 87.5C-12.0959 80.5627 -6.43741 74.9041 0.499927 74.9041C7.46923 74.9041 13.1278 80.5627 13.1278 87.5C13.1278 94.4693 7.46923 100.128 0.499927 100.128ZM0.499927 75.1598C-6.27757 75.1598 -11.8402 80.7225 -11.8402 87.5C-11.8402 94.3095 -6.27757 99.8401 0.499927 99.8401C7.30939 99.8401 12.8401 94.3095 12.8401 87.5C12.8401 80.7225 7.30939 75.1598 0.499927 75.1598Z"/>
</mask>
<path fill-rule="evenodd" clip-rule="evenodd" d="M0.499927 100.128C-6.43741 100.128 -12.0959 94.4693 -12.0959 87.5C-12.0959 80.5627 -6.43741 74.9041 0.499927 74.9041C7.46923 74.9041 13.1278 80.5627 13.1278 87.5C13.1278 94.4693 7.46923 100.128 0.499927 100.128ZM0.499927 75.1598C-6.27757 75.1598 -11.8402 80.7225 -11.8402 87.5C-11.8402 94.3095 -6.27757 99.8401 0.499927 99.8401C7.30939 99.8401 12.8401 94.3095 12.8401 87.5C12.8401 80.7225 7.30939 75.1598 0.499927 75.1598Z" fill="#06202B" fill-opacity="0.3"/>
<path d="M0.499927 100.128V99.1279C-5.88348 99.1279 -11.0959 93.9187 -11.0959 87.5H-12.0959H-13.0959C-13.0959 95.0199 -6.99135 101.128 0.499927 101.128V100.128ZM-12.0959 87.5H-11.0959C-11.0959 81.1149 -5.88512 75.9041 0.499927 75.9041V74.9041V73.9041C-6.9897 73.9041 -13.0959 80.0104 -13.0959 87.5H-12.0959ZM0.499927 74.9041V75.9041C6.9186 75.9041 12.1278 81.1166 12.1278 87.5H13.1278H14.1278C14.1278 80.0087 8.01987 73.9041 0.499927 73.9041V74.9041ZM13.1278 87.5H12.1278C12.1278 93.917 6.91695 99.1279 0.499927 99.1279V100.128V101.128C8.02152 101.128 14.1278 95.0216 14.1278 87.5H13.1278ZM0.499927 75.1598V74.1598C-6.82986 74.1598 -12.8402 80.1702 -12.8402 87.5H-11.8402H-10.8402C-10.8402 81.2748 -5.72527 76.1598 0.499927 76.1598V75.1598ZM-11.8402 87.5H-12.8402C-12.8402 94.8634 -6.82817 100.84 0.499927 100.84V99.8401V98.8401C-5.72696 98.8401 -10.8402 93.7555 -10.8402 87.5H-11.8402ZM0.499927 99.8401V100.84C7.86167 100.84 13.8401 94.8617 13.8401 87.5H12.8401H11.8401C11.8401 93.7572 6.75711 98.8401 0.499927 98.8401V99.8401ZM12.8401 87.5H13.8401C13.8401 80.1719 7.86336 74.1598 0.499927 74.1598V75.1598V76.1598C6.75542 76.1598 11.8401 81.2731 11.8401 87.5H12.8401Z" fill="#06202B" fill-opacity="0.3" mask="url(#path-264-inside-8_57_6086)"/>
<mask id="path-266-inside-9_57_6086" fill="white">
<path fill-rule="evenodd" clip-rule="evenodd" d="M0.500029 98.0179C-5.28642 98.0179 -9.98584 93.2864 -9.98584 87.5C-9.98584 81.7135 -5.28642 77.014 0.500029 77.014C6.28647 77.014 11.018 81.7135 11.018 87.5C11.018 93.2864 6.28647 98.0179 0.500029 98.0179ZM0.500029 77.2378C-5.15854 77.2378 -9.76207 81.8414 -9.76207 87.5C-9.76207 93.1586 -5.15854 97.7941 0.500029 97.7941C6.1586 97.7941 10.7942 93.1586 10.7942 87.5C10.7942 81.8414 6.1586 77.2378 0.500029 77.2378Z"/>
</mask>
<path fill-rule="evenodd" clip-rule="evenodd" d="M0.500029 98.0179C-5.28642 98.0179 -9.98584 93.2864 -9.98584 87.5C-9.98584 81.7135 -5.28642 77.014 0.500029 77.014C6.28647 77.014 11.018 81.7135 11.018 87.5C11.018 93.2864 6.28647 98.0179 0.500029 98.0179ZM0.500029 77.2378C-5.15854 77.2378 -9.76207 81.8414 -9.76207 87.5C-9.76207 93.1586 -5.15854 97.7941 0.500029 97.7941C6.1586 97.7941 10.7942 93.1586 10.7942 87.5C10.7942 81.8414 6.1586 77.2378 0.500029 77.2378Z" fill="#06202B" fill-opacity="0.3"/>
<path d="M0.500029 98.0179V97.0179C-4.73017 97.0179 -8.98584 92.7381 -8.98584 87.5H-9.98584H-10.9858C-10.9858 93.8347 -5.84266 99.0179 0.500029 99.0179V98.0179ZM-9.98584 87.5H-8.98584C-8.98584 82.2658 -4.73412 78.014 0.500029 78.014V77.014V76.014C-5.83871 76.014 -10.9858 81.1613 -10.9858 87.5H-9.98584ZM0.500029 77.014V78.014C5.73816 78.014 10.018 82.2698 10.018 87.5H11.018H12.018C12.018 81.1573 6.83479 76.014 0.500029 76.014V77.014ZM11.018 87.5H10.018C10.018 92.7341 5.7342 97.0179 0.500029 97.0179V98.0179V99.0179C6.83875 99.0179 12.018 93.8387 12.018 87.5H11.018ZM0.500029 77.2378V76.2378C-5.71083 76.2378 -10.7621 81.2891 -10.7621 87.5H-9.76207H-8.76207C-8.76207 82.3937 -4.60624 78.2378 0.500029 78.2378V77.2378ZM-9.76207 87.5H-10.7621C-10.7621 93.7068 -5.71487 98.7941 0.500029 98.7941V97.7941V96.7941C-4.60221 96.7941 -8.76207 92.6103 -8.76207 87.5H-9.76207ZM0.500029 97.7941V98.7941C6.71087 98.7941 11.7942 93.7108 11.7942 87.5H10.7942H9.79421C9.79421 92.6063 5.60632 96.7941 0.500029 96.7941V97.7941ZM10.7942 87.5H11.7942C11.7942 81.2851 6.70683 76.2378 0.500029 76.2378V77.2378V78.2378C5.61037 78.2378 9.79421 82.3977 9.79421 87.5H10.7942Z" fill="#06202B" fill-opacity="0.3" mask="url(#path-266-inside-9_57_6086)"/>
<mask id="path-268-inside-10_57_6086" fill="white">
<path fill-rule="evenodd" clip-rule="evenodd" d="M0.500069 133.024C-24.5958 133.024 -44.9922 112.596 -44.9922 87.5C-44.9922 62.4041 -24.5958 42.0077 0.500069 42.0077C25.596 42.0077 46.0244 62.4041 46.0244 87.5C46.0244 112.596 25.596 133.024 0.500069 133.024ZM0.500069 42.9987C-24.0524 42.9987 -44.0012 62.9476 -44.0012 87.5C-44.0012 112.052 -24.0524 132.033 0.500069 132.033C25.0525 132.033 45.0333 112.052 45.0333 87.5C45.0333 62.9476 25.0525 42.9987 0.500069 42.9987Z"/>
</mask>
<path fill-rule="evenodd" clip-rule="evenodd" d="M0.500069 133.024C-24.5958 133.024 -44.9922 112.596 -44.9922 87.5C-44.9922 62.4041 -24.5958 42.0077 0.500069 42.0077C25.596 42.0077 46.0244 62.4041 46.0244 87.5C46.0244 112.596 25.596 133.024 0.500069 133.024ZM0.500069 42.9987C-24.0524 42.9987 -44.0012 62.9476 -44.0012 87.5C-44.0012 112.052 -24.0524 132.033 0.500069 132.033C25.0525 132.033 45.0333 112.052 45.0333 87.5C45.0333 62.9476 25.0525 42.9987 0.500069 42.9987Z" fill="#06202B" fill-opacity="0.3"/>
<path d="M0.500069 133.024V132.024C-24.0426 132.024 -43.9922 112.045 -43.9922 87.5H-44.9922H-45.9922C-45.9922 113.147 -25.149 134.024 0.500069 134.024V133.024ZM-44.9922 87.5H-43.9922C-43.9922 62.9564 -24.0435 43.0077 0.500069 43.0077V42.0077V41.0077C-25.1481 41.0077 -45.9922 61.8518 -45.9922 87.5H-44.9922ZM0.500069 42.0077V43.0077C25.0446 43.0077 45.0244 62.9573 45.0244 87.5H46.0244H47.0244C47.0244 61.8509 26.1473 41.0077 0.500069 41.0077V42.0077ZM46.0244 87.5H45.0244C45.0244 112.044 25.0437 132.024 0.500069 132.024V133.024V134.024C26.1483 134.024 47.0244 113.148 47.0244 87.5H46.0244ZM0.500069 42.9987V41.9987C-24.6046 41.9987 -45.0012 62.3953 -45.0012 87.5H-44.0012H-43.0012C-43.0012 63.4999 -23.5001 43.9987 0.500069 43.9987V42.9987ZM-44.0012 87.5H-45.0012C-45.0012 112.604 -24.6056 133.033 0.500069 133.033V132.033V131.033C-23.4991 131.033 -43.0012 111.501 -43.0012 87.5H-44.0012ZM0.500069 132.033V133.033C25.6048 133.033 46.0333 112.605 46.0333 87.5H45.0333H44.0333C44.0333 111.5 24.5002 131.033 0.500069 131.033V132.033ZM45.0333 87.5H46.0333C46.0333 62.3943 25.6038 41.9987 0.500069 41.9987V42.9987V43.9987C24.5011 43.9987 44.0333 63.5008 44.0333 87.5H45.0333Z" fill="#06202B" fill-opacity="0.3" mask="url(#path-268-inside-10_57_6086)"/>
<path fill-rule="evenodd" clip-rule="evenodd" d="M0.500038 137.244C-26.9296 137.244 -49.2441 114.93 -49.2441 87.5C-49.2441 60.0704 -26.9296 37.7878 0.500038 37.7878C27.9297 37.7878 50.2443 60.0704 50.2443 87.5C50.2443 114.93 27.9297 137.244 0.500038 137.244ZM0.500038 38.8427C-26.3222 38.8427 -48.1572 60.6778 -48.1572 87.5C-48.1572 114.322 -26.3222 136.157 0.500038 136.157C27.3223 136.157 49.1574 114.322 49.1574 87.5C49.1574 60.6778 27.3223 38.8427 0.500038 38.8427Z" fill="#06202B" fill-opacity="0.3"/>
<path d="M0.5 38.2878C27.6538 38.2878 49.744 60.3467 49.7441 87.4997C49.7441 114.653 27.6535 136.744 0.5 136.744C-26.6535 136.744 -48.7441 114.653 -48.7441 87.4997C-48.744 60.3467 -26.6538 38.2878 0.5 38.2878ZM0.5 38.3424C-26.5983 38.3425 -48.657 60.4015 -48.6572 87.4997C-48.6572 114.598 -26.5984 136.657 0.5 136.657C27.5984 136.657 49.6572 114.598 49.6572 87.4997C49.657 60.4014 27.5983 38.3424 0.5 38.3424Z" stroke="#06202B" stroke-opacity="0.3"/>
<path fill-rule="evenodd" clip-rule="evenodd" d="M0.500004 142.136C-29.6151 142.136 -54.1355 117.647 -54.1355 87.5C-54.1355 57.3849 -29.6151 32.8645 0.500004 32.8645C30.6471 32.8645 55.1356 57.3849 55.1356 87.5C55.1356 117.647 30.6471 142.136 0.500004 142.136ZM0.500004 34.0793C-28.9757 34.0793 -52.9206 58.0243 -52.9206 87.5C-52.9206 116.976 -28.9757 140.953 0.500004 140.953C29.9757 140.953 53.9527 116.976 53.9527 87.5C53.9527 58.0243 29.9757 34.0793 0.500004 34.0793Z" fill="#06202B" fill-opacity="0.3"/>
<path d="M0.500244 33.3645C30.3709 33.3646 54.636 57.6612 54.636 87.5002C54.6359 117.371 30.371 141.636 0.500244 141.636C-29.3388 141.636 -53.6354 117.371 -53.6355 87.5002C-53.6355 57.6613 -29.3387 33.3645 0.500244 33.3645ZM0.500244 33.5793C-29.2516 33.5793 -53.4207 57.7484 -53.4207 87.5002C-53.4205 117.252 -29.2519 141.452 0.500244 141.452C30.2519 141.452 54.4523 117.252 54.4524 87.5002C54.4524 57.7481 30.2516 33.5794 0.500244 33.5793Z" stroke="#06202B" stroke-opacity="0.3"/>
</svg>
